<?xml version="1.0" encoding="utf-8"?>
<!-- Generator: Adobe Illustrator 21.0.0, SVG Export Plug-In . SVG Version: 6.00 Build 0)  -->
<svg version="1.1" id="レイヤー_1" xmlns="http://www.w3.org/2000/svg" xmlns:xlink="http://www.w3.org/1999/xlink" x="0px"
	 y="0px" viewBox="0 0 941 376" style="enable-background:new 0 0 941 376;" xml:space="preserve">
<style type="text/css">
	.st0{fill:#FFFFFF;stroke:#F7931E;stroke-miterlimit:10;}
	.st1{fill:#2D2828;}
	.st2{fill:#FFF1F1;stroke:#C1272D;stroke-miterlimit:10;}
	.st3{fill:#C1272D;}
	.st4{fill:none;stroke:#F7931E;stroke-miterlimit:10;}
	.st5{fill:#F7931E;}
	.st6{fill:none;stroke:#C1272D;stroke-miterlimit:10;}
</style>
<path class="st0" d="M137.5,360.5h-113c-6.6,0-12-5.4-12-12v-324c0-6.6,5.4-12,12-12h113c6.6,0,12,5.4,12,12v324
	C149.5,355.1,144.1,360.5,137.5,360.5z"/>
<g>
	<path class="st1" d="M43.3,27.1l-1.2,0.4c-0.5-2-1.7-3-3.4-3c-1.3,0-2.3,0.6-3.1,1.7c-0.7,1-1,2.4-1,4.1c0,1.9,0.4,3.4,1.3,4.5
		c0.7,0.9,1.7,1.3,2.8,1.3c1.9,0,3.1-1,3.6-3l1.2,0.4c-0.8,2.4-2.3,3.6-4.7,3.6c-1.7,0-3-0.7-4-2c-0.9-1.2-1.4-2.8-1.4-4.8
		c0-2.3,0.6-4,1.8-5.3c1-1,2.2-1.6,3.6-1.6c1.2,0,2.3,0.4,3.1,1.1C42.5,25.2,43,26.1,43.3,27.1z"/>
	<path class="st1" d="M47.2,23.5v13.4h-1.1V23.5H47.2z"/>
	<path class="st1" d="M52.2,24.2v1.7h-1.7v-1.7H52.2z M51.9,27.9v9h-1.1v-9H51.9z"/>
	<path class="st1" d="M62.6,32.4H56c0,1.3,0.3,2.2,0.9,2.9c0.5,0.6,1.2,0.8,2,0.8c1.3,0,2.1-0.6,2.5-1.9l1,0.4
		c-0.6,1.6-1.8,2.4-3.6,2.4c-1.3,0-2.3-0.5-3-1.4c-0.6-0.8-1-1.9-1-3.3c0-1.5,0.4-2.7,1.2-3.6c0.7-0.8,1.6-1.1,2.6-1.1
		c1.2,0,2.1,0.5,2.8,1.4c0.6,0.8,0.9,1.9,0.9,3.1V32.4z M61.5,31.6c-0.1-1-0.4-1.8-0.9-2.4c-0.5-0.5-1-0.7-1.7-0.7
		c-0.8,0-1.5,0.3-2,0.9c-0.4,0.5-0.7,1.3-0.8,2.1H61.5z"/>
	<path class="st1" d="M66.6,27.9v1.7c1-1.3,2.1-1.9,3.3-1.9c0.8,0,1.5,0.3,1.9,0.8c0.4,0.5,0.6,1,0.6,1.8v6.7h-1.1v-6.2
		c0-1.3-0.6-2-1.7-2c-1,0-2,0.6-3,1.9v6.3h-1.1v-9H66.6z"/>
	<path class="st1" d="M77.6,24.6v3.2h2.3v0.9h-2.3v5.9c0,1.1,0.4,1.6,1.3,1.6c0.4,0,0.8,0,1.2-0.1L80,37c-0.4,0.1-0.8,0.1-1.3,0.1
		c-1.5,0-2.3-0.8-2.3-2.3v-6.1h-1.5v-0.9h1.5v-3L77.6,24.6z"/>
</g>
<path class="st0" d="M116.5,346.5h-73c-6.6,0-12-5.4-12-12v-256c0-6.6,5.4-12,12-12h73c6.6,0,12,5.4,12,12v256
	C128.5,341.1,123.1,346.5,116.5,346.5z"/>
<g>
	<path class="st1" d="M43.3,47.1l-1.2,0.4c-0.5-2-1.7-3-3.4-3c-1.3,0-2.3,0.6-3.1,1.7c-0.7,1-1,2.4-1,4.1c0,1.9,0.4,3.4,1.3,4.5
		c0.7,0.9,1.7,1.3,2.8,1.3c1.9,0,3.1-1,3.6-3l1.2,0.4c-0.8,2.4-2.3,3.6-4.7,3.6c-1.7,0-3-0.7-4-2c-0.9-1.2-1.4-2.8-1.4-4.8
		c0-2.3,0.6-4,1.8-5.3c1-1,2.2-1.6,3.6-1.6c1.2,0,2.3,0.4,3.1,1.1C42.5,45.2,43,46.1,43.3,47.1z"/>
	<path class="st1" d="M49.3,47.6c1.2,0,2.2,0.5,2.9,1.4c0.6,0.8,0.9,1.9,0.9,3.3c0,1.5-0.4,2.7-1.2,3.6c-0.7,0.8-1.6,1.1-2.6,1.1
		c-1.2,0-2.2-0.5-2.9-1.4c-0.6-0.8-0.9-1.9-0.9-3.3c0-1.5,0.4-2.7,1.2-3.6C47.4,48,48.3,47.6,49.3,47.6z M49.3,48.5
		c-0.9,0-1.6,0.4-2,1.1c-0.4,0.7-0.6,1.5-0.6,2.7c0,1.3,0.3,2.3,0.8,3c0.5,0.6,1.1,0.9,1.9,0.9c0.9,0,1.6-0.4,2-1.1
		c0.4-0.7,0.6-1.6,0.6-2.7c0-1.3-0.3-2.2-0.8-2.9C50.7,48.8,50.1,48.5,49.3,48.5z"/>
	<path class="st1" d="M57.2,47.9v1.7c0.9-1.3,2-1.9,3-1.9c0.7,0,1.2,0.2,1.7,0.6c0.4,0.3,0.6,0.8,0.7,1.3c0.9-1.2,1.9-1.9,3.1-1.9
		c0.8,0,1.4,0.3,1.9,0.8c0.4,0.5,0.6,1,0.6,1.8v6.7H67v-6.2c0-1.3-0.5-2-1.6-2c-0.5,0-1,0.2-1.5,0.6c-0.4,0.3-0.8,0.8-1.2,1.3v6.3
		h-1.1v-6.2c0-1.3-0.5-2-1.6-2c-0.5,0-1,0.2-1.5,0.6c-0.5,0.3-0.9,0.8-1.2,1.3v6.3h-1.1v-9H57.2z"/>
	<path class="st1" d="M72.8,47.9v1.4c0.7-1.1,1.6-1.7,2.8-1.7c1.1,0,2,0.5,2.7,1.4c0.6,0.8,0.9,1.9,0.9,3.3c0,1.5-0.4,2.8-1.2,3.6
		c-0.7,0.7-1.5,1.1-2.5,1.1c-1.1,0-2-0.5-2.6-1.6v4.7h-1.1V47.9H72.8z M72.8,50.4v4c0.7,1.2,1.5,1.7,2.5,1.7c0.8,0,1.5-0.4,2-1.1
		c0.5-0.7,0.7-1.6,0.7-2.7c0-1.3-0.3-2.2-0.8-2.9c-0.5-0.6-1-0.8-1.7-0.8C74.3,48.6,73.5,49.2,72.8,50.4z"/>
	<path class="st1" d="M89,47.9v9h-1.1v-1.7c-0.4,0.6-0.9,1.1-1.6,1.5c-0.6,0.3-1.1,0.5-1.7,0.5c-0.8,0-1.4-0.2-1.9-0.7
		c-0.4-0.4-0.7-1-0.7-1.8v-6.7h1.1v6.4c0,1.2,0.6,1.9,1.7,1.9c0.6,0,1.1-0.2,1.7-0.6c0.5-0.4,0.9-0.8,1.2-1.3v-6.3H89z"/>
	<path class="st1" d="M94.1,44.6v3.2h2.3v0.9h-2.3v5.9c0,1.1,0.4,1.6,1.3,1.6c0.4,0,0.8,0,1.2-0.1L96.6,57c-0.4,0.1-0.8,0.1-1.3,0.1
		c-1.5,0-2.3-0.8-2.3-2.3v-6.1h-1.5v-0.9H93v-3L94.1,44.6z"/>
	<path class="st1" d="M106,52.4h-6.5c0,1.3,0.3,2.2,0.9,2.9c0.5,0.6,1.2,0.8,2,0.8c1.3,0,2.1-0.6,2.5-1.9l1,0.4
		c-0.6,1.6-1.8,2.4-3.6,2.4c-1.3,0-2.3-0.5-3-1.4c-0.6-0.8-1-1.9-1-3.3c0-1.5,0.4-2.7,1.2-3.6c0.7-0.8,1.6-1.1,2.6-1.1
		c1.2,0,2.1,0.5,2.8,1.4c0.6,0.8,0.9,1.9,0.9,3.1V52.4z M104.8,51.6c-0.1-1-0.4-1.8-0.9-2.4c-0.5-0.5-1-0.7-1.7-0.7
		c-0.8,0-1.5,0.3-2,0.9c-0.4,0.5-0.7,1.3-0.8,2.1H104.8z"/>
	<path class="st1" d="M113,47.6l-0.1,1.1c-0.6,0-1.2,0.3-1.8,0.8c-0.5,0.5-0.9,1.2-1.1,2v5.3H109v-9h1.1v2.3c0.4-0.9,0.8-1.6,1.4-2
		C111.9,47.8,112.5,47.6,113,47.6z"/>
</g>
<g>
	<path class="st1" d="M42,99.7h4.2c1.6,0,2.8,0.3,3.5,0.9c0.6,0.5,0.9,1.3,0.9,2.3c0,0.8-0.3,1.5-0.9,2.1c-0.5,0.5-1.2,0.7-2.1,0.9
		v0.1c1.1,0.1,2,0.5,2.6,1.2c0.5,0.6,0.8,1.3,0.8,2.1c0,1.2-0.5,2.2-1.4,2.8c-0.8,0.6-1.8,0.8-3.1,0.8H42V99.7z M43.2,100.7v4.7h2.6
		c1.2,0,2.2-0.2,2.8-0.7c0.5-0.4,0.8-1,0.8-1.7c0-0.8-0.3-1.4-0.8-1.8c-0.5-0.3-1.3-0.5-2.5-0.5H43.2z M43.2,106.4v5.4h3.1
		c2.3,0,3.4-0.9,3.4-2.7c0-0.9-0.4-1.6-1.1-2.1c-0.7-0.4-1.6-0.7-2.8-0.7H43.2z"/>
	<path class="st1" d="M58.1,103.6l-0.1,1.1c-0.6,0-1.2,0.3-1.8,0.8c-0.5,0.5-0.9,1.2-1.1,2v5.3H54v-9h1.1v2.3c0.4-0.9,0.8-1.6,1.4-2
		C57,103.8,57.5,103.6,58.1,103.6z"/>
	<path class="st1" d="M63.8,103.6c1.2,0,2.2,0.5,2.9,1.4c0.6,0.8,0.9,1.9,0.9,3.3c0,1.5-0.4,2.7-1.2,3.6c-0.7,0.8-1.6,1.1-2.6,1.1
		c-1.2,0-2.2-0.5-2.9-1.4c-0.6-0.8-0.9-1.9-0.9-3.3c0-1.5,0.4-2.7,1.2-3.6C61.9,104,62.8,103.6,63.8,103.6z M63.8,104.5
		c-0.9,0-1.6,0.4-2,1.1c-0.4,0.7-0.6,1.5-0.6,2.7c0,1.3,0.3,2.3,0.8,3c0.5,0.6,1.1,0.9,1.9,0.9c0.9,0,1.6-0.4,2-1.1
		c0.4-0.7,0.6-1.6,0.6-2.7c0-1.3-0.3-2.2-0.8-2.9C65.2,104.8,64.6,104.5,63.8,104.5z"/>
	<path class="st1" d="M82.1,103.9l-2.7,9H78l-1.5-5.6c-0.2-0.7-0.4-1.6-0.6-2.5h-0.2c-0.3,1.2-0.4,2.1-0.6,2.5l-1.5,5.6h-1.4l-2.7-9
		h1.2l1.5,5.6c0.2,0.9,0.4,1.7,0.6,2.5h0.2c0.4-1.6,0.6-2.5,0.6-2.5l1.5-5.6h1.4l1.5,5.5c0.1,0.5,0.3,1.3,0.6,2.6h0.2
		c0.2-1,0.4-1.8,0.6-2.6l1.5-5.6H82.1z"/>
	<path class="st1" d="M90.6,105.8l-1.1,0.4c-0.3-1.1-1.1-1.6-2.2-1.6c-0.7,0-1.2,0.1-1.6,0.4c-0.3,0.3-0.5,0.6-0.5,1
		c0,0.5,0.2,0.9,0.5,1.1c0.3,0.2,0.8,0.4,1.5,0.6l0.7,0.2c1.1,0.3,1.9,0.6,2.3,1c0.4,0.4,0.6,0.9,0.6,1.6c0,0.8-0.3,1.5-1,2
		c-0.6,0.5-1.4,0.7-2.5,0.7c-1.8,0-3-0.7-3.6-2.2l1.1-0.4c0.4,1.1,1.2,1.7,2.5,1.7c0.8,0,1.4-0.2,1.8-0.6c0.3-0.3,0.5-0.7,0.5-1.1
		c0-0.6-0.2-1-0.5-1.2c-0.3-0.2-0.9-0.4-1.7-0.6l-0.7-0.2c-1.1-0.2-1.8-0.6-2.2-1c-0.3-0.4-0.5-0.8-0.5-1.5c0-0.8,0.3-1.4,0.9-1.8
		c0.6-0.4,1.3-0.6,2.2-0.6C89,103.6,90,104.3,90.6,105.8z"/>
	<path class="st1" d="M100.8,108.4h-6.5c0,1.3,0.3,2.2,0.9,2.9c0.5,0.6,1.2,0.8,2,0.8c1.3,0,2.1-0.6,2.5-1.9l1,0.4
		c-0.6,1.6-1.8,2.4-3.6,2.4c-1.3,0-2.3-0.5-3-1.4c-0.6-0.8-1-1.9-1-3.3c0-1.5,0.4-2.7,1.2-3.6c0.7-0.8,1.6-1.1,2.6-1.1
		c1.2,0,2.1,0.5,2.8,1.4c0.6,0.8,0.9,1.9,0.9,3.1V108.4z M99.7,107.6c-0.1-1-0.4-1.8-0.9-2.4c-0.5-0.5-1-0.7-1.7-0.7
		c-0.8,0-1.5,0.3-2,0.9c-0.4,0.5-0.7,1.3-0.8,2.1H99.7z"/>
	<path class="st1" d="M107.9,103.6l-0.1,1.1c-0.6,0-1.2,0.3-1.8,0.8c-0.5,0.5-0.9,1.2-1.1,2v5.3h-1.1v-9h1.1v2.3
		c0.4-0.9,0.8-1.6,1.4-2C106.8,103.8,107.4,103.6,107.9,103.6z"/>
</g>
<path class="st0" d="M736.5,360.5h-462c-6.6,0-12-5.4-12-12v-324c0-6.6,5.4-12,12-12h462c6.6,0,12,5.4,12,12v324
	C748.5,355.1,743.1,360.5,736.5,360.5z"/>
<path class="st2" d="M541.5,141.5h-247c-6.6,0-12-5.4-12-12v-70c0-6.6,5.4-12,12-12h247c6.6,0,12,5.4,12,12v70
	C553.5,136.1,548.1,141.5,541.5,141.5z"/>
<path class="st2" d="M541.5,346.5h-248c-6.6,0-12-5.4-12-12v-167c0-6.6,5.4-12,12-12h248c6.6,0,12,5.4,12,12v167
	C553.5,341.1,548.1,346.5,541.5,346.5z"/>
<path class="st2" d="M469.5,256.5h-161c-6.6,0-12-5.4-12-12v-43c0-6.6,5.4-12,12-12h161c6.6,0,12,5.4,12,12v43
	C481.5,251.1,476.1,256.5,469.5,256.5z"/>
<g>
	<path class="st3" d="M323.4,217.7v13.1h-1.2v-6.4h-7v6.4H314v-13.1h1.2v5.7h7v-5.7H323.4z"/>
	<path class="st3" d="M335.9,217.7v1h-4.2v12.1h-1.2v-12.1h-4.2v-1H335.9z"/>
	<path class="st3" d="M347.2,217.7v1H343v12.1h-1.2v-12.1h-4.2v-1H347.2z"/>
	<path class="st3" d="M350.1,217.7h4.2c1.6,0,2.7,0.4,3.5,1.1c0.6,0.6,1,1.4,1,2.5c0,1.2-0.4,2.2-1.3,2.8c-0.8,0.6-1.9,0.9-3.2,0.9
		h-2.9v5.9h-1.2V217.7z M351.3,218.7v5.3h2.9c2.3,0,3.4-0.9,3.4-2.7c0-1.7-1.1-2.6-3.3-2.6H351.3z"/>
	<path class="st3" d="M366.2,216.1c-1.2,1.5-2,2.9-2.5,4.3c-0.4,1.2-0.6,2.6-0.6,4.1c0,1.7,0.3,3.2,0.8,4.6c0.5,1.2,1.3,2.5,2.3,3.8
		l-0.5,0.4c-1.4-1.4-2.3-2.9-2.9-4.3c-0.5-1.3-0.8-2.8-0.8-4.4c0-1.8,0.3-3.5,1-5c0.6-1.2,1.5-2.5,2.7-3.7L366.2,216.1z"/>
	<path class="st3" d="M376.7,220.5l-1.2,0.4c-0.5-1.6-1.5-2.4-3-2.4c-0.9,0-1.7,0.2-2.2,0.7c-0.5,0.4-0.7,1-0.7,1.6
		c0,0.8,0.2,1.4,0.7,1.8c0.4,0.3,1.1,0.6,2.1,0.9l0.5,0.1c1.6,0.4,2.7,1,3.3,1.6c0.4,0.5,0.7,1.2,0.7,2.2c0,1.2-0.4,2.1-1.3,2.8
		c-0.8,0.6-1.8,0.9-3.1,0.9c-1.2,0-2.3-0.3-3.1-0.9c-0.7-0.6-1.2-1.3-1.5-2.3l1.2-0.4c0.5,1.8,1.6,2.7,3.4,2.7c1.1,0,2-0.3,2.5-0.8
		c0.4-0.4,0.7-1,0.7-1.7c0-0.8-0.2-1.4-0.7-1.8c-0.5-0.4-1.3-0.7-2.4-1l-0.5-0.1c-1.5-0.4-2.5-0.9-3.1-1.5c-0.5-0.5-0.7-1.3-0.7-2.2
		c0-1,0.4-1.8,1.2-2.5c0.7-0.6,1.7-0.9,2.9-0.9C374.6,217.5,376,218.5,376.7,220.5z"/>
	<path class="st3" d="M379.3,215.7c1.4,1.4,2.3,2.9,2.9,4.3c0.5,1.3,0.8,2.8,0.8,4.4c0,1.8-0.3,3.5-1,5c-0.6,1.2-1.5,2.5-2.7,3.7
		l-0.5-0.4c1.2-1.5,2-2.9,2.5-4.3c0.4-1.2,0.6-2.6,0.6-4.1c0-1.7-0.3-3.2-0.8-4.6c-0.5-1.2-1.3-2.5-2.3-3.8L379.3,215.7z"/>
	<path class="st3" d="M400.1,220.5l-1.2,0.4c-0.5-1.6-1.5-2.4-3-2.4c-0.9,0-1.7,0.2-2.2,0.7c-0.5,0.4-0.7,1-0.7,1.6
		c0,0.8,0.2,1.4,0.7,1.8c0.4,0.3,1.1,0.6,2.1,0.9l0.5,0.1c1.6,0.4,2.7,1,3.3,1.6c0.4,0.5,0.7,1.2,0.7,2.2c0,1.2-0.4,2.1-1.3,2.8
		c-0.8,0.6-1.8,0.9-3.1,0.9c-1.2,0-2.3-0.3-3.1-0.9c-0.7-0.6-1.2-1.3-1.5-2.3l1.2-0.4c0.5,1.8,1.6,2.7,3.4,2.7c1.1,0,2-0.3,2.5-0.8
		c0.4-0.4,0.7-1,0.7-1.7c0-0.8-0.2-1.4-0.7-1.8c-0.5-0.4-1.3-0.7-2.4-1l-0.5-0.1c-1.5-0.4-2.5-0.9-3.1-1.5c-0.5-0.5-0.7-1.3-0.7-2.2
		c0-1,0.4-1.8,1.2-2.5c0.7-0.6,1.7-0.9,2.9-0.9C398,217.5,399.4,218.5,400.1,220.5z"/>
	<path class="st3" d="M410.4,226.4h-6.5c0,1.3,0.3,2.2,0.9,2.9c0.5,0.6,1.2,0.8,2,0.8c1.3,0,2.1-0.6,2.5-1.9l1,0.4
		c-0.6,1.6-1.8,2.4-3.6,2.4c-1.3,0-2.3-0.5-3-1.4c-0.6-0.8-1-1.9-1-3.3c0-1.5,0.4-2.7,1.2-3.6c0.7-0.8,1.6-1.1,2.6-1.1
		c1.2,0,2.1,0.5,2.8,1.4c0.6,0.8,0.9,1.9,0.9,3.1V226.4z M409.3,225.6c-0.1-1-0.4-1.8-0.9-2.4c-0.5-0.5-1-0.7-1.7-0.7
		c-0.8,0-1.5,0.3-2,0.9c-0.4,0.5-0.7,1.3-0.8,2.1H409.3z"/>
	<path class="st3" d="M417.5,221.6l-0.1,1.1c-0.6,0-1.2,0.3-1.8,0.8c-0.5,0.5-0.9,1.2-1.1,2v5.3h-1.1v-9h1.1v2.3
		c0.4-0.9,0.8-1.6,1.4-2C416.4,221.8,417,221.6,417.5,221.6z"/>
	<path class="st3" d="M426.3,221.9l-3,9h-1.4l-3-9h1.2l1.7,5.5c0.1,0.3,0.3,1.2,0.7,2.6h0.2c0.4-1.4,0.6-2.3,0.8-2.7l1.7-5.4H426.3z
		"/>
	<path class="st3" d="M435.8,226.4h-6.5c0,1.3,0.3,2.2,0.9,2.9c0.5,0.6,1.2,0.8,2,0.8c1.3,0,2.1-0.6,2.5-1.9l1,0.4
		c-0.6,1.6-1.8,2.4-3.6,2.4c-1.3,0-2.3-0.5-3-1.4c-0.6-0.8-1-1.9-1-3.3c0-1.5,0.4-2.7,1.2-3.6c0.7-0.8,1.6-1.1,2.6-1.1
		c1.2,0,2.1,0.5,2.8,1.4c0.6,0.8,0.9,1.9,0.9,3.1V226.4z M434.7,225.6c-0.1-1-0.4-1.8-0.9-2.4c-0.5-0.5-1-0.7-1.7-0.7
		c-0.8,0-1.5,0.3-2,0.9c-0.4,0.5-0.7,1.3-0.8,2.1H434.7z"/>
	<path class="st3" d="M442.9,221.6l-0.1,1.1c-0.6,0-1.2,0.3-1.8,0.8c-0.5,0.5-0.9,1.2-1.1,2v5.3h-1.1v-9h1.1v2.3
		c0.4-0.9,0.8-1.6,1.4-2C441.8,221.8,442.3,221.6,442.9,221.6z"/>
</g>
<path class="st2" d="M470.5,332.5h-162c-6.6,0-12-5.4-12-12v-38c0-6.6,5.4-12,12-12h162c6.6,0,12,5.4,12,12v38
	C482.5,327.1,477.1,332.5,470.5,332.5z"/>
<g>
	<path class="st3" d="M327.9,296.7l-3.2,13.1h-1.6l-1.9-8.1c-0.3-1.2-0.6-2.5-0.8-4h-0.2c-0.2,1.3-0.5,2.6-0.8,3.9l-2,8.1h-1.6
		l-3.1-13.1h1.3l1.7,8c0.2,0.8,0.4,2.2,0.8,4h0.2c0.5-2.4,0.8-3.8,0.8-3.9l1.9-8.1h1.6l1.9,8.1c0,0.1,0.3,1.4,0.8,3.9h0.2
		c0-0.2,0.2-0.9,0.4-2.1c0.1-0.7,0.3-1.3,0.4-1.8l1.8-8.1H327.9z"/>
	<path class="st3" d="M337.6,305.4h-6.5c0,1.3,0.3,2.2,0.9,2.9c0.5,0.6,1.2,0.8,2,0.8c1.3,0,2.1-0.6,2.5-1.9l1,0.4
		c-0.6,1.6-1.8,2.4-3.6,2.4c-1.3,0-2.3-0.5-3-1.4c-0.6-0.8-1-1.9-1-3.3c0-1.5,0.4-2.7,1.2-3.6c0.7-0.8,1.6-1.1,2.6-1.1
		c1.2,0,2.1,0.5,2.8,1.4c0.6,0.8,0.9,1.9,0.9,3.1V305.4z M336.5,304.6c-0.1-1-0.4-1.8-0.9-2.4c-0.5-0.5-1-0.7-1.7-0.7
		c-0.8,0-1.5,0.3-2,0.9c-0.4,0.5-0.7,1.3-0.8,2.1H336.5z"/>
	<path class="st3" d="M341.7,296.5v5.8c0.7-1.1,1.6-1.6,2.8-1.6s2,0.5,2.7,1.4c0.6,0.8,0.9,1.9,0.9,3.3c0,1.5-0.4,2.8-1.2,3.6
		c-0.7,0.7-1.5,1.1-2.5,1.1c-1.1,0-2-0.6-2.7-1.7l-0.2,1.5h-0.8v-13.4H341.7z M341.7,303.4v4c0.7,1.2,1.5,1.7,2.5,1.7
		c0.8,0,1.5-0.4,2-1.1c0.5-0.7,0.7-1.6,0.7-2.7c0-1.3-0.3-2.2-0.8-2.9c-0.5-0.6-1-0.8-1.7-0.8C343.2,301.6,342.4,302.2,341.7,303.4z
		"/>
	<path class="st3" d="M359,299.5l-1.2,0.4c-0.5-1.6-1.5-2.4-3-2.4c-0.9,0-1.7,0.2-2.2,0.7c-0.5,0.4-0.7,1-0.7,1.6
		c0,0.8,0.2,1.4,0.7,1.8c0.4,0.3,1.1,0.6,2.1,0.9l0.5,0.1c1.6,0.4,2.7,1,3.3,1.6c0.4,0.5,0.7,1.2,0.7,2.2c0,1.2-0.4,2.1-1.3,2.8
		c-0.8,0.6-1.8,0.9-3.1,0.9c-1.2,0-2.3-0.3-3.1-0.9c-0.7-0.6-1.2-1.3-1.5-2.3l1.2-0.4c0.5,1.8,1.6,2.7,3.4,2.7c1.1,0,2-0.3,2.5-0.8
		c0.4-0.4,0.7-1,0.7-1.7c0-0.8-0.2-1.4-0.7-1.8c-0.5-0.4-1.3-0.7-2.4-1l-0.5-0.1c-1.5-0.4-2.5-0.9-3.1-1.5c-0.5-0.5-0.7-1.3-0.7-2.2
		c0-1,0.4-1.8,1.2-2.5c0.7-0.6,1.7-0.9,2.9-0.9C356.9,296.5,358.3,297.5,359,299.5z"/>
	<path class="st3" d="M365.6,300.6c1.2,0,2.2,0.5,2.9,1.4c0.6,0.8,0.9,1.9,0.9,3.3c0,1.5-0.4,2.7-1.2,3.6c-0.7,0.8-1.6,1.1-2.6,1.1
		c-1.2,0-2.2-0.5-2.9-1.4c-0.6-0.8-0.9-1.9-0.9-3.3c0-1.5,0.4-2.7,1.2-3.6C363.7,301,364.5,300.6,365.6,300.6z M365.6,301.5
		c-0.9,0-1.6,0.4-2,1.1c-0.4,0.7-0.6,1.5-0.6,2.7c0,1.3,0.3,2.3,0.8,3c0.5,0.6,1.1,0.9,1.9,0.9c0.9,0,1.6-0.4,2-1.1
		c0.4-0.7,0.6-1.6,0.6-2.7c0-1.3-0.3-2.2-0.8-2.9C367,301.8,366.4,301.5,365.6,301.5z"/>
	<path class="st3" d="M379,303.2l-1.1,0.3c-0.3-1.3-1.1-2-2.3-2c-0.9,0-1.6,0.4-2,1.1c-0.4,0.7-0.6,1.6-0.6,2.7c0,1.3,0.3,2.3,0.8,3
		c0.5,0.6,1.1,0.9,1.9,0.9c1.3,0,2.1-0.7,2.4-2l1.1,0.4c-0.6,1.7-1.7,2.6-3.5,2.6c-1.2,0-2.2-0.5-2.9-1.4c-0.6-0.8-0.9-1.9-0.9-3.3
		c0-1.5,0.4-2.7,1.2-3.6c0.7-0.8,1.6-1.1,2.6-1.1c0.9,0,1.6,0.2,2.2,0.7C378.4,301.8,378.8,302.4,379,303.2z"/>
	<path class="st3" d="M388.6,300.9l-3.2,3.4l3.5,5.6h-1.3l-3-4.9l-1.8,1.9v3h-1.1v-13.4h1.1v9.1l4.4-4.8H388.6z"/>
	<path class="st3" d="M398.3,305.4h-6.5c0,1.3,0.3,2.2,0.9,2.9c0.5,0.6,1.2,0.8,2,0.8c1.3,0,2.1-0.6,2.5-1.9l1,0.4
		c-0.6,1.6-1.8,2.4-3.6,2.4c-1.3,0-2.3-0.5-3-1.4c-0.6-0.8-1-1.9-1-3.3c0-1.5,0.4-2.7,1.2-3.6c0.7-0.8,1.6-1.1,2.6-1.1
		c1.2,0,2.1,0.5,2.8,1.4c0.6,0.8,0.9,1.9,0.9,3.1V305.4z M397.2,304.6c-0.1-1-0.4-1.8-0.9-2.4c-0.5-0.5-1-0.7-1.7-0.7
		c-0.8,0-1.5,0.3-2,0.9c-0.4,0.5-0.7,1.3-0.8,2.1H397.2z"/>
	<path class="st3" d="M402.9,297.6v3.2h2.3v0.9h-2.3v5.9c0,1.1,0.4,1.6,1.3,1.6c0.4,0,0.8,0,1.2-0.1l-0.1,0.9
		c-0.4,0.1-0.8,0.1-1.3,0.1c-1.5,0-2.3-0.8-2.3-2.3v-6.1h-1.5v-0.9h1.5v-3L402.9,297.6z"/>
	<path class="st3" d="M420.8,299.5l-1.2,0.4c-0.5-1.6-1.5-2.4-3-2.4c-0.9,0-1.7,0.2-2.2,0.7c-0.5,0.4-0.7,1-0.7,1.6
		c0,0.8,0.2,1.4,0.7,1.8c0.4,0.3,1.1,0.6,2.1,0.9l0.5,0.1c1.6,0.4,2.7,1,3.3,1.6c0.4,0.5,0.7,1.2,0.7,2.2c0,1.2-0.4,2.1-1.3,2.8
		c-0.8,0.6-1.8,0.9-3.1,0.9c-1.2,0-2.3-0.3-3.1-0.9c-0.7-0.6-1.2-1.3-1.5-2.3l1.2-0.4c0.5,1.8,1.6,2.7,3.4,2.7c1.1,0,2-0.3,2.5-0.8
		c0.4-0.4,0.7-1,0.7-1.7c0-0.8-0.2-1.4-0.7-1.8c-0.5-0.4-1.3-0.7-2.4-1l-0.5-0.1c-1.5-0.4-2.5-0.9-3.1-1.5c-0.5-0.5-0.7-1.3-0.7-2.2
		c0-1,0.4-1.8,1.2-2.5c0.7-0.6,1.7-0.9,2.9-0.9C418.7,296.5,420.1,297.5,420.8,299.5z"/>
	<path class="st3" d="M431.1,305.4h-6.5c0,1.3,0.3,2.2,0.9,2.9c0.5,0.6,1.2,0.8,2,0.8c1.3,0,2.1-0.6,2.5-1.9l1,0.4
		c-0.6,1.6-1.8,2.4-3.6,2.4c-1.3,0-2.3-0.5-3-1.4c-0.6-0.8-1-1.9-1-3.3c0-1.5,0.4-2.7,1.2-3.6c0.7-0.8,1.6-1.1,2.6-1.1
		c1.2,0,2.1,0.5,2.8,1.4c0.6,0.8,0.9,1.9,0.9,3.1V305.4z M430,304.6c-0.1-1-0.4-1.8-0.9-2.4c-0.5-0.5-1-0.7-1.7-0.7
		c-0.8,0-1.5,0.3-2,0.9c-0.4,0.5-0.7,1.3-0.8,2.1H430z"/>
	<path class="st3" d="M438.2,300.6l-0.1,1.1c-0.6,0-1.2,0.3-1.8,0.8c-0.5,0.5-0.9,1.2-1.1,2v5.3h-1.1v-9h1.1v2.3
		c0.4-0.9,0.8-1.6,1.4-2C437.1,300.8,437.6,300.6,438.2,300.6z"/>
	<path class="st3" d="M447,300.9l-3,9h-1.4l-3-9h1.2l1.7,5.5c0.1,0.3,0.3,1.2,0.7,2.6h0.2c0.4-1.4,0.6-2.3,0.8-2.7l1.7-5.4H447z"/>
	<path class="st3" d="M456.5,305.4H450c0,1.3,0.3,2.2,0.9,2.9c0.5,0.6,1.2,0.8,2,0.8c1.3,0,2.1-0.6,2.5-1.9l1,0.4
		c-0.6,1.6-1.8,2.4-3.6,2.4c-1.3,0-2.3-0.5-3-1.4c-0.6-0.8-1-1.9-1-3.3c0-1.5,0.4-2.7,1.2-3.6c0.7-0.8,1.6-1.1,2.6-1.1
		c1.2,0,2.1,0.5,2.8,1.4c0.6,0.8,0.9,1.9,0.9,3.1V305.4z M455.4,304.6c-0.1-1-0.4-1.8-0.9-2.4c-0.5-0.5-1-0.7-1.7-0.7
		c-0.8,0-1.5,0.3-2,0.9c-0.4,0.5-0.7,1.3-0.8,2.1H455.4z"/>
	<path class="st3" d="M463.6,300.6l-0.1,1.1c-0.6,0-1.2,0.3-1.8,0.8c-0.5,0.5-0.9,1.2-1.1,2v5.3h-1.1v-9h1.1v2.3
		c0.4-0.9,0.8-1.6,1.4-2C462.5,300.8,463,300.6,463.6,300.6z"/>
</g>
<path class="st0" d="M529.5,130.5h-221c-6.6,0-12-5.4-12-12v-27c0-6.6,5.4-12,12-12h221c6.6,0,12,5.4,12,12v27
	C541.5,125.1,536.1,130.5,529.5,130.5z"/>
<g>
	<path d="M322.1,87.7v1h-6.9v4.6h5.2v1h-5.2v6.4H314V87.7H322.1z"/>
	<path d="M328.8,91.6l-0.1,1.1c-0.6,0-1.2,0.3-1.8,0.8c-0.5,0.5-0.9,1.2-1.1,2v5.3h-1.1v-9h1.1v2.3c0.4-0.9,0.8-1.6,1.4-2
		C327.7,91.8,328.3,91.6,328.8,91.6z"/>
	<path d="M334.5,91.6c1.2,0,2.2,0.5,2.9,1.4c0.6,0.8,0.9,1.9,0.9,3.3c0,1.5-0.4,2.7-1.2,3.6c-0.7,0.8-1.6,1.1-2.6,1.1
		c-1.2,0-2.2-0.5-2.9-1.4c-0.6-0.8-0.9-1.9-0.9-3.3c0-1.5,0.4-2.7,1.2-3.6C332.6,92,333.5,91.6,334.5,91.6z M334.5,92.5
		c-0.9,0-1.6,0.4-2,1.1c-0.4,0.7-0.6,1.5-0.6,2.7c0,1.3,0.3,2.3,0.8,3c0.5,0.6,1.1,0.9,1.9,0.9c0.9,0,1.6-0.4,2-1.1
		c0.4-0.7,0.6-1.6,0.6-2.7c0-1.3-0.3-2.2-0.8-2.9C335.9,92.8,335.3,92.5,334.5,92.5z"/>
	<path d="M342.5,91.9v1.7c1-1.3,2.1-1.9,3.3-1.9c0.8,0,1.5,0.3,1.9,0.8c0.4,0.5,0.6,1,0.6,1.8v6.7h-1.1v-6.2c0-1.3-0.6-2-1.7-2
		c-1,0-2,0.6-3,1.9v6.3h-1.1v-9H342.5z"/>
	<path d="M353.4,88.6v3.2h2.3v0.9h-2.3v5.9c0,1.1,0.4,1.6,1.3,1.6c0.4,0,0.8,0,1.2-0.1l-0.1,0.9c-0.4,0.1-0.8,0.1-1.3,0.1
		c-1.5,0-2.3-0.8-2.3-2.3v-6.1h-1.5v-0.9h1.5v-3L353.4,88.6z"/>
	<path d="M362.8,95.3v1h-4.9v-1H362.8z"/>
	<path d="M373,96.4h-6.5c0,1.3,0.3,2.2,0.9,2.9c0.5,0.6,1.2,0.8,2,0.8c1.3,0,2.1-0.6,2.5-1.9l1,0.4c-0.6,1.6-1.8,2.4-3.6,2.4
		c-1.3,0-2.3-0.5-3-1.4c-0.6-0.8-1-1.9-1-3.3c0-1.5,0.4-2.7,1.2-3.6c0.7-0.8,1.6-1.1,2.6-1.1c1.2,0,2.1,0.5,2.8,1.4
		c0.6,0.8,0.9,1.9,0.9,3.1V96.4z M371.9,95.6c-0.1-1-0.4-1.8-0.9-2.4c-0.5-0.5-1-0.7-1.7-0.7c-0.8,0-1.5,0.3-2,0.9
		c-0.4,0.5-0.7,1.3-0.8,2.1H371.9z"/>
	<path d="M377.1,91.9v1.7c1-1.3,2.1-1.9,3.3-1.9c0.8,0,1.5,0.3,1.9,0.8c0.4,0.5,0.6,1,0.6,1.8v6.7h-1.1v-6.2c0-1.3-0.6-2-1.7-2
		c-1,0-2,0.6-3,1.9v6.3H376v-9H377.1z"/>
	<path d="M393.3,87.5v13.4h-1.1v-1.4c-0.7,1.1-1.6,1.6-2.7,1.6c-1.1,0-2-0.5-2.7-1.4c-0.6-0.9-0.9-2-0.9-3.3c0-1.5,0.4-2.7,1.2-3.6
		c0.6-0.7,1.4-1.1,2.4-1.1c1.1,0,2,0.5,2.7,1.6v-5.7H393.3z M392.2,94.4c-0.6-1.2-1.5-1.8-2.6-1.8c-0.8,0-1.5,0.4-2,1.1
		c-0.4,0.7-0.6,1.5-0.6,2.6c0,1.3,0.3,2.2,0.9,2.9c0.5,0.6,1.1,0.9,1.8,0.9c1,0,1.8-0.6,2.5-1.7V94.4z"/>
	<path d="M413.5,91.9l-2.7,9h-1.4l-1.5-5.6c-0.2-0.7-0.4-1.6-0.6-2.5h-0.2c-0.3,1.2-0.4,2.1-0.6,2.5l-1.5,5.6h-1.4l-2.7-9h1.2
		l1.5,5.6c0.2,0.9,0.4,1.7,0.6,2.5h0.2c0.4-1.6,0.6-2.5,0.6-2.5l1.5-5.6h1.4l1.5,5.5c0.1,0.5,0.3,1.3,0.6,2.6h0.2
		c0.2-1,0.4-1.8,0.6-2.6l1.5-5.6H413.5z"/>
	<path d="M423,96.4h-6.5c0,1.3,0.3,2.2,0.9,2.9c0.5,0.6,1.2,0.8,2,0.8c1.3,0,2.1-0.6,2.5-1.9l1,0.4c-0.6,1.6-1.8,2.4-3.6,2.4
		c-1.3,0-2.3-0.5-3-1.4c-0.6-0.8-1-1.9-1-3.3c0-1.5,0.4-2.7,1.2-3.6c0.7-0.8,1.6-1.1,2.6-1.1c1.2,0,2.1,0.5,2.8,1.4
		c0.6,0.8,0.9,1.9,0.9,3.1V96.4z M421.9,95.6c-0.1-1-0.4-1.8-0.9-2.4c-0.5-0.5-1-0.7-1.7-0.7c-0.8,0-1.5,0.3-2,0.9
		c-0.4,0.5-0.7,1.3-0.8,2.1H421.9z"/>
	<path d="M427.2,87.5v5.8c0.7-1.1,1.6-1.6,2.8-1.6s2,0.5,2.7,1.4c0.6,0.8,0.9,1.9,0.9,3.3c0,1.5-0.4,2.8-1.2,3.6
		c-0.7,0.7-1.5,1.1-2.5,1.1c-1.1,0-2-0.6-2.7-1.7l-0.2,1.5H426V87.5H427.2z M427.2,94.4v4c0.7,1.2,1.5,1.7,2.5,1.7
		c0.8,0,1.5-0.4,2-1.1c0.5-0.7,0.7-1.6,0.7-2.7c0-1.3-0.3-2.2-0.8-2.9c-0.5-0.6-1-0.8-1.7-0.8C428.7,92.6,427.8,93.2,427.2,94.4z"/>
	<path d="M441.4,93.9c0.5-1.5,1.7-2.3,3.5-2.3c2.1,0,3.2,1,3.2,3v3.2c0,1.2,0.1,2.2,0.2,3.1h-1c-0.1-0.3-0.1-0.9-0.2-1.6
		c-0.8,1.2-1.9,1.8-3.3,1.8c-1,0-1.7-0.3-2.2-0.8c-0.4-0.5-0.6-1.1-0.6-1.8c0-1.6,1-2.6,3-3c0.8-0.1,1.8-0.2,3-0.3v-0.5
		c0-0.9-0.2-1.5-0.6-1.8c-0.3-0.3-0.8-0.4-1.6-0.4c-1.3,0-2.1,0.6-2.5,1.8L441.4,93.9z M447,96c-0.9,0-1.8,0.1-2.8,0.3
		c-1.4,0.3-2.2,1-2.2,2.1c0,0.6,0.2,1,0.6,1.4c0.3,0.3,0.8,0.4,1.3,0.4c1.2,0,2.2-0.7,3-2V96z"/>
	<path d="M452.7,91.9v1.4c0.7-1.1,1.6-1.7,2.8-1.7c1.1,0,2,0.5,2.7,1.4c0.6,0.8,0.9,1.9,0.9,3.3c0,1.5-0.4,2.8-1.2,3.6
		c-0.7,0.7-1.5,1.1-2.5,1.1c-1.1,0-2-0.5-2.6-1.6v4.7h-1.1V91.9H452.7z M452.8,94.4v4c0.7,1.2,1.5,1.7,2.5,1.7c0.8,0,1.5-0.4,2-1.1
		c0.5-0.7,0.7-1.6,0.7-2.7c0-1.3-0.3-2.2-0.8-2.9c-0.5-0.6-1-0.8-1.7-0.8C454.3,92.6,453.4,93.2,452.8,94.4z"/>
	<path d="M463.2,91.9v1.4c0.7-1.1,1.6-1.7,2.8-1.7c1.1,0,2,0.5,2.7,1.4c0.6,0.8,0.9,1.9,0.9,3.3c0,1.5-0.4,2.8-1.2,3.6
		c-0.7,0.7-1.5,1.1-2.5,1.1c-1.1,0-2-0.5-2.6-1.6v4.7h-1.1V91.9H463.2z M463.2,94.4v4c0.7,1.2,1.5,1.7,2.5,1.7c0.8,0,1.5-0.4,2-1.1
		c0.5-0.7,0.7-1.6,0.7-2.7c0-1.3-0.3-2.2-0.8-2.9c-0.5-0.6-1-0.8-1.7-0.8C464.7,92.6,463.9,93.2,463.2,94.4z"/>
	<path d="M473.7,87.5v13.4h-1.1V87.5H473.7z"/>
	<path d="M478.6,88.2v1.7H477v-1.7H478.6z M478.4,91.9v9h-1.1v-9H478.4z"/>
	<path d="M488.6,94.2l-1.1,0.3c-0.3-1.3-1.1-2-2.3-2c-0.9,0-1.6,0.4-2,1.1c-0.4,0.7-0.6,1.6-0.6,2.7c0,1.3,0.3,2.3,0.8,3
		c0.5,0.6,1.1,0.9,1.9,0.9c1.3,0,2.1-0.7,2.4-2l1.1,0.4c-0.6,1.7-1.7,2.6-3.5,2.6c-1.2,0-2.2-0.5-2.9-1.4c-0.6-0.8-0.9-1.9-0.9-3.3
		c0-1.5,0.4-2.7,1.2-3.6c0.7-0.8,1.6-1.1,2.6-1.1c0.9,0,1.6,0.2,2.2,0.7C487.9,92.8,488.3,93.4,488.6,94.2z"/>
	<path d="M491,93.9c0.5-1.5,1.7-2.3,3.5-2.3c2.1,0,3.2,1,3.2,3v3.2c0,1.2,0.1,2.2,0.2,3.1h-1c-0.1-0.3-0.1-0.9-0.2-1.6
		c-0.8,1.2-1.9,1.8-3.3,1.8c-1,0-1.7-0.3-2.2-0.8c-0.4-0.5-0.6-1.1-0.6-1.8c0-1.6,1-2.6,3-3c0.8-0.1,1.8-0.2,3-0.3v-0.5
		c0-0.9-0.2-1.5-0.6-1.8c-0.3-0.3-0.8-0.4-1.6-0.4c-1.3,0-2.1,0.6-2.5,1.8L491,93.9z M496.7,96c-0.9,0-1.8,0.1-2.8,0.3
		c-1.4,0.3-2.2,1-2.2,2.1c0,0.6,0.2,1,0.6,1.4c0.3,0.3,0.8,0.4,1.3,0.4c1.2,0,2.2-0.7,3-2V96z"/>
	<path d="M502.9,88.6v3.2h2.3v0.9h-2.3v5.9c0,1.1,0.4,1.6,1.3,1.6c0.4,0,0.8,0,1.2-0.1l-0.1,0.9c-0.4,0.1-0.8,0.1-1.3,0.1
		c-1.5,0-2.3-0.8-2.3-2.3v-6.1h-1.5v-0.9h1.5v-3L502.9,88.6z"/>
	<path d="M509,88.2v1.7h-1.7v-1.7H509z M508.8,91.9v9h-1.1v-9H508.8z"/>
	<path d="M515.6,91.6c1.2,0,2.2,0.5,2.9,1.4c0.6,0.8,0.9,1.9,0.9,3.3c0,1.5-0.4,2.7-1.2,3.6c-0.7,0.8-1.6,1.1-2.6,1.1
		c-1.2,0-2.2-0.5-2.9-1.4c-0.6-0.8-0.9-1.9-0.9-3.3c0-1.5,0.4-2.7,1.2-3.6C513.7,92,514.6,91.6,515.6,91.6z M515.6,92.5
		c-0.9,0-1.6,0.4-2,1.1c-0.4,0.7-0.6,1.5-0.6,2.7c0,1.3,0.3,2.3,0.8,3c0.5,0.6,1.1,0.9,1.9,0.9c0.9,0,1.6-0.4,2-1.1
		c0.4-0.7,0.6-1.6,0.6-2.7c0-1.3-0.3-2.2-0.8-2.9C517,92.8,516.4,92.5,515.6,92.5z"/>
	<path d="M523.6,91.9v1.7c1-1.3,2.1-1.9,3.3-1.9c0.8,0,1.5,0.3,1.9,0.8c0.4,0.5,0.6,1,0.6,1.8v6.7h-1.1v-6.2c0-1.3-0.6-2-1.7-2
		c-1,0-2,0.6-3,1.9v6.3h-1.1v-9H523.6z"/>
</g>
<g>
	<path class="st1" d="M55.9,77.7l-3.2,13.1h-1.6l-1.9-8.1c-0.3-1.2-0.6-2.5-0.8-4h-0.2c-0.2,1.3-0.5,2.6-0.8,3.9l-2,8.1h-1.6
		l-3.1-13.1h1.3l1.7,8c0.2,0.8,0.4,2.2,0.8,4h0.2c0.5-2.4,0.8-3.8,0.8-3.9l1.9-8.1h1.6l1.9,8.1c0,0.1,0.3,1.4,0.8,3.9h0.2
		c0-0.2,0.2-0.9,0.4-2.1c0.1-0.7,0.3-1.3,0.4-1.8l1.8-8.1H55.9z"/>
	<path class="st1" d="M65.6,86.4h-6.5c0,1.3,0.3,2.2,0.9,2.9c0.5,0.6,1.2,0.8,2,0.8c1.3,0,2.1-0.6,2.5-1.9l1,0.4
		c-0.6,1.6-1.8,2.4-3.6,2.4c-1.3,0-2.3-0.5-3-1.4c-0.6-0.8-1-1.9-1-3.3c0-1.5,0.4-2.7,1.2-3.6c0.7-0.8,1.6-1.1,2.6-1.1
		c1.2,0,2.1,0.5,2.8,1.4c0.6,0.8,0.9,1.9,0.9,3.1V86.4z M64.5,85.6c-0.1-1-0.4-1.8-0.9-2.4c-0.5-0.5-1-0.7-1.7-0.7
		c-0.8,0-1.5,0.3-2,0.9c-0.4,0.5-0.7,1.3-0.8,2.1H64.5z"/>
	<path class="st1" d="M69.7,77.5v5.8c0.7-1.1,1.6-1.6,2.8-1.6s2,0.5,2.7,1.4c0.6,0.8,0.9,1.9,0.9,3.3c0,1.5-0.4,2.8-1.2,3.6
		c-0.7,0.7-1.5,1.1-2.5,1.1c-1.1,0-2-0.6-2.7-1.7l-0.2,1.5h-0.8V77.5H69.7z M69.7,84.4v4c0.7,1.2,1.5,1.7,2.5,1.7
		c0.8,0,1.5-0.4,2-1.1c0.5-0.7,0.7-1.6,0.7-2.7c0-1.3-0.3-2.2-0.8-2.9c-0.5-0.6-1-0.8-1.7-0.8C71.2,82.6,70.4,83.2,69.7,84.4z"/>
</g>
<g>
	<g>
		<line class="st4" x1="296.5" y1="111.5" x2="135.7" y2="110.5"/>
		<g>
			<polygon class="st5" points="137.2,105.6 128.5,110.5 137.1,115.5 			"/>
		</g>
	</g>
</g>
<line class="st6" x1="296.5" y1="222.5" x2="128.5" y2="222.5"/>
<g>
	<path class="st3" d="M178.3,203l-1.2,0.3c-0.5-1.9-1.7-2.8-3.4-2.8c-1.3,0-2.3,0.6-3.1,1.7c-0.7,1-1,2.4-1,4.1
		c0,1.9,0.4,3.4,1.3,4.5c0.7,0.9,1.7,1.3,2.8,1.3c1.3,0,2.2-0.5,2.8-1.6c0.5-0.8,0.7-1.8,0.8-3.1h-3.7v-1h4.8v6.5h-0.8l-0.1-2.2
		c-0.4,0.8-0.9,1.5-1.6,1.9c-0.6,0.4-1.3,0.6-2.1,0.6c-1.7,0-3-0.7-4-2c-0.9-1.2-1.3-2.8-1.3-4.8c0-2.2,0.6-4,1.8-5.3
		c1-1,2.2-1.6,3.6-1.6c1.2,0,2.3,0.4,3.1,1.1C177.4,201.2,177.9,202,178.3,203z"/>
	<path class="st3" d="M185.1,203.6c1.2,0,2.2,0.5,2.9,1.4c0.6,0.8,0.9,1.9,0.9,3.3c0,1.5-0.4,2.7-1.2,3.6c-0.7,0.8-1.6,1.1-2.6,1.1
		c-1.2,0-2.2-0.5-2.9-1.4c-0.6-0.8-0.9-1.9-0.9-3.3c0-1.5,0.4-2.7,1.2-3.6C183.2,204,184.1,203.6,185.1,203.6z M185.1,204.5
		c-0.9,0-1.6,0.4-2,1.1c-0.4,0.7-0.6,1.5-0.6,2.7c0,1.3,0.3,2.3,0.8,3c0.5,0.6,1.1,0.9,1.9,0.9c0.9,0,1.6-0.4,2-1.1
		c0.4-0.7,0.6-1.6,0.6-2.7c0-1.3-0.3-2.2-0.8-2.9C186.5,204.8,185.9,204.5,185.1,204.5z"/>
	<path class="st3" d="M193.5,200.6v3.2h2.3v0.9h-2.3v5.9c0,1.1,0.4,1.6,1.3,1.6c0.4,0,0.8,0,1.2-0.1L196,213
		c-0.4,0.1-0.8,0.1-1.3,0.1c-1.5,0-2.3-0.8-2.3-2.3v-6.1h-1.5v-0.9h1.5v-3L193.5,200.6z"/>
	<path class="st3" d="M203.1,199.7l4.3,13.1h-1.3l-1.4-4.3h-4.9l-1.4,4.3h-1.2l4.3-13.1H203.1z M204.5,207.6l-1.1-3.4
		c-0.4-1.2-0.7-2.3-1-3.5h-0.2c-0.3,1.2-0.7,2.3-1,3.5l-1.1,3.4H204.5z"/>
	<path class="st3" d="M210.2,199.7h4.2c1.6,0,2.7,0.4,3.5,1.1c0.6,0.6,1,1.4,1,2.5c0,1.2-0.4,2.2-1.3,2.8c-0.8,0.6-1.9,0.9-3.2,0.9
		h-2.9v5.9h-1.2V199.7z M211.4,200.7v5.3h2.9c2.3,0,3.4-0.9,3.4-2.7c0-1.7-1.1-2.6-3.3-2.6H211.4z"/>
	<path class="st3" d="M223.3,199.7v13.1h-1.2v-13.1H223.3z"/>
	<path class="st3" d="M231.7,207.3v1h-4.9v-1H231.7z"/>
	<path class="st3" d="M239,199.8v12.1h2.4v1h-6.1v-1h2.6V201c-0.8,0.5-1.6,1-2.6,1.4l-0.2-1c1-0.3,2-0.8,3-1.5H239z"/>
	<path class="st3" d="M170.2,231.2v13.1H169v-13.1H170.2z"/>
	<path class="st3" d="M175.1,235.4v1.7c1-1.3,2.1-1.9,3.3-1.9c0.8,0,1.5,0.3,1.9,0.8c0.4,0.5,0.6,1,0.6,1.8v6.7h-1.1v-6.2
		c0-1.3-0.6-2-1.7-2c-1,0-2,0.6-3,1.9v6.3h-1.1v-9H175.1z"/>
	<path class="st3" d="M186.1,232.1v3.2h2.3v0.9h-2.3v5.9c0,1.1,0.4,1.6,1.3,1.6c0.4,0,0.8,0,1.2-0.1l-0.1,0.9
		c-0.4,0.1-0.8,0.1-1.3,0.1c-1.5,0-2.3-0.8-2.3-2.3v-6.1h-1.5v-0.9h1.5v-3L186.1,232.1z"/>
	<path class="st3" d="M197.9,239.9h-6.5c0,1.3,0.3,2.2,0.9,2.9c0.5,0.6,1.2,0.8,2,0.8c1.3,0,2.1-0.6,2.5-1.9l1,0.4
		c-0.6,1.6-1.8,2.4-3.6,2.4c-1.3,0-2.3-0.5-3-1.4c-0.6-0.8-1-1.9-1-3.3c0-1.5,0.4-2.7,1.2-3.6c0.7-0.8,1.6-1.1,2.6-1.1
		c1.2,0,2.1,0.5,2.8,1.4c0.6,0.8,0.9,1.9,0.9,3.1V239.9z M196.8,239.1c-0.1-1-0.4-1.8-0.9-2.4c-0.5-0.5-1-0.7-1.7-0.7
		c-0.8,0-1.5,0.3-2,0.9c-0.4,0.5-0.7,1.3-0.8,2.1H196.8z"/>
	<path class="st3" d="M205,235.1l-0.1,1.1c-0.6,0-1.2,0.3-1.8,0.8c-0.5,0.5-0.9,1.2-1.1,2v5.3h-1.1v-9h1.1v2.3
		c0.4-0.9,0.8-1.6,1.4-2C203.9,235.3,204.4,235.1,205,235.1z"/>
	<path class="st3" d="M211.5,231.1l-0.2,0.9c-0.3-0.1-0.5-0.1-0.8-0.1c-0.5,0-0.9,0.1-1.1,0.4c-0.2,0.2-0.3,0.6-0.3,1.1v1.9h2.1v0.9
		h-2.1v8.1H208v-8.1h-1.7v-0.9h1.7v-2c0-1.6,0.8-2.4,2.4-2.4C210.6,231,211,231,211.5,231.1z"/>
	<path class="st3" d="M213.4,237.4c0.5-1.5,1.7-2.3,3.5-2.3c2.1,0,3.2,1,3.2,3v3.2c0,1.2,0.1,2.2,0.2,3.1h-1
		c-0.1-0.3-0.1-0.9-0.2-1.6c-0.8,1.2-1.9,1.8-3.3,1.8c-1,0-1.7-0.3-2.2-0.8c-0.4-0.5-0.6-1.1-0.6-1.8c0-1.6,1-2.6,3-3
		c0.8-0.1,1.8-0.2,3-0.3v-0.5c0-0.9-0.2-1.5-0.6-1.8c-0.3-0.3-0.8-0.4-1.6-0.4c-1.3,0-2.1,0.6-2.5,1.8L213.4,237.4z M219,239.5
		c-0.9,0-1.8,0.1-2.8,0.3c-1.4,0.3-2.2,1-2.2,2.1c0,0.6,0.2,1,0.6,1.4c0.3,0.3,0.8,0.4,1.3,0.4c1.2,0,2.2-0.7,3-2V239.5z"/>
	<path class="st3" d="M230.3,237.7l-1.1,0.3c-0.3-1.3-1.1-2-2.3-2c-0.9,0-1.6,0.4-2,1.1c-0.4,0.7-0.6,1.6-0.6,2.7
		c0,1.3,0.3,2.3,0.8,3c0.5,0.6,1.1,0.9,1.9,0.9c1.3,0,2.1-0.7,2.4-2l1.1,0.4c-0.6,1.7-1.7,2.6-3.5,2.6c-1.2,0-2.2-0.5-2.9-1.4
		c-0.6-0.8-0.9-1.9-0.9-3.3c0-1.5,0.4-2.7,1.2-3.6c0.7-0.8,1.6-1.1,2.6-1.1c0.9,0,1.6,0.2,2.2,0.7
		C229.7,236.3,230,236.9,230.3,237.7z"/>
	<path class="st3" d="M240,239.9h-6.5c0,1.3,0.3,2.2,0.9,2.9c0.5,0.6,1.2,0.8,2,0.8c1.3,0,2.1-0.6,2.5-1.9l1,0.4
		c-0.6,1.6-1.8,2.4-3.6,2.4c-1.3,0-2.3-0.5-3-1.4c-0.6-0.8-1-1.9-1-3.3c0-1.5,0.4-2.7,1.2-3.6c0.7-0.8,1.6-1.1,2.6-1.1
		c1.2,0,2.1,0.5,2.8,1.4c0.6,0.8,0.9,1.9,0.9,3.1V239.9z M238.9,239.1c-0.1-1-0.4-1.8-0.9-2.4c-0.5-0.5-1-0.7-1.7-0.7
		c-0.8,0-1.5,0.3-2,0.9c-0.4,0.5-0.7,1.3-0.8,2.1H238.9z"/>
</g>
<g>
	<path class="st3" d="M178.3,281l-1.2,0.3c-0.5-1.9-1.7-2.8-3.4-2.8c-1.3,0-2.3,0.6-3.1,1.7c-0.7,1-1,2.4-1,4.1
		c0,1.9,0.4,3.4,1.3,4.5c0.7,0.9,1.7,1.3,2.8,1.3c1.3,0,2.2-0.5,2.8-1.6c0.5-0.8,0.7-1.8,0.8-3.1h-3.7v-1h4.8v6.5h-0.8l-0.1-2.2
		c-0.4,0.8-0.9,1.5-1.6,1.9c-0.6,0.4-1.3,0.6-2.1,0.6c-1.7,0-3-0.7-4-2c-0.9-1.2-1.3-2.8-1.3-4.8c0-2.2,0.6-4,1.8-5.3
		c1-1,2.2-1.6,3.6-1.6c1.2,0,2.3,0.4,3.1,1.1C177.4,279.2,177.9,280,178.3,281z"/>
	<path class="st3" d="M185.1,281.6c1.2,0,2.2,0.5,2.9,1.4c0.6,0.8,0.9,1.9,0.9,3.3c0,1.5-0.4,2.7-1.2,3.6c-0.7,0.8-1.6,1.1-2.6,1.1
		c-1.2,0-2.2-0.5-2.9-1.4c-0.6-0.8-0.9-1.9-0.9-3.3c0-1.5,0.4-2.7,1.2-3.6C183.2,282,184.1,281.6,185.1,281.6z M185.1,282.5
		c-0.9,0-1.6,0.4-2,1.1c-0.4,0.7-0.6,1.5-0.6,2.7c0,1.3,0.3,2.3,0.8,3c0.5,0.6,1.1,0.9,1.9,0.9c0.9,0,1.6-0.4,2-1.1
		c0.4-0.7,0.6-1.6,0.6-2.7c0-1.3-0.3-2.2-0.8-2.9C186.5,282.8,185.9,282.5,185.1,282.5z"/>
	<path class="st3" d="M193.5,278.6v3.2h2.3v0.9h-2.3v5.9c0,1.1,0.4,1.6,1.3,1.6c0.4,0,0.8,0,1.2-0.1L196,291
		c-0.4,0.1-0.8,0.1-1.3,0.1c-1.5,0-2.3-0.8-2.3-2.3v-6.1h-1.5v-0.9h1.5v-3L193.5,278.6z"/>
	<path class="st3" d="M203.1,277.7l4.3,13.1h-1.3l-1.4-4.3h-4.9l-1.4,4.3h-1.2l4.3-13.1H203.1z M204.5,285.6l-1.1-3.4
		c-0.4-1.2-0.7-2.3-1-3.5h-0.2c-0.3,1.2-0.7,2.3-1,3.5l-1.1,3.4H204.5z"/>
	<path class="st3" d="M210.2,277.7h4.2c1.6,0,2.7,0.4,3.5,1.1c0.6,0.6,1,1.4,1,2.5c0,1.2-0.4,2.2-1.3,2.8c-0.8,0.6-1.9,0.9-3.2,0.9
		h-2.9v5.9h-1.2V277.7z M211.4,278.7v5.3h2.9c2.3,0,3.4-0.9,3.4-2.7c0-1.7-1.1-2.6-3.3-2.6H211.4z"/>
	<path class="st3" d="M223.3,277.7v13.1h-1.2v-13.1H223.3z"/>
	<path class="st3" d="M231.7,285.3v1h-4.9v-1H231.7z"/>
	<path class="st3" d="M241.3,278v1H236l-0.2,3.4c0,0.3,0,0.8-0.1,1.5c0.3-0.4,0.6-0.8,1.1-1c0.4-0.2,0.9-0.3,1.4-0.3
		c1.1,0,2,0.4,2.6,1.3c0.6,0.8,0.9,1.7,0.9,2.9c0,1.5-0.4,2.6-1.3,3.4c-0.7,0.7-1.5,1-2.5,1c-1.8,0-3-0.8-3.6-2.4l1.1-0.5
		c0.4,1.3,1.3,1.9,2.5,1.9c0.9,0,1.5-0.3,2-1c0.4-0.6,0.6-1.4,0.6-2.4c0-1.1-0.3-1.9-0.8-2.5c-0.4-0.5-1-0.7-1.7-0.7
		c-0.6,0-1.1,0.2-1.5,0.5c-0.4,0.3-0.7,0.7-0.9,1.3l-0.9-0.1l0.3-7.2H241.3z"/>
	<path class="st3" d="M170.2,309.2v13.1H169v-13.1H170.2z"/>
	<path class="st3" d="M175.1,313.4v1.7c1-1.3,2.1-1.9,3.3-1.9c0.8,0,1.5,0.3,1.9,0.8c0.4,0.5,0.6,1,0.6,1.8v6.7h-1.1v-6.2
		c0-1.3-0.6-2-1.7-2c-1,0-2,0.6-3,1.9v6.3h-1.1v-9H175.1z"/>
	<path class="st3" d="M186.1,310.1v3.2h2.3v0.9h-2.3v5.9c0,1.1,0.4,1.6,1.3,1.6c0.4,0,0.8,0,1.2-0.1l-0.1,0.9
		c-0.4,0.1-0.8,0.1-1.3,0.1c-1.5,0-2.3-0.8-2.3-2.3v-6.1h-1.5v-0.9h1.5v-3L186.1,310.1z"/>
	<path class="st3" d="M197.9,317.9h-6.5c0,1.3,0.3,2.2,0.9,2.9c0.5,0.6,1.2,0.8,2,0.8c1.3,0,2.1-0.6,2.5-1.9l1,0.4
		c-0.6,1.6-1.8,2.4-3.6,2.4c-1.3,0-2.3-0.5-3-1.4c-0.6-0.8-1-1.9-1-3.3c0-1.5,0.4-2.7,1.2-3.6c0.7-0.8,1.6-1.1,2.6-1.1
		c1.2,0,2.1,0.5,2.8,1.4c0.6,0.8,0.9,1.9,0.9,3.1V317.9z M196.8,317.1c-0.1-1-0.4-1.8-0.9-2.4c-0.5-0.5-1-0.7-1.7-0.7
		c-0.8,0-1.5,0.3-2,0.9c-0.4,0.5-0.7,1.3-0.8,2.1H196.8z"/>
	<path class="st3" d="M205,313.1l-0.1,1.1c-0.6,0-1.2,0.3-1.8,0.8c-0.5,0.5-0.9,1.2-1.1,2v5.3h-1.1v-9h1.1v2.3
		c0.4-0.9,0.8-1.6,1.4-2C203.9,313.3,204.4,313.1,205,313.1z"/>
	<path class="st3" d="M211.5,309.1l-0.2,0.9c-0.3-0.1-0.5-0.1-0.8-0.1c-0.5,0-0.9,0.1-1.1,0.4c-0.2,0.2-0.3,0.6-0.3,1.1v1.9h2.1v0.9
		h-2.1v8.1H208v-8.1h-1.7v-0.9h1.7v-2c0-1.6,0.8-2.4,2.4-2.4C210.6,309,211,309,211.5,309.1z"/>
	<path class="st3" d="M213.4,315.4c0.5-1.5,1.7-2.3,3.5-2.3c2.1,0,3.2,1,3.2,3v3.2c0,1.2,0.1,2.2,0.2,3.1h-1
		c-0.1-0.3-0.1-0.9-0.2-1.6c-0.8,1.2-1.9,1.8-3.3,1.8c-1,0-1.7-0.3-2.2-0.8c-0.4-0.5-0.6-1.1-0.6-1.8c0-1.6,1-2.6,3-3
		c0.8-0.1,1.8-0.2,3-0.3v-0.5c0-0.9-0.2-1.5-0.6-1.8c-0.3-0.3-0.8-0.4-1.6-0.4c-1.3,0-2.1,0.6-2.5,1.8L213.4,315.4z M219,317.5
		c-0.9,0-1.8,0.1-2.8,0.3c-1.4,0.3-2.2,1-2.2,2.1c0,0.6,0.2,1,0.6,1.4c0.3,0.3,0.8,0.4,1.3,0.4c1.2,0,2.2-0.7,3-2V317.5z"/>
	<path class="st3" d="M230.3,315.7l-1.1,0.3c-0.3-1.3-1.1-2-2.3-2c-0.9,0-1.6,0.4-2,1.1c-0.4,0.7-0.6,1.6-0.6,2.7
		c0,1.3,0.3,2.3,0.8,3c0.5,0.6,1.1,0.9,1.9,0.9c1.3,0,2.1-0.7,2.4-2l1.1,0.4c-0.6,1.7-1.7,2.6-3.5,2.6c-1.2,0-2.2-0.5-2.9-1.4
		c-0.6-0.8-0.9-1.9-0.9-3.3c0-1.5,0.4-2.7,1.2-3.6c0.7-0.8,1.6-1.1,2.6-1.1c0.9,0,1.6,0.2,2.2,0.7
		C229.7,314.3,230,314.9,230.3,315.7z"/>
	<path class="st3" d="M240,317.9h-6.5c0,1.3,0.3,2.2,0.9,2.9c0.5,0.6,1.2,0.8,2,0.8c1.3,0,2.1-0.6,2.5-1.9l1,0.4
		c-0.6,1.6-1.8,2.4-3.6,2.4c-1.3,0-2.3-0.5-3-1.4c-0.6-0.8-1-1.9-1-3.3c0-1.5,0.4-2.7,1.2-3.6c0.7-0.8,1.6-1.1,2.6-1.1
		c1.2,0,2.1,0.5,2.8,1.4c0.6,0.8,0.9,1.9,0.9,3.1V317.9z M238.9,317.1c-0.1-1-0.4-1.8-0.9-2.4c-0.5-0.5-1-0.7-1.7-0.7
		c-0.8,0-1.5,0.3-2,0.9c-0.4,0.5-0.7,1.3-0.8,2.1H238.9z"/>
</g>
<line class="st6" x1="296.5" y1="301.5" x2="128.5" y2="301.5"/>
<g>
	<path class="st1" d="M292.4,23.7v13.1h-1.2v-6.4h-7v6.4H283V23.7h1.2v5.7h7v-5.7H292.4z"/>
	<path class="st1" d="M299.5,27.6c1.2,0,2.2,0.5,2.9,1.4c0.6,0.8,0.9,1.9,0.9,3.3c0,1.5-0.4,2.7-1.2,3.6c-0.7,0.8-1.6,1.1-2.6,1.1
		c-1.2,0-2.2-0.5-2.9-1.4c-0.6-0.8-0.9-1.9-0.9-3.3c0-1.5,0.4-2.7,1.2-3.6C297.5,28,298.4,27.6,299.5,27.6z M299.5,28.5
		c-0.9,0-1.6,0.4-2,1.1c-0.4,0.7-0.6,1.5-0.6,2.7c0,1.3,0.3,2.3,0.8,3c0.5,0.6,1.1,0.9,1.9,0.9c0.9,0,1.6-0.4,2-1.1
		c0.4-0.7,0.6-1.6,0.6-2.7c0-1.3-0.3-2.2-0.8-2.9C300.9,28.8,300.2,28.5,299.5,28.5z"/>
	<path class="st1" d="M312.3,29.8l-1.1,0.4c-0.3-1.1-1.1-1.6-2.2-1.6c-0.7,0-1.2,0.1-1.6,0.4c-0.3,0.3-0.5,0.6-0.5,1
		c0,0.5,0.2,0.9,0.5,1.1c0.3,0.2,0.8,0.4,1.5,0.6l0.7,0.2c1.1,0.3,1.9,0.6,2.3,1c0.4,0.4,0.6,0.9,0.6,1.6c0,0.8-0.3,1.5-1,2
		c-0.6,0.5-1.4,0.7-2.5,0.7c-1.8,0-3-0.7-3.6-2.2l1.1-0.4c0.4,1.1,1.2,1.7,2.5,1.7c0.8,0,1.4-0.2,1.8-0.6c0.3-0.3,0.5-0.7,0.5-1.1
		c0-0.6-0.2-1-0.5-1.2c-0.3-0.2-0.9-0.4-1.7-0.6l-0.7-0.2c-1.1-0.2-1.8-0.6-2.2-1c-0.3-0.4-0.5-0.8-0.5-1.5c0-0.8,0.3-1.4,0.9-1.8
		c0.6-0.4,1.3-0.6,2.2-0.6C310.6,27.6,311.7,28.3,312.3,29.8z"/>
	<path class="st1" d="M317,24.6v3.2h2.3v0.9H317v5.9c0,1.1,0.4,1.6,1.3,1.6c0.4,0,0.8,0,1.2-0.1l-0.1,0.9c-0.4,0.1-0.8,0.1-1.3,0.1
		c-1.5,0-2.3-0.8-2.3-2.3v-6.1h-1.5v-0.9h1.5v-3L317,24.6z"/>
	<path class="st1" d="M336.4,27.1l-1.2,0.4c-0.5-2-1.7-3-3.4-3c-1.3,0-2.3,0.6-3.1,1.7c-0.7,1-1,2.4-1,4.1c0,1.9,0.4,3.4,1.3,4.5
		c0.7,0.9,1.7,1.3,2.8,1.3c1.9,0,3.1-1,3.6-3l1.2,0.4c-0.8,2.4-2.3,3.6-4.7,3.6c-1.7,0-3-0.7-4-2c-0.9-1.2-1.4-2.8-1.4-4.8
		c0-2.3,0.6-4,1.8-5.3c1-1,2.2-1.6,3.6-1.6c1.2,0,2.3,0.4,3.1,1.1C335.6,25.2,336.1,26.1,336.4,27.1z"/>
	<path class="st1" d="M342.5,27.6c1.2,0,2.2,0.5,2.9,1.4c0.6,0.8,0.9,1.9,0.9,3.3c0,1.5-0.4,2.7-1.2,3.6c-0.7,0.8-1.6,1.1-2.6,1.1
		c-1.2,0-2.2-0.5-2.9-1.4c-0.6-0.8-0.9-1.9-0.9-3.3c0-1.5,0.4-2.7,1.2-3.6C340.5,28,341.4,27.6,342.5,27.6z M342.5,28.5
		c-0.9,0-1.6,0.4-2,1.1c-0.4,0.7-0.6,1.5-0.6,2.7c0,1.3,0.3,2.3,0.8,3c0.5,0.6,1.1,0.9,1.9,0.9c0.9,0,1.6-0.4,2-1.1
		c0.4-0.7,0.6-1.6,0.6-2.7c0-1.3-0.3-2.2-0.8-2.9C343.9,28.8,343.2,28.5,342.5,28.5z"/>
	<path class="st1" d="M350.4,27.9v1.7c0.9-1.3,2-1.9,3-1.9c0.7,0,1.2,0.2,1.7,0.6c0.4,0.3,0.6,0.8,0.7,1.3c0.9-1.2,1.9-1.9,3.1-1.9
		c0.8,0,1.4,0.3,1.9,0.8c0.4,0.5,0.6,1,0.6,1.8v6.7h-1.1v-6.2c0-1.3-0.5-2-1.6-2c-0.5,0-1,0.2-1.5,0.6c-0.4,0.3-0.8,0.8-1.2,1.3v6.3
		h-1.1v-6.2c0-1.3-0.5-2-1.6-2c-0.5,0-1,0.2-1.5,0.6c-0.5,0.3-0.9,0.8-1.2,1.3v6.3h-1.1v-9H350.4z"/>
	<path class="st1" d="M365.9,27.9v1.4c0.7-1.1,1.6-1.7,2.8-1.7c1.1,0,2,0.5,2.7,1.4c0.6,0.8,0.9,1.9,0.9,3.3c0,1.5-0.4,2.8-1.2,3.6
		c-0.7,0.7-1.5,1.1-2.5,1.1c-1.1,0-2-0.5-2.6-1.6v4.7h-1.1V27.9H365.9z M365.9,30.4v4c0.7,1.2,1.5,1.7,2.5,1.7c0.8,0,1.5-0.4,2-1.1
		c0.5-0.7,0.7-1.6,0.7-2.7c0-1.3-0.3-2.2-0.8-2.9c-0.5-0.6-1-0.8-1.7-0.8C367.5,28.6,366.6,29.2,365.9,30.4z"/>
	<path class="st1" d="M382.1,27.9v9H381v-1.7c-0.4,0.6-0.9,1.1-1.6,1.5c-0.6,0.3-1.1,0.5-1.7,0.5c-0.8,0-1.4-0.2-1.9-0.7
		c-0.4-0.4-0.7-1-0.7-1.8v-6.7h1.1v6.4c0,1.2,0.6,1.9,1.7,1.9c0.6,0,1.1-0.2,1.7-0.6c0.5-0.4,0.9-0.8,1.2-1.3v-6.3H382.1z"/>
	<path class="st1" d="M387.3,24.6v3.2h2.3v0.9h-2.3v5.9c0,1.1,0.4,1.6,1.3,1.6c0.4,0,0.8,0,1.2-0.1l-0.1,0.9
		c-0.4,0.1-0.8,0.1-1.3,0.1c-1.5,0-2.3-0.8-2.3-2.3v-6.1h-1.5v-0.9h1.5v-3L387.3,24.6z"/>
	<path class="st1" d="M399.1,32.4h-6.5c0,1.3,0.3,2.2,0.9,2.9c0.5,0.6,1.2,0.8,2,0.8c1.3,0,2.1-0.6,2.5-1.9l1,0.4
		c-0.6,1.6-1.8,2.4-3.6,2.4c-1.3,0-2.3-0.5-3-1.4c-0.6-0.8-1-1.9-1-3.3c0-1.5,0.4-2.7,1.2-3.6c0.7-0.8,1.6-1.1,2.6-1.1
		c1.2,0,2.1,0.5,2.8,1.4c0.6,0.8,0.9,1.9,0.9,3.1V32.4z M398,31.6c-0.1-1-0.4-1.8-0.9-2.4c-0.5-0.5-1-0.7-1.7-0.7
		c-0.8,0-1.5,0.3-2,0.9c-0.4,0.5-0.7,1.3-0.8,2.1H398z"/>
	<path class="st1" d="M406.2,27.6l-0.1,1.1c-0.6,0-1.2,0.3-1.8,0.8c-0.5,0.5-0.9,1.2-1.1,2v5.3h-1.1v-9h1.1v2.3
		c0.4-0.9,0.8-1.6,1.4-2C405.1,27.8,405.6,27.6,406.2,27.6z"/>
</g>
<path class="st0" d="M719.5,233.5h-58c-6.6,0-12-5.4-12-12v-20c0-6.6,5.4-12,12-12h58c6.6,0,12,5.4,12,12v20
	C731.5,228.1,726.1,233.5,719.5,233.5z"/>
<line class="st6" x1="481.5" y1="223.5" x2="507.5" y2="223.5"/>
<line class="st6" x1="507.5" y1="223" x2="507.5" y2="301.5"/>
<line class="st6" x1="507.5" y1="301.5" x2="482.5" y2="301.5"/>
<line class="st6" x1="507.5" y1="262.5" x2="525.5" y2="262.5"/>
<g>
	<path class="st1" d="M662,204.7h4.2c1.6,0,2.7,0.4,3.5,1.1c0.6,0.6,1,1.4,1,2.5c0,1.2-0.4,2.2-1.3,2.8c-0.8,0.6-1.9,0.9-3.2,0.9
		h-2.9v5.9H662V204.7z M663.2,205.7v5.3h2.9c2.3,0,3.4-0.9,3.4-2.7c0-1.7-1.1-2.6-3.3-2.6H663.2z"/>
	<path class="st1" d="M674.8,204.5v13.4h-1.1v-13.4H674.8z"/>
	<path class="st1" d="M685.3,208.9v9h-1.1v-1.7c-0.4,0.6-0.9,1.1-1.6,1.5c-0.6,0.3-1.1,0.5-1.7,0.5c-0.8,0-1.4-0.2-1.9-0.7
		c-0.4-0.4-0.7-1-0.7-1.8v-6.7h1.1v6.4c0,1.2,0.6,1.9,1.7,1.9c0.6,0,1.1-0.2,1.7-0.6c0.5-0.4,0.9-0.8,1.2-1.3v-6.3H685.3z"/>
	<path class="st1" d="M696.2,207.8l-0.1,1c-0.5,0-0.9,0.1-1.2,0.2c-0.2,0.1-0.5,0.3-0.7,0.5c0.6,0.5,0.9,1.2,0.9,2.1
		c0,1-0.4,1.7-1.1,2.3c-0.6,0.5-1.3,0.7-2.2,0.7c-0.5,0-1-0.1-1.5-0.3c-0.6,0.3-0.9,0.7-0.9,1.1c0,0.3,0.1,0.5,0.4,0.7
		c0.3,0.1,0.8,0.2,1.5,0.3l1.8,0.2c1.2,0.1,2.1,0.4,2.5,0.8c0.4,0.3,0.5,0.7,0.5,1.3c0,0.8-0.4,1.4-1.2,1.9c-0.8,0.4-1.8,0.6-3,0.6
		c-1.3,0-2.4-0.2-3.1-0.7c-0.6-0.4-0.9-0.9-0.9-1.5c0-0.5,0.2-0.9,0.6-1.2c0.3-0.3,0.7-0.6,1.3-0.7c-0.9-0.2-1.4-0.6-1.4-1.3
		c0-0.6,0.4-1.2,1.2-1.7c-0.8-0.5-1.1-1.3-1.1-2.3c0-0.9,0.4-1.7,1.1-2.3c0.6-0.5,1.3-0.7,2.2-0.7c0.7,0,1.3,0.1,1.7,0.4
		c0.3-0.5,0.7-0.8,1.2-1C695.1,207.8,695.6,207.8,696.2,207.8z M690.8,217.2c-1.2,0.3-1.8,0.9-1.8,1.6c0,0.5,0.3,1,0.9,1.2
		c0.5,0.2,1.2,0.3,2,0.3c1.1,0,1.9-0.2,2.5-0.5c0.5-0.3,0.7-0.6,0.7-1.1c0-0.4-0.2-0.7-0.5-0.9c-0.4-0.2-0.9-0.4-1.8-0.4
		L690.8,217.2z M691.8,209.4c-0.7,0-1.2,0.2-1.6,0.7c-0.4,0.4-0.6,0.9-0.6,1.5c0,0.7,0.2,1.3,0.7,1.7c0.4,0.3,0.9,0.5,1.5,0.5
		c0.7,0,1.2-0.2,1.6-0.6c0.4-0.4,0.6-0.9,0.6-1.5c0-0.7-0.2-1.3-0.7-1.7C692.9,209.6,692.4,209.4,691.8,209.4z"/>
	<path class="st1" d="M703.3,212.3v1h-4.9v-1H703.3z"/>
	<path class="st1" d="M708,204.7v13.1h-1.2v-13.1H708z"/>
	<path class="st1" d="M712.9,208.9v1.7c1-1.3,2.1-1.9,3.3-1.9c0.8,0,1.5,0.3,1.9,0.8c0.4,0.5,0.6,1,0.6,1.8v6.7h-1.1v-6.2
		c0-1.3-0.6-2-1.7-2c-1,0-2,0.6-3,1.9v6.3h-1.1v-9H712.9z"/>
</g>
<path class="st0" d="M719.5,284.5h-58c-6.6,0-12-5.4-12-12v-20c0-6.6,5.4-12,12-12h58c6.6,0,12,5.4,12,12v20
	C731.5,279.1,726.1,284.5,719.5,284.5z"/>
<g>
	<path class="st1" d="M662,255.7h4.2c1.6,0,2.7,0.4,3.5,1.1c0.6,0.6,1,1.4,1,2.5c0,1.2-0.4,2.2-1.3,2.8c-0.8,0.6-1.9,0.9-3.2,0.9
		h-2.9v5.9H662V255.7z M663.2,256.7v5.3h2.9c2.3,0,3.4-0.9,3.4-2.7c0-1.7-1.1-2.6-3.3-2.6H663.2z"/>
	<path class="st1" d="M674.8,255.5v13.4h-1.1v-13.4H674.8z"/>
	<path class="st1" d="M685.3,259.9v9h-1.1v-1.7c-0.4,0.6-0.9,1.1-1.6,1.5c-0.6,0.3-1.1,0.5-1.7,0.5c-0.8,0-1.4-0.2-1.9-0.7
		c-0.4-0.4-0.7-1-0.7-1.8v-6.7h1.1v6.4c0,1.2,0.6,1.9,1.7,1.9c0.6,0,1.1-0.2,1.7-0.6c0.5-0.4,0.9-0.8,1.2-1.3v-6.3H685.3z"/>
	<path class="st1" d="M696.2,258.8l-0.1,1c-0.5,0-0.9,0.1-1.2,0.2c-0.2,0.1-0.5,0.3-0.7,0.5c0.6,0.5,0.9,1.2,0.9,2.1
		c0,1-0.4,1.7-1.1,2.3c-0.6,0.5-1.3,0.7-2.2,0.7c-0.5,0-1-0.1-1.5-0.3c-0.6,0.3-0.9,0.7-0.9,1.1c0,0.3,0.1,0.5,0.4,0.7
		c0.3,0.1,0.8,0.2,1.5,0.3l1.8,0.2c1.2,0.1,2.1,0.4,2.5,0.8c0.4,0.3,0.5,0.7,0.5,1.3c0,0.8-0.4,1.4-1.2,1.9c-0.8,0.4-1.8,0.6-3,0.6
		c-1.3,0-2.4-0.2-3.1-0.7c-0.6-0.4-0.9-0.9-0.9-1.5c0-0.5,0.2-0.9,0.6-1.2c0.3-0.3,0.7-0.6,1.3-0.7c-0.9-0.2-1.4-0.6-1.4-1.3
		c0-0.6,0.4-1.2,1.2-1.7c-0.8-0.5-1.1-1.3-1.1-2.3c0-0.9,0.4-1.7,1.1-2.3c0.6-0.5,1.3-0.7,2.2-0.7c0.7,0,1.3,0.1,1.7,0.4
		c0.3-0.5,0.7-0.8,1.2-1C695.1,258.8,695.6,258.8,696.2,258.8z M690.8,268.2c-1.2,0.3-1.8,0.9-1.8,1.6c0,0.5,0.3,1,0.9,1.2
		c0.5,0.2,1.2,0.3,2,0.3c1.1,0,1.9-0.2,2.5-0.5c0.5-0.3,0.7-0.6,0.7-1.1c0-0.4-0.2-0.7-0.5-0.9c-0.4-0.2-0.9-0.4-1.8-0.4
		L690.8,268.2z M691.8,260.4c-0.7,0-1.2,0.2-1.6,0.7c-0.4,0.4-0.6,0.9-0.6,1.5c0,0.7,0.2,1.3,0.7,1.7c0.4,0.3,0.9,0.5,1.5,0.5
		c0.7,0,1.2-0.2,1.6-0.6c0.4-0.4,0.6-0.9,0.6-1.5c0-0.7-0.2-1.3-0.7-1.7C692.9,260.6,692.4,260.4,691.8,260.4z"/>
	<path class="st1" d="M703.3,263.3v1h-4.9v-1H703.3z"/>
	<path class="st1" d="M708,255.7v13.1h-1.2v-13.1H708z"/>
	<path class="st1" d="M712.9,259.9v1.7c1-1.3,2.1-1.9,3.3-1.9c0.8,0,1.5,0.3,1.9,0.8c0.4,0.5,0.6,1,0.6,1.8v6.7h-1.1v-6.2
		c0-1.3-0.6-2-1.7-2c-1,0-2,0.6-3,1.9v6.3h-1.1v-9H712.9z"/>
</g>
<path class="st0" d="M719.5,335.5h-58c-6.6,0-12-5.4-12-12v-20c0-6.6,5.4-12,12-12h58c6.6,0,12,5.4,12,12v20
	C731.5,330.1,726.1,335.5,719.5,335.5z"/>
<g>
	<path class="st1" d="M662,306.7h4.2c1.6,0,2.7,0.4,3.5,1.1c0.6,0.6,1,1.4,1,2.5c0,1.2-0.4,2.2-1.3,2.8c-0.8,0.6-1.9,0.9-3.2,0.9
		h-2.9v5.9H662V306.7z M663.2,307.7v5.3h2.9c2.3,0,3.4-0.9,3.4-2.7c0-1.7-1.1-2.6-3.3-2.6H663.2z"/>
	<path class="st1" d="M674.8,306.5v13.4h-1.1v-13.4H674.8z"/>
	<path class="st1" d="M685.3,310.9v9h-1.1v-1.7c-0.4,0.6-0.9,1.1-1.6,1.5c-0.6,0.3-1.1,0.5-1.7,0.5c-0.8,0-1.4-0.2-1.9-0.7
		c-0.4-0.4-0.7-1-0.7-1.8v-6.7h1.1v6.4c0,1.2,0.6,1.9,1.7,1.9c0.6,0,1.1-0.2,1.7-0.6c0.5-0.4,0.9-0.8,1.2-1.3v-6.3H685.3z"/>
	<path class="st1" d="M696.2,309.8l-0.1,1c-0.5,0-0.9,0.1-1.2,0.2c-0.2,0.1-0.5,0.3-0.7,0.5c0.6,0.5,0.9,1.2,0.9,2.1
		c0,1-0.4,1.7-1.1,2.3c-0.6,0.5-1.3,0.7-2.2,0.7c-0.5,0-1-0.1-1.5-0.3c-0.6,0.3-0.9,0.7-0.9,1.1c0,0.3,0.1,0.5,0.4,0.7
		c0.3,0.1,0.8,0.2,1.5,0.3l1.8,0.2c1.2,0.1,2.1,0.4,2.5,0.8c0.4,0.3,0.5,0.7,0.5,1.3c0,0.8-0.4,1.4-1.2,1.9c-0.8,0.4-1.8,0.6-3,0.6
		c-1.3,0-2.4-0.2-3.1-0.7c-0.6-0.4-0.9-0.9-0.9-1.5c0-0.5,0.2-0.9,0.6-1.2c0.3-0.3,0.7-0.6,1.3-0.7c-0.9-0.2-1.4-0.6-1.4-1.3
		c0-0.6,0.4-1.2,1.2-1.7c-0.8-0.5-1.1-1.3-1.1-2.3c0-0.9,0.4-1.7,1.1-2.3c0.6-0.5,1.3-0.7,2.2-0.7c0.7,0,1.3,0.1,1.7,0.4
		c0.3-0.5,0.7-0.8,1.2-1C695.1,309.8,695.6,309.8,696.2,309.8z M690.8,319.2c-1.2,0.3-1.8,0.9-1.8,1.6c0,0.5,0.3,1,0.9,1.2
		c0.5,0.2,1.2,0.3,2,0.3c1.1,0,1.9-0.2,2.5-0.5c0.5-0.3,0.7-0.6,0.7-1.1c0-0.4-0.2-0.7-0.5-0.9c-0.4-0.2-0.9-0.4-1.8-0.4
		L690.8,319.2z M691.8,311.4c-0.7,0-1.2,0.2-1.6,0.7c-0.4,0.4-0.6,0.9-0.6,1.5c0,0.7,0.2,1.3,0.7,1.7c0.4,0.3,0.9,0.5,1.5,0.5
		c0.7,0,1.2-0.2,1.6-0.6c0.4-0.4,0.6-0.9,0.6-1.5c0-0.7-0.2-1.3-0.7-1.7C692.9,311.6,692.4,311.4,691.8,311.4z"/>
	<path class="st1" d="M703.3,314.3v1h-4.9v-1H703.3z"/>
	<path class="st1" d="M708,306.7v13.1h-1.2v-13.1H708z"/>
	<path class="st1" d="M712.9,310.9v1.7c1-1.3,2.1-1.9,3.3-1.9c0.8,0,1.5,0.3,1.9,0.8c0.4,0.5,0.6,1,0.6,1.8v6.7h-1.1v-6.2
		c0-1.3-0.6-2-1.7-2c-1,0-2,0.6-3,1.9v6.3h-1.1v-9H712.9z"/>
</g>
<line class="st6" x1="524.5" y1="211.5" x2="649.5" y2="211.5"/>
<line class="st6" x1="649.5" y1="262.5" x2="524.5" y2="262.5"/>
<line class="st6" x1="649.5" y1="316.5" x2="524.5" y2="316.5"/>
<line class="st6" x1="524.5" y1="211.5" x2="524.5" y2="316.5"/>
<path class="st0" d="M918.5,233.5h-124c-6.6,0-12-5.4-12-12v-20c0-6.6,5.4-12,12-12h124c6.6,0,12,5.4,12,12v20
	C930.5,228.1,925.1,233.5,918.5,233.5z"/>
<g>
	<path class="st1" d="M802.1,204.7v1h-6.9v4.6h5.2v1h-5.2v5.4h7v1H794v-13.1H802.1z"/>
	<path class="st1" d="M811,208.9l-2.9,4.3l3.1,4.7H810l-2-3.1c-0.1-0.1-0.2-0.2-0.3-0.4c-0.1-0.2-0.2-0.3-0.2-0.4
		c-0.1,0.2-0.3,0.5-0.5,0.8l-1.9,3.1h-1.2l3.1-4.6l-2.9-4.4h1.3l1.8,2.8c0.2,0.3,0.3,0.5,0.5,0.8l0.5-0.9l1.7-2.8H811z"/>
	<path class="st1" d="M815.3,205.6v3.2h2.3v0.9h-2.3v5.9c0,1.1,0.4,1.6,1.3,1.6c0.4,0,0.8,0,1.2-0.1l-0.1,0.9
		c-0.4,0.1-0.8,0.1-1.3,0.1c-1.5,0-2.3-0.8-2.3-2.3v-6.1h-1.5v-0.9h1.5v-3L815.3,205.6z"/>
	<path class="st1" d="M827.1,213.4h-6.5c0,1.3,0.3,2.2,0.9,2.9c0.5,0.6,1.2,0.8,2,0.8c1.3,0,2.1-0.6,2.5-1.9l1,0.4
		c-0.6,1.6-1.8,2.4-3.6,2.4c-1.3,0-2.3-0.5-3-1.4c-0.6-0.8-1-1.9-1-3.3c0-1.5,0.4-2.7,1.2-3.6c0.7-0.8,1.6-1.1,2.6-1.1
		c1.2,0,2.1,0.5,2.8,1.4c0.6,0.8,0.9,1.9,0.9,3.1V213.4z M826,212.6c-0.1-1-0.4-1.8-0.9-2.4c-0.5-0.5-1-0.7-1.7-0.7
		c-0.8,0-1.5,0.3-2,0.9c-0.4,0.5-0.7,1.3-0.8,2.1H826z"/>
	<path class="st1" d="M834.2,208.6l-0.1,1.1c-0.6,0-1.2,0.3-1.8,0.8c-0.5,0.5-0.9,1.2-1.1,2v5.3h-1.1v-9h1.1v2.3
		c0.4-0.9,0.8-1.6,1.4-2C833.1,208.8,833.6,208.6,834.2,208.6z"/>
	<path class="st1" d="M837.8,208.9v1.7c1-1.3,2.1-1.9,3.3-1.9c0.8,0,1.5,0.3,1.9,0.8c0.4,0.5,0.6,1,0.6,1.8v6.7h-1.1v-6.2
		c0-1.3-0.6-2-1.7-2c-1,0-2,0.6-3,1.9v6.3h-1.1v-9H837.8z"/>
	<path class="st1" d="M846.9,210.9c0.5-1.5,1.7-2.3,3.5-2.3c2.1,0,3.2,1,3.2,3v3.2c0,1.2,0.1,2.2,0.2,3.1h-1
		c-0.1-0.3-0.1-0.9-0.2-1.6c-0.8,1.2-1.9,1.8-3.3,1.8c-1,0-1.7-0.3-2.2-0.8c-0.4-0.5-0.6-1.1-0.6-1.8c0-1.6,1-2.6,3-3
		c0.8-0.1,1.8-0.2,3-0.3v-0.5c0-0.9-0.2-1.5-0.6-1.8c-0.3-0.3-0.8-0.4-1.6-0.4c-1.3,0-2.1,0.6-2.5,1.8L846.9,210.9z M852.5,213
		c-0.9,0-1.8,0.1-2.8,0.3c-1.4,0.3-2.2,1-2.2,2.1c0,0.6,0.2,1,0.6,1.4c0.3,0.3,0.8,0.4,1.3,0.4c1.2,0,2.2-0.7,3-2V213z"/>
	<path class="st1" d="M858.3,204.5v13.4h-1.1v-13.4H858.3z"/>
	<path class="st1" d="M867.2,204.7h3.9c2.1,0,3.7,0.6,4.8,1.8c1,1.1,1.5,2.7,1.5,4.7c0,2.3-0.7,4-2,5.2c-1.1,1-2.6,1.4-4.4,1.4h-3.7
		V204.7z M868.4,205.7v11.1h2.4c1.7,0,3.1-0.5,4-1.5c0.8-1,1.3-2.3,1.3-4.1c0-3.7-1.7-5.5-5.1-5.5H868.4z"/>
	<path class="st1" d="M887.5,213.4h-6.5c0,1.3,0.3,2.2,0.9,2.9c0.5,0.6,1.2,0.8,2,0.8c1.3,0,2.1-0.6,2.5-1.9l1,0.4
		c-0.6,1.6-1.8,2.4-3.6,2.4c-1.3,0-2.3-0.5-3-1.4c-0.6-0.8-1-1.9-1-3.3c0-1.5,0.4-2.7,1.2-3.6c0.7-0.8,1.6-1.1,2.6-1.1
		c1.2,0,2.1,0.5,2.8,1.4c0.6,0.8,0.9,1.9,0.9,3.1V213.4z M886.4,212.6c-0.1-1-0.4-1.8-0.9-2.4c-0.5-0.5-1-0.7-1.7-0.7
		c-0.8,0-1.5,0.3-2,0.9c-0.4,0.5-0.7,1.3-0.8,2.1H886.4z"/>
	<path class="st1" d="M896.8,208.9l-3,9h-1.4l-3-9h1.2l1.7,5.5c0.1,0.3,0.3,1.2,0.7,2.6h0.2c0.4-1.4,0.6-2.3,0.8-2.7l1.7-5.4H896.8z
		"/>
	<path class="st1" d="M900.7,205.2v1.7H899v-1.7H900.7z M900.4,208.9v9h-1.1v-9H900.4z"/>
	<path class="st1" d="M910.6,211.2l-1.1,0.3c-0.3-1.3-1.1-2-2.3-2c-0.9,0-1.6,0.4-2,1.1c-0.4,0.7-0.6,1.6-0.6,2.7
		c0,1.3,0.3,2.3,0.8,3c0.5,0.6,1.1,0.9,1.9,0.9c1.3,0,2.1-0.7,2.4-2l1.1,0.4c-0.6,1.7-1.7,2.6-3.5,2.6c-1.2,0-2.2-0.5-2.9-1.4
		c-0.6-0.8-0.9-1.9-0.9-3.3c0-1.5,0.4-2.7,1.2-3.6c0.7-0.8,1.6-1.1,2.6-1.1c0.9,0,1.6,0.2,2.2,0.7
		C910,209.8,910.3,210.4,910.6,211.2z"/>
	<path class="st1" d="M920.3,213.4h-6.5c0,1.3,0.3,2.2,0.9,2.9c0.5,0.6,1.2,0.8,2,0.8c1.3,0,2.1-0.6,2.5-1.9l1,0.4
		c-0.6,1.6-1.8,2.4-3.6,2.4c-1.3,0-2.3-0.5-3-1.4c-0.6-0.8-1-1.9-1-3.3c0-1.5,0.4-2.7,1.2-3.6c0.7-0.8,1.6-1.1,2.6-1.1
		c1.2,0,2.1,0.5,2.8,1.4c0.6,0.8,0.9,1.9,0.9,3.1V213.4z M919.2,212.6c-0.1-1-0.4-1.8-0.9-2.4c-0.5-0.5-1-0.7-1.7-0.7
		c-0.8,0-1.5,0.3-2,0.9c-0.4,0.5-0.7,1.3-0.8,2.1H919.2z"/>
</g>
<path class="st0" d="M918.5,284.5h-124c-6.6,0-12-5.4-12-12v-20c0-6.6,5.4-12,12-12h124c6.6,0,12,5.4,12,12v20
	C930.5,279.1,925.1,284.5,918.5,284.5z"/>
<g>
	<path class="st1" d="M802.1,255.7v1h-6.9v4.6h5.2v1h-5.2v5.4h7v1H794v-13.1H802.1z"/>
	<path class="st1" d="M811,259.9l-2.9,4.3l3.1,4.7H810l-2-3.1c-0.1-0.1-0.2-0.2-0.3-0.4c-0.1-0.2-0.2-0.3-0.2-0.4
		c-0.1,0.2-0.3,0.5-0.5,0.8l-1.9,3.1h-1.2l3.1-4.6l-2.9-4.4h1.3l1.8,2.8c0.2,0.3,0.3,0.5,0.5,0.8l0.5-0.9l1.7-2.8H811z"/>
	<path class="st1" d="M815.3,256.6v3.2h2.3v0.9h-2.3v5.9c0,1.1,0.4,1.6,1.3,1.6c0.4,0,0.8,0,1.2-0.1l-0.1,0.9
		c-0.4,0.1-0.8,0.1-1.3,0.1c-1.5,0-2.3-0.8-2.3-2.3v-6.1h-1.5v-0.9h1.5v-3L815.3,256.6z"/>
	<path class="st1" d="M827.1,264.4h-6.5c0,1.3,0.3,2.2,0.9,2.9c0.5,0.6,1.2,0.8,2,0.8c1.3,0,2.1-0.6,2.5-1.9l1,0.4
		c-0.6,1.6-1.8,2.4-3.6,2.4c-1.3,0-2.3-0.5-3-1.4c-0.6-0.8-1-1.9-1-3.3c0-1.5,0.4-2.7,1.2-3.6c0.7-0.8,1.6-1.1,2.6-1.1
		c1.2,0,2.1,0.5,2.8,1.4c0.6,0.8,0.9,1.9,0.9,3.1V264.4z M826,263.6c-0.1-1-0.4-1.8-0.9-2.4c-0.5-0.5-1-0.7-1.7-0.7
		c-0.8,0-1.5,0.3-2,0.9c-0.4,0.5-0.7,1.3-0.8,2.1H826z"/>
	<path class="st1" d="M834.2,259.6l-0.1,1.1c-0.6,0-1.2,0.3-1.8,0.8c-0.5,0.5-0.9,1.2-1.1,2v5.3h-1.1v-9h1.1v2.3
		c0.4-0.9,0.8-1.6,1.4-2C833.1,259.8,833.6,259.6,834.2,259.6z"/>
	<path class="st1" d="M837.8,259.9v1.7c1-1.3,2.1-1.9,3.3-1.9c0.8,0,1.5,0.3,1.9,0.8c0.4,0.5,0.6,1,0.6,1.8v6.7h-1.1v-6.2
		c0-1.3-0.6-2-1.7-2c-1,0-2,0.6-3,1.9v6.3h-1.1v-9H837.8z"/>
	<path class="st1" d="M846.9,261.9c0.5-1.5,1.7-2.3,3.5-2.3c2.1,0,3.2,1,3.2,3v3.2c0,1.2,0.1,2.2,0.2,3.1h-1
		c-0.1-0.3-0.1-0.9-0.2-1.6c-0.8,1.2-1.9,1.8-3.3,1.8c-1,0-1.7-0.3-2.2-0.8c-0.4-0.5-0.6-1.1-0.6-1.8c0-1.6,1-2.6,3-3
		c0.8-0.1,1.8-0.2,3-0.3v-0.5c0-0.9-0.2-1.5-0.6-1.8c-0.3-0.3-0.8-0.4-1.6-0.4c-1.3,0-2.1,0.6-2.5,1.8L846.9,261.9z M852.5,264
		c-0.9,0-1.8,0.1-2.8,0.3c-1.4,0.3-2.2,1-2.2,2.1c0,0.6,0.2,1,0.6,1.4c0.3,0.3,0.8,0.4,1.3,0.4c1.2,0,2.2-0.7,3-2V264z"/>
	<path class="st1" d="M858.3,255.5v13.4h-1.1v-13.4H858.3z"/>
	<path class="st1" d="M867.2,255.7h3.9c2.1,0,3.7,0.6,4.8,1.8c1,1.1,1.5,2.7,1.5,4.7c0,2.3-0.7,4-2,5.2c-1.1,1-2.6,1.4-4.4,1.4h-3.7
		V255.7z M868.4,256.7v11.1h2.4c1.7,0,3.1-0.5,4-1.5c0.8-1,1.3-2.3,1.3-4.1c0-3.7-1.7-5.5-5.1-5.5H868.4z"/>
	<path class="st1" d="M887.5,264.4h-6.5c0,1.3,0.3,2.2,0.9,2.9c0.5,0.6,1.2,0.8,2,0.8c1.3,0,2.1-0.6,2.5-1.9l1,0.4
		c-0.6,1.6-1.8,2.4-3.6,2.4c-1.3,0-2.3-0.5-3-1.4c-0.6-0.8-1-1.9-1-3.3c0-1.5,0.4-2.7,1.2-3.6c0.7-0.8,1.6-1.1,2.6-1.1
		c1.2,0,2.1,0.5,2.8,1.4c0.6,0.8,0.9,1.9,0.9,3.1V264.4z M886.4,263.6c-0.1-1-0.4-1.8-0.9-2.4c-0.5-0.5-1-0.7-1.7-0.7
		c-0.8,0-1.5,0.3-2,0.9c-0.4,0.5-0.7,1.3-0.8,2.1H886.4z"/>
	<path class="st1" d="M896.8,259.9l-3,9h-1.4l-3-9h1.2l1.7,5.5c0.1,0.3,0.3,1.2,0.7,2.6h0.2c0.4-1.4,0.6-2.3,0.8-2.7l1.7-5.4H896.8z
		"/>
	<path class="st1" d="M900.7,256.2v1.7H899v-1.7H900.7z M900.4,259.9v9h-1.1v-9H900.4z"/>
	<path class="st1" d="M910.6,262.2l-1.1,0.3c-0.3-1.3-1.1-2-2.3-2c-0.9,0-1.6,0.4-2,1.1c-0.4,0.7-0.6,1.6-0.6,2.7
		c0,1.3,0.3,2.3,0.8,3c0.5,0.6,1.1,0.9,1.9,0.9c1.3,0,2.1-0.7,2.4-2l1.1,0.4c-0.6,1.7-1.7,2.6-3.5,2.6c-1.2,0-2.2-0.5-2.9-1.4
		c-0.6-0.8-0.9-1.9-0.9-3.3c0-1.5,0.4-2.7,1.2-3.6c0.7-0.8,1.6-1.1,2.6-1.1c0.9,0,1.6,0.2,2.2,0.7
		C910,260.8,910.3,261.4,910.6,262.2z"/>
	<path class="st1" d="M920.3,264.4h-6.5c0,1.3,0.3,2.2,0.9,2.9c0.5,0.6,1.2,0.8,2,0.8c1.3,0,2.1-0.6,2.5-1.9l1,0.4
		c-0.6,1.6-1.8,2.4-3.6,2.4c-1.3,0-2.3-0.5-3-1.4c-0.6-0.8-1-1.9-1-3.3c0-1.5,0.4-2.7,1.2-3.6c0.7-0.8,1.6-1.1,2.6-1.1
		c1.2,0,2.1,0.5,2.8,1.4c0.6,0.8,0.9,1.9,0.9,3.1V264.4z M919.2,263.6c-0.1-1-0.4-1.8-0.9-2.4c-0.5-0.5-1-0.7-1.7-0.7
		c-0.8,0-1.5,0.3-2,0.9c-0.4,0.5-0.7,1.3-0.8,2.1H919.2z"/>
</g>
<path class="st0" d="M918.5,335.5h-124c-6.6,0-12-5.4-12-12v-20c0-6.6,5.4-12,12-12h124c6.6,0,12,5.4,12,12v20
	C930.5,330.1,925.1,335.5,918.5,335.5z"/>
<g>
	<path class="st1" d="M802.1,306.7v1h-6.9v4.6h5.2v1h-5.2v5.4h7v1H794v-13.1H802.1z"/>
	<path class="st1" d="M811,310.9l-2.9,4.3l3.1,4.7H810l-2-3.1c-0.1-0.1-0.2-0.2-0.3-0.4c-0.1-0.2-0.2-0.3-0.2-0.4
		c-0.1,0.2-0.3,0.5-0.5,0.8l-1.9,3.1h-1.2l3.1-4.6l-2.9-4.4h1.3l1.8,2.8c0.2,0.3,0.3,0.5,0.5,0.8l0.5-0.9l1.7-2.8H811z"/>
	<path class="st1" d="M815.3,307.6v3.2h2.3v0.9h-2.3v5.9c0,1.1,0.4,1.6,1.3,1.6c0.4,0,0.8,0,1.2-0.1l-0.1,0.9
		c-0.4,0.1-0.8,0.1-1.3,0.1c-1.5,0-2.3-0.8-2.3-2.3v-6.1h-1.5v-0.9h1.5v-3L815.3,307.6z"/>
	<path class="st1" d="M827.1,315.4h-6.5c0,1.3,0.3,2.2,0.9,2.9c0.5,0.6,1.2,0.8,2,0.8c1.3,0,2.1-0.6,2.5-1.9l1,0.4
		c-0.6,1.6-1.8,2.4-3.6,2.4c-1.3,0-2.3-0.5-3-1.4c-0.6-0.8-1-1.9-1-3.3c0-1.5,0.4-2.7,1.2-3.6c0.7-0.8,1.6-1.1,2.6-1.1
		c1.2,0,2.1,0.5,2.8,1.4c0.6,0.8,0.9,1.9,0.9,3.1V315.4z M826,314.6c-0.1-1-0.4-1.8-0.9-2.4c-0.5-0.5-1-0.7-1.7-0.7
		c-0.8,0-1.5,0.3-2,0.9c-0.4,0.5-0.7,1.3-0.8,2.1H826z"/>
	<path class="st1" d="M834.2,310.6l-0.1,1.1c-0.6,0-1.2,0.3-1.8,0.8c-0.5,0.5-0.9,1.2-1.1,2v5.3h-1.1v-9h1.1v2.3
		c0.4-0.9,0.8-1.6,1.4-2C833.1,310.8,833.6,310.6,834.2,310.6z"/>
	<path class="st1" d="M837.8,310.9v1.7c1-1.3,2.1-1.9,3.3-1.9c0.8,0,1.5,0.3,1.9,0.8c0.4,0.5,0.6,1,0.6,1.8v6.7h-1.1v-6.2
		c0-1.3-0.6-2-1.7-2c-1,0-2,0.6-3,1.9v6.3h-1.1v-9H837.8z"/>
	<path class="st1" d="M846.9,312.9c0.5-1.5,1.7-2.3,3.5-2.3c2.1,0,3.2,1,3.2,3v3.2c0,1.2,0.1,2.2,0.2,3.1h-1
		c-0.1-0.3-0.1-0.9-0.2-1.6c-0.8,1.2-1.9,1.8-3.3,1.8c-1,0-1.7-0.3-2.2-0.8c-0.4-0.5-0.6-1.1-0.6-1.8c0-1.6,1-2.6,3-3
		c0.8-0.1,1.8-0.2,3-0.3v-0.5c0-0.9-0.2-1.5-0.6-1.8c-0.3-0.3-0.8-0.4-1.6-0.4c-1.3,0-2.1,0.6-2.5,1.8L846.9,312.9z M852.5,315
		c-0.9,0-1.8,0.1-2.8,0.3c-1.4,0.3-2.2,1-2.2,2.1c0,0.6,0.2,1,0.6,1.4c0.3,0.3,0.8,0.4,1.3,0.4c1.2,0,2.2-0.7,3-2V315z"/>
	<path class="st1" d="M858.3,306.5v13.4h-1.1v-13.4H858.3z"/>
	<path class="st1" d="M867.2,306.7h3.9c2.1,0,3.7,0.6,4.8,1.8c1,1.1,1.5,2.7,1.5,4.7c0,2.3-0.7,4-2,5.2c-1.1,1-2.6,1.4-4.4,1.4h-3.7
		V306.7z M868.4,307.7v11.1h2.4c1.7,0,3.1-0.5,4-1.5c0.8-1,1.3-2.3,1.3-4.1c0-3.7-1.7-5.5-5.1-5.5H868.4z"/>
	<path class="st1" d="M887.5,315.4h-6.5c0,1.3,0.3,2.2,0.9,2.9c0.5,0.6,1.2,0.8,2,0.8c1.3,0,2.1-0.6,2.5-1.9l1,0.4
		c-0.6,1.6-1.8,2.4-3.6,2.4c-1.3,0-2.3-0.5-3-1.4c-0.6-0.8-1-1.9-1-3.3c0-1.5,0.4-2.7,1.2-3.6c0.7-0.8,1.6-1.1,2.6-1.1
		c1.2,0,2.1,0.5,2.8,1.4c0.6,0.8,0.9,1.9,0.9,3.1V315.4z M886.4,314.6c-0.1-1-0.4-1.8-0.9-2.4c-0.5-0.5-1-0.7-1.7-0.7
		c-0.8,0-1.5,0.3-2,0.9c-0.4,0.5-0.7,1.3-0.8,2.1H886.4z"/>
	<path class="st1" d="M896.8,310.9l-3,9h-1.4l-3-9h1.2l1.7,5.5c0.1,0.3,0.3,1.2,0.7,2.6h0.2c0.4-1.4,0.6-2.3,0.8-2.7l1.7-5.4H896.8z
		"/>
	<path class="st1" d="M900.7,307.2v1.7H899v-1.7H900.7z M900.4,310.9v9h-1.1v-9H900.4z"/>
	<path class="st1" d="M910.6,313.2l-1.1,0.3c-0.3-1.3-1.1-2-2.3-2c-0.9,0-1.6,0.4-2,1.1c-0.4,0.7-0.6,1.6-0.6,2.7
		c0,1.3,0.3,2.3,0.8,3c0.5,0.6,1.1,0.9,1.9,0.9c1.3,0,2.1-0.7,2.4-2l1.1,0.4c-0.6,1.7-1.7,2.6-3.5,2.6c-1.2,0-2.2-0.5-2.9-1.4
		c-0.6-0.8-0.9-1.9-0.9-3.3c0-1.5,0.4-2.7,1.2-3.6c0.7-0.8,1.6-1.1,2.6-1.1c0.9,0,1.6,0.2,2.2,0.7
		C910,311.8,910.3,312.4,910.6,313.2z"/>
	<path class="st1" d="M920.3,315.4h-6.5c0,1.3,0.3,2.2,0.9,2.9c0.5,0.6,1.2,0.8,2,0.8c1.3,0,2.1-0.6,2.5-1.9l1,0.4
		c-0.6,1.6-1.8,2.4-3.6,2.4c-1.3,0-2.3-0.5-3-1.4c-0.6-0.8-1-1.9-1-3.3c0-1.5,0.4-2.7,1.2-3.6c0.7-0.8,1.6-1.1,2.6-1.1
		c1.2,0,2.1,0.5,2.8,1.4c0.6,0.8,0.9,1.9,0.9,3.1V315.4z M919.2,314.6c-0.1-1-0.4-1.8-0.9-2.4c-0.5-0.5-1-0.7-1.7-0.7
		c-0.8,0-1.5,0.3-2,0.9c-0.4,0.5-0.7,1.3-0.8,2.1H919.2z"/>
</g>
<line class="st4" x1="731.5" y1="210.5" x2="782.5" y2="210.5"/>
<line class="st4" x1="732" y1="262.5" x2="783" y2="262.5"/>
<line class="st4" x1="731.5" y1="315.5" x2="782.5" y2="315.5"/>
<g>
	<path class="st3" d="M570.3,243l-1.2,0.3c-0.5-1.9-1.7-2.8-3.4-2.8c-1.3,0-2.3,0.6-3.1,1.7c-0.7,1-1,2.4-1,4.1
		c0,1.9,0.4,3.4,1.3,4.5c0.7,0.9,1.7,1.3,2.8,1.3c1.3,0,2.2-0.5,2.8-1.6c0.5-0.8,0.7-1.8,0.8-3.1h-3.7v-1h4.8v6.5h-0.8l-0.1-2.2
		c-0.4,0.8-0.9,1.5-1.6,1.9c-0.6,0.4-1.3,0.6-2.1,0.6c-1.7,0-3-0.7-4-2c-0.9-1.2-1.3-2.8-1.3-4.8c0-2.2,0.6-4,1.8-5.3
		c1-1,2.2-1.6,3.6-1.6c1.2,0,2.3,0.4,3.1,1.1C569.4,241.2,569.9,242,570.3,243z"/>
	<path class="st3" d="M577.1,243.6c1.2,0,2.2,0.5,2.9,1.4c0.6,0.8,0.9,1.9,0.9,3.3c0,1.5-0.4,2.7-1.2,3.6c-0.7,0.8-1.6,1.1-2.6,1.1
		c-1.2,0-2.2-0.5-2.9-1.4c-0.6-0.8-0.9-1.9-0.9-3.3c0-1.5,0.4-2.7,1.2-3.6C575.2,244,576.1,243.6,577.1,243.6z M577.1,244.5
		c-0.9,0-1.6,0.4-2,1.1c-0.4,0.7-0.6,1.5-0.6,2.7c0,1.3,0.3,2.3,0.8,3c0.5,0.6,1.1,0.9,1.9,0.9c0.9,0,1.6-0.4,2-1.1
		c0.4-0.7,0.6-1.6,0.6-2.7c0-1.3-0.3-2.2-0.8-2.9C578.5,244.8,577.9,244.5,577.1,244.5z"/>
	<path class="st3" d="M585.5,240.6v3.2h2.3v0.9h-2.3v5.9c0,1.1,0.4,1.6,1.3,1.6c0.4,0,0.8,0,1.2-0.1L588,253
		c-0.4,0.1-0.8,0.1-1.3,0.1c-1.5,0-2.3-0.8-2.3-2.3v-6.1h-1.5v-0.9h1.5v-3L585.5,240.6z"/>
	<path class="st3" d="M595.1,239.7l4.3,13.1h-1.3l-1.4-4.3h-4.9l-1.4,4.3h-1.2l4.3-13.1H595.1z M596.5,247.6l-1.1-3.4
		c-0.4-1.2-0.7-2.3-1-3.5h-0.2c-0.3,1.2-0.7,2.3-1,3.5l-1.1,3.4H596.5z"/>
	<path class="st3" d="M602.2,239.7h4.2c1.6,0,2.7,0.4,3.5,1.1c0.6,0.6,1,1.4,1,2.5c0,1.2-0.4,2.2-1.3,2.8c-0.8,0.6-1.9,0.9-3.2,0.9
		h-2.9v5.9h-1.2V239.7z M603.4,240.7v5.3h2.9c2.3,0,3.4-0.9,3.4-2.7c0-1.7-1.1-2.6-3.3-2.6H603.4z"/>
	<path class="st3" d="M615.3,239.7v13.1h-1.2v-13.1H615.3z"/>
	<path class="st3" d="M623.7,247.3v1h-4.9v-1H623.7z"/>
	<path class="st3" d="M632.4,239.8v9h1.9v0.9h-1.9v3.1h-1v-3.1H626v-0.9l4.8-9.1H632.4z M631.3,248.8v-5.4c0-0.4,0-1.3,0-2.7h-0.2
		c-0.4,0.9-0.8,1.7-1.2,2.5l-2.9,5.6H631.3z"/>
	<path class="st3" d="M562.2,271.2v13.1H561v-13.1H562.2z"/>
	<path class="st3" d="M567.1,275.4v1.7c1-1.3,2.1-1.9,3.3-1.9c0.8,0,1.5,0.3,1.9,0.8c0.4,0.5,0.6,1,0.6,1.8v6.7h-1.1v-6.2
		c0-1.3-0.6-2-1.7-2c-1,0-2,0.6-3,1.9v6.3h-1.1v-9H567.1z"/>
	<path class="st3" d="M578.1,272.1v3.2h2.3v0.9h-2.3v5.9c0,1.1,0.4,1.6,1.3,1.6c0.4,0,0.8,0,1.2-0.1l-0.1,0.9
		c-0.4,0.1-0.8,0.1-1.3,0.1c-1.5,0-2.3-0.8-2.3-2.3v-6.1h-1.5v-0.9h1.5v-3L578.1,272.1z"/>
	<path class="st3" d="M589.9,279.9h-6.5c0,1.3,0.3,2.2,0.9,2.9c0.5,0.6,1.2,0.8,2,0.8c1.3,0,2.1-0.6,2.5-1.9l1,0.4
		c-0.6,1.6-1.8,2.4-3.6,2.4c-1.3,0-2.3-0.5-3-1.4c-0.6-0.8-1-1.9-1-3.3c0-1.5,0.4-2.7,1.2-3.6c0.7-0.8,1.6-1.1,2.6-1.1
		c1.2,0,2.1,0.5,2.8,1.4c0.6,0.8,0.9,1.9,0.9,3.1V279.9z M588.8,279.1c-0.1-1-0.4-1.8-0.9-2.4c-0.5-0.5-1-0.7-1.7-0.7
		c-0.8,0-1.5,0.3-2,0.9c-0.4,0.5-0.7,1.3-0.8,2.1H588.8z"/>
	<path class="st3" d="M597,275.1l-0.1,1.1c-0.6,0-1.2,0.3-1.8,0.8c-0.5,0.5-0.9,1.2-1.1,2v5.3h-1.1v-9h1.1v2.3
		c0.4-0.9,0.8-1.6,1.4-2C595.9,275.3,596.4,275.1,597,275.1z"/>
	<path class="st3" d="M603.5,271.1l-0.2,0.9c-0.3-0.1-0.5-0.1-0.8-0.1c-0.5,0-0.9,0.1-1.1,0.4c-0.2,0.2-0.3,0.6-0.3,1.1v1.9h2.1v0.9
		h-2.1v8.1H600v-8.1h-1.7v-0.9h1.7v-2c0-1.6,0.8-2.4,2.4-2.4C602.6,271,603,271,603.5,271.1z"/>
	<path class="st3" d="M605.4,277.4c0.5-1.5,1.7-2.3,3.5-2.3c2.1,0,3.2,1,3.2,3v3.2c0,1.2,0.1,2.2,0.2,3.1h-1
		c-0.1-0.3-0.1-0.9-0.2-1.6c-0.8,1.2-1.9,1.8-3.3,1.8c-1,0-1.7-0.3-2.2-0.8c-0.4-0.5-0.6-1.1-0.6-1.8c0-1.6,1-2.6,3-3
		c0.8-0.1,1.8-0.2,3-0.3v-0.5c0-0.9-0.2-1.5-0.6-1.8c-0.3-0.3-0.8-0.4-1.6-0.4c-1.3,0-2.1,0.6-2.5,1.8L605.4,277.4z M611,279.5
		c-0.9,0-1.8,0.1-2.8,0.3c-1.4,0.3-2.2,1-2.2,2.1c0,0.6,0.2,1,0.6,1.4c0.3,0.3,0.8,0.4,1.3,0.4c1.2,0,2.2-0.7,3-2V279.5z"/>
	<path class="st3" d="M622.3,277.7l-1.1,0.3c-0.3-1.3-1.1-2-2.3-2c-0.9,0-1.6,0.4-2,1.1c-0.4,0.7-0.6,1.6-0.6,2.7
		c0,1.3,0.3,2.3,0.8,3c0.5,0.6,1.1,0.9,1.9,0.9c1.3,0,2.1-0.7,2.4-2l1.1,0.4c-0.6,1.7-1.7,2.6-3.5,2.6c-1.2,0-2.2-0.5-2.9-1.4
		c-0.6-0.8-0.9-1.9-0.9-3.3c0-1.5,0.4-2.7,1.2-3.6c0.7-0.8,1.6-1.1,2.6-1.1c0.9,0,1.6,0.2,2.2,0.7
		C621.7,276.3,622,276.9,622.3,277.7z"/>
	<path class="st3" d="M632,279.9h-6.5c0,1.3,0.3,2.2,0.9,2.9c0.5,0.6,1.2,0.8,2,0.8c1.3,0,2.1-0.6,2.5-1.9l1,0.4
		c-0.6,1.6-1.8,2.4-3.6,2.4c-1.3,0-2.3-0.5-3-1.4c-0.6-0.8-1-1.9-1-3.3c0-1.5,0.4-2.7,1.2-3.6c0.7-0.8,1.6-1.1,2.6-1.1
		c1.2,0,2.1,0.5,2.8,1.4c0.6,0.8,0.9,1.9,0.9,3.1V279.9z M630.9,279.1c-0.1-1-0.4-1.8-0.9-2.4c-0.5-0.5-1-0.7-1.7-0.7
		c-0.8,0-1.5,0.3-2,0.9c-0.4,0.5-0.7,1.3-0.8,2.1H630.9z"/>
</g>
<g>
	<path class="st3" d="M307.3,169l-1.2,0.3c-0.5-1.9-1.7-2.8-3.4-2.8c-1.3,0-2.3,0.6-3.1,1.7c-0.7,1-1,2.4-1,4.1
		c0,1.9,0.4,3.4,1.3,4.5c0.7,0.9,1.7,1.3,2.8,1.3c1.3,0,2.2-0.5,2.8-1.6c0.5-0.8,0.7-1.8,0.8-3.1h-3.7v-1h4.8v6.5h-0.8l-0.1-2.2
		c-0.4,0.8-0.9,1.5-1.6,1.9c-0.6,0.4-1.3,0.6-2.1,0.6c-1.7,0-3-0.7-4-2c-0.9-1.2-1.3-2.8-1.3-4.8c0-2.2,0.6-4,1.8-5.3
		c1-1,2.2-1.6,3.6-1.6c1.2,0,2.3,0.4,3.1,1.1C306.4,167.2,306.9,168,307.3,169z"/>
	<path class="st3" d="M314.1,169.6c1.2,0,2.2,0.5,2.9,1.4c0.6,0.8,0.9,1.9,0.9,3.3c0,1.5-0.4,2.7-1.2,3.6c-0.7,0.8-1.6,1.1-2.6,1.1
		c-1.2,0-2.2-0.5-2.9-1.4c-0.6-0.8-0.9-1.9-0.9-3.3c0-1.5,0.4-2.7,1.2-3.6C312.2,170,313.1,169.6,314.1,169.6z M314.1,170.5
		c-0.9,0-1.6,0.4-2,1.1c-0.4,0.7-0.6,1.5-0.6,2.7c0,1.3,0.3,2.3,0.8,3c0.5,0.6,1.1,0.9,1.9,0.9c0.9,0,1.6-0.4,2-1.1
		c0.4-0.7,0.6-1.6,0.6-2.7c0-1.3-0.3-2.2-0.8-2.9C315.5,170.8,314.9,170.5,314.1,170.5z"/>
	<path class="st3" d="M322.5,166.6v3.2h2.3v0.9h-2.3v5.9c0,1.1,0.4,1.6,1.3,1.6c0.4,0,0.8,0,1.2-0.1L325,179
		c-0.4,0.1-0.8,0.1-1.3,0.1c-1.5,0-2.3-0.8-2.3-2.3v-6.1h-1.5v-0.9h1.5v-3L322.5,166.6z"/>
	<path class="st3" d="M332.1,165.7l4.3,13.1h-1.3l-1.4-4.3h-4.9l-1.4,4.3h-1.2l4.3-13.1H332.1z M333.5,173.6l-1.1-3.4
		c-0.4-1.2-0.7-2.3-1-3.5h-0.2c-0.3,1.2-0.7,2.3-1,3.5l-1.1,3.4H333.5z"/>
	<path class="st3" d="M339.2,165.7h4.2c1.6,0,2.7,0.4,3.5,1.1c0.6,0.6,1,1.4,1,2.5c0,1.2-0.4,2.2-1.3,2.8c-0.8,0.6-1.9,0.9-3.2,0.9
		h-2.9v5.9h-1.2V165.7z M340.4,166.7v5.3h2.9c2.3,0,3.4-0.9,3.4-2.7c0-1.7-1.1-2.6-3.3-2.6H340.4z"/>
	<path class="st3" d="M352.3,165.7v13.1h-1.2v-13.1H352.3z"/>
	<path class="st3" d="M369.3,168.5l-1.2,0.4c-0.5-1.6-1.5-2.4-3-2.4c-0.9,0-1.7,0.2-2.2,0.7c-0.5,0.4-0.7,1-0.7,1.6
		c0,0.8,0.2,1.4,0.7,1.8c0.4,0.3,1.1,0.6,2.1,0.9l0.5,0.1c1.6,0.4,2.7,1,3.3,1.6c0.4,0.5,0.7,1.2,0.7,2.2c0,1.2-0.4,2.1-1.3,2.8
		c-0.8,0.6-1.8,0.9-3.1,0.9c-1.2,0-2.3-0.3-3.1-0.9c-0.7-0.6-1.2-1.3-1.5-2.3l1.2-0.4c0.5,1.8,1.6,2.7,3.4,2.7c1.1,0,2-0.3,2.5-0.8
		c0.4-0.4,0.7-1,0.7-1.7c0-0.8-0.2-1.4-0.7-1.8c-0.5-0.4-1.3-0.7-2.4-1l-0.5-0.1c-1.5-0.4-2.5-0.9-3.1-1.5c-0.5-0.5-0.7-1.3-0.7-2.2
		c0-1,0.4-1.8,1.2-2.5c0.7-0.6,1.7-0.9,2.9-0.9C367.2,165.5,368.6,166.5,369.3,168.5z"/>
	<path class="st3" d="M379.6,174.4h-6.5c0,1.3,0.3,2.2,0.9,2.9c0.5,0.6,1.2,0.8,2,0.8c1.3,0,2.1-0.6,2.5-1.9l1,0.4
		c-0.6,1.6-1.8,2.4-3.6,2.4c-1.3,0-2.3-0.5-3-1.4c-0.6-0.8-1-1.9-1-3.3c0-1.5,0.4-2.7,1.2-3.6c0.7-0.8,1.6-1.1,2.6-1.1
		c1.2,0,2.1,0.5,2.8,1.4c0.6,0.8,0.9,1.9,0.9,3.1V174.4z M378.5,173.6c-0.1-1-0.4-1.8-0.9-2.4c-0.5-0.5-1-0.7-1.7-0.7
		c-0.8,0-1.5,0.3-2,0.9c-0.4,0.5-0.7,1.3-0.8,2.1H378.5z"/>
	<path class="st3" d="M386.7,169.6l-0.1,1.1c-0.6,0-1.2,0.3-1.8,0.8c-0.5,0.5-0.9,1.2-1.1,2v5.3h-1.1v-9h1.1v2.3
		c0.4-0.9,0.8-1.6,1.4-2C385.6,169.8,386.1,169.6,386.7,169.6z"/>
	<path class="st3" d="M395.5,169.9l-3,9h-1.4l-3-9h1.2l1.7,5.5c0.1,0.3,0.3,1.2,0.7,2.6h0.2c0.4-1.4,0.6-2.3,0.8-2.7l1.7-5.4H395.5z
		"/>
	<path class="st3" d="M405,174.4h-6.5c0,1.3,0.3,2.2,0.9,2.9c0.5,0.6,1.2,0.8,2,0.8c1.3,0,2.1-0.6,2.5-1.9l1,0.4
		c-0.6,1.6-1.8,2.4-3.6,2.4c-1.3,0-2.3-0.5-3-1.4c-0.6-0.8-1-1.9-1-3.3c0-1.5,0.4-2.7,1.2-3.6c0.7-0.8,1.6-1.1,2.6-1.1
		c1.2,0,2.1,0.5,2.8,1.4c0.6,0.8,0.9,1.9,0.9,3.1V174.4z M403.9,173.6c-0.1-1-0.4-1.8-0.9-2.4c-0.5-0.5-1-0.7-1.7-0.7
		c-0.8,0-1.5,0.3-2,0.9c-0.4,0.5-0.7,1.3-0.8,2.1H403.9z"/>
	<path class="st3" d="M412.1,169.6l-0.1,1.1c-0.6,0-1.2,0.3-1.8,0.8c-0.5,0.5-0.9,1.2-1.1,2v5.3H408v-9h1.1v2.3
		c0.4-0.9,0.8-1.6,1.4-2C411,169.8,411.5,169.6,412.1,169.6z"/>
</g>
<g>
	<path class="st3" d="M314.9,56.7l-3.2,13.1h-1.6l-1.9-8.1c-0.3-1.2-0.6-2.5-0.8-4h-0.2c-0.2,1.3-0.5,2.6-0.8,3.9l-2,8.1h-1.6
		l-3.1-13.1h1.3l1.7,8c0.2,0.8,0.4,2.2,0.8,4h0.2c0.5-2.4,0.8-3.8,0.8-3.9l1.9-8.1h1.6l1.9,8.1c0,0.1,0.3,1.4,0.8,3.9h0.2
		c0-0.2,0.2-0.9,0.4-2.1c0.1-0.7,0.3-1.3,0.4-1.8l1.8-8.1H314.9z"/>
	<path class="st3" d="M324.6,65.4h-6.5c0,1.3,0.3,2.2,0.9,2.9c0.5,0.6,1.2,0.8,2,0.8c1.3,0,2.1-0.6,2.5-1.9l1,0.4
		c-0.6,1.6-1.8,2.4-3.6,2.4c-1.3,0-2.3-0.5-3-1.4c-0.6-0.8-1-1.9-1-3.3c0-1.5,0.4-2.7,1.2-3.6c0.7-0.8,1.6-1.1,2.6-1.1
		c1.2,0,2.1,0.5,2.8,1.4c0.6,0.8,0.9,1.9,0.9,3.1V65.4z M323.5,64.6c-0.1-1-0.4-1.8-0.9-2.4c-0.5-0.5-1-0.7-1.7-0.7
		c-0.8,0-1.5,0.3-2,0.9c-0.4,0.5-0.7,1.3-0.8,2.1H323.5z"/>
	<path class="st3" d="M328.7,56.5v5.8c0.7-1.1,1.6-1.6,2.8-1.6s2,0.5,2.7,1.4c0.6,0.8,0.9,1.9,0.9,3.3c0,1.5-0.4,2.8-1.2,3.6
		c-0.7,0.7-1.5,1.1-2.5,1.1c-1.1,0-2-0.6-2.7-1.7l-0.2,1.5h-0.8V56.5H328.7z M328.7,63.4v4c0.7,1.2,1.5,1.7,2.5,1.7
		c0.8,0,1.5-0.4,2-1.1c0.5-0.7,0.7-1.6,0.7-2.7c0-1.3-0.3-2.2-0.8-2.9c-0.5-0.6-1-0.8-1.7-0.8C330.2,61.6,329.4,62.2,328.7,63.4z"/>
	<path class="st3" d="M351.2,59.5l-1.2,0.4c-0.5-1.6-1.5-2.4-3-2.4c-0.9,0-1.7,0.2-2.2,0.7c-0.5,0.4-0.7,1-0.7,1.6
		c0,0.8,0.2,1.4,0.7,1.8c0.4,0.3,1.1,0.6,2.1,0.9l0.5,0.1c1.6,0.4,2.7,1,3.3,1.6c0.4,0.5,0.7,1.2,0.7,2.2c0,1.2-0.4,2.1-1.3,2.8
		c-0.8,0.6-1.8,0.9-3.1,0.9c-1.2,0-2.3-0.3-3.1-0.9c-0.7-0.6-1.2-1.3-1.5-2.3l1.2-0.4c0.5,1.8,1.6,2.7,3.4,2.7c1.1,0,2-0.3,2.5-0.8
		c0.4-0.4,0.7-1,0.7-1.7c0-0.8-0.2-1.4-0.7-1.8c-0.5-0.4-1.3-0.7-2.4-1l-0.5-0.1c-1.5-0.4-2.5-0.9-3.1-1.5c-0.5-0.5-0.7-1.3-0.7-2.2
		c0-1,0.4-1.8,1.2-2.5c0.7-0.6,1.7-0.9,2.9-0.9C349,56.5,350.5,57.5,351.2,59.5z"/>
	<path class="st3" d="M361.5,65.4H355c0,1.3,0.3,2.2,0.9,2.9c0.5,0.6,1.2,0.8,2,0.8c1.3,0,2.1-0.6,2.5-1.9l1,0.4
		c-0.6,1.6-1.8,2.4-3.6,2.4c-1.3,0-2.3-0.5-3-1.4c-0.6-0.8-1-1.9-1-3.3c0-1.5,0.4-2.7,1.2-3.6c0.7-0.8,1.6-1.1,2.6-1.1
		c1.2,0,2.1,0.5,2.8,1.4c0.6,0.8,0.9,1.9,0.9,3.1V65.4z M360.4,64.6c-0.1-1-0.4-1.8-0.9-2.4c-0.5-0.5-1-0.7-1.7-0.7
		c-0.8,0-1.5,0.3-2,0.9c-0.4,0.5-0.7,1.3-0.8,2.1H360.4z"/>
	<path class="st3" d="M368.6,60.6l-0.1,1.1c-0.6,0-1.2,0.3-1.8,0.8c-0.5,0.5-0.9,1.2-1.1,2v5.3h-1.1v-9h1.1v2.3
		c0.4-0.9,0.8-1.6,1.4-2C367.5,60.8,368,60.6,368.6,60.6z"/>
	<path class="st3" d="M377.4,60.9l-3,9H373l-3-9h1.2l1.7,5.5c0.1,0.3,0.3,1.2,0.7,2.6h0.2c0.4-1.4,0.6-2.3,0.8-2.7l1.7-5.4H377.4z"
		/>
	<path class="st3" d="M386.9,65.4h-6.5c0,1.3,0.3,2.2,0.9,2.9c0.5,0.6,1.2,0.8,2,0.8c1.3,0,2.1-0.6,2.5-1.9l1,0.4
		c-0.6,1.6-1.8,2.4-3.6,2.4c-1.3,0-2.3-0.5-3-1.4c-0.6-0.8-1-1.9-1-3.3c0-1.5,0.4-2.7,1.2-3.6c0.7-0.8,1.6-1.1,2.6-1.1
		c1.2,0,2.1,0.5,2.8,1.4c0.6,0.8,0.9,1.9,0.9,3.1V65.4z M385.8,64.6c-0.1-1-0.4-1.8-0.9-2.4c-0.5-0.5-1-0.7-1.7-0.7
		c-0.8,0-1.5,0.3-2,0.9c-0.4,0.5-0.7,1.3-0.8,2.1H385.8z"/>
	<path class="st3" d="M394,60.6l-0.1,1.1c-0.6,0-1.2,0.3-1.8,0.8c-0.5,0.5-0.9,1.2-1.1,2v5.3h-1.1v-9h1.1v2.3c0.4-0.9,0.8-1.6,1.4-2
		C392.9,60.8,393.4,60.6,394,60.6z"/>
	<path class="st3" d="M405.6,56.6l-0.2,0.9c-0.3-0.1-0.5-0.1-0.8-0.1c-0.5,0-0.9,0.1-1.1,0.4c-0.2,0.2-0.3,0.6-0.3,1.1v1.9h2.1v0.9
		h-2.1v8.1h-1.1v-8.1h-1.7v-0.9h1.7v-2c0-1.6,0.8-2.4,2.4-2.4C404.8,56.5,405.2,56.5,405.6,56.6z"/>
	<path class="st3" d="M411.1,60.6c1.2,0,2.2,0.5,2.9,1.4c0.6,0.8,0.9,1.9,0.9,3.3c0,1.5-0.4,2.7-1.2,3.6c-0.7,0.8-1.6,1.1-2.6,1.1
		c-1.2,0-2.2-0.5-2.9-1.4c-0.6-0.8-0.9-1.9-0.9-3.3c0-1.5,0.4-2.7,1.2-3.6C409.1,61,410,60.6,411.1,60.6z M411.1,61.5
		c-0.9,0-1.6,0.4-2,1.1c-0.4,0.7-0.6,1.5-0.6,2.7c0,1.3,0.3,2.3,0.8,3c0.5,0.6,1.1,0.9,1.9,0.9c0.9,0,1.6-0.4,2-1.1
		c0.4-0.7,0.6-1.6,0.6-2.7c0-1.3-0.3-2.2-0.8-2.9C412.4,61.8,411.8,61.5,411.1,61.5z"/>
	<path class="st3" d="M422,60.6l-0.1,1.1c-0.6,0-1.2,0.3-1.8,0.8c-0.5,0.5-0.9,1.2-1.1,2v5.3h-1.1v-9h1.1v2.3c0.4-0.9,0.8-1.6,1.4-2
		C420.9,60.8,421.4,60.6,422,60.6z"/>
	<path class="st3" d="M434.4,56.7l4.3,13.1h-1.3l-1.4-4.3h-4.9l-1.4,4.3h-1.2l4.3-13.1H434.4z M435.8,64.6l-1.1-3.4
		c-0.4-1.2-0.7-2.3-1-3.5h-0.2c-0.3,1.2-0.7,2.3-1,3.5l-1.1,3.4H435.8z"/>
	<path class="st3" d="M442.3,60.9v1.4c0.7-1.1,1.6-1.7,2.8-1.7c1.1,0,2,0.5,2.7,1.4c0.6,0.8,0.9,1.9,0.9,3.3c0,1.5-0.4,2.8-1.2,3.6
		c-0.7,0.7-1.5,1.1-2.5,1.1c-1.1,0-2-0.5-2.6-1.6v4.7h-1.1V60.9H442.3z M442.4,63.4v4c0.7,1.2,1.5,1.7,2.5,1.7c0.8,0,1.5-0.4,2-1.1
		c0.5-0.7,0.7-1.6,0.7-2.7c0-1.3-0.3-2.2-0.8-2.9c-0.5-0.6-1-0.8-1.7-0.8C443.9,61.6,443,62.2,442.4,63.4z"/>
	<path class="st3" d="M452.8,60.9v1.4c0.7-1.1,1.6-1.7,2.8-1.7c1.1,0,2,0.5,2.7,1.4c0.6,0.8,0.9,1.9,0.9,3.3c0,1.5-0.4,2.8-1.2,3.6
		c-0.7,0.7-1.5,1.1-2.5,1.1c-1.1,0-2-0.5-2.6-1.6v4.7h-1.1V60.9H452.8z M452.8,63.4v4c0.7,1.2,1.5,1.7,2.5,1.7c0.8,0,1.5-0.4,2-1.1
		c0.5-0.7,0.7-1.6,0.7-2.7c0-1.3-0.3-2.2-0.8-2.9c-0.5-0.6-1-0.8-1.7-0.8C454.3,61.6,453.5,62.2,452.8,63.4z"/>
	<path class="st3" d="M463.3,56.5v13.4h-1.1V56.5H463.3z"/>
	<path class="st3" d="M468.2,57.2v1.7h-1.7v-1.7H468.2z M468,60.9v9h-1.1v-9H468z"/>
	<path class="st3" d="M478.2,63.2l-1.1,0.3c-0.3-1.3-1.1-2-2.3-2c-0.9,0-1.6,0.4-2,1.1c-0.4,0.7-0.6,1.6-0.6,2.7
		c0,1.3,0.3,2.3,0.8,3c0.5,0.6,1.1,0.9,1.9,0.9c1.3,0,2.1-0.7,2.4-2l1.1,0.4c-0.6,1.7-1.7,2.6-3.5,2.6c-1.2,0-2.2-0.5-2.9-1.4
		c-0.6-0.8-0.9-1.9-0.9-3.3c0-1.5,0.4-2.7,1.2-3.6c0.7-0.8,1.6-1.1,2.6-1.1c0.9,0,1.6,0.2,2.2,0.7C477.5,61.8,477.9,62.4,478.2,63.2
		z"/>
	<path class="st3" d="M480.6,62.9c0.5-1.5,1.7-2.3,3.5-2.3c2.1,0,3.2,1,3.2,3v3.2c0,1.2,0.1,2.2,0.2,3.1h-1
		c-0.1-0.3-0.1-0.9-0.2-1.6c-0.8,1.2-1.9,1.8-3.3,1.8c-1,0-1.7-0.3-2.2-0.8c-0.4-0.5-0.6-1.1-0.6-1.8c0-1.6,1-2.6,3-3
		c0.8-0.1,1.8-0.2,3-0.3v-0.5c0-0.9-0.2-1.5-0.6-1.8c-0.3-0.3-0.8-0.4-1.6-0.4c-1.3,0-2.1,0.6-2.5,1.8L480.6,62.9z M486.3,65
		c-0.9,0-1.8,0.1-2.8,0.3c-1.4,0.3-2.2,1-2.2,2.1c0,0.6,0.2,1,0.6,1.4c0.3,0.3,0.8,0.4,1.3,0.4c1.2,0,2.2-0.7,3-2V65z"/>
	<path class="st3" d="M492.5,57.6v3.2h2.3v0.9h-2.3v5.9c0,1.1,0.4,1.6,1.3,1.6c0.4,0,0.8,0,1.2-0.1l-0.1,0.9
		c-0.4,0.1-0.8,0.1-1.3,0.1c-1.5,0-2.3-0.8-2.3-2.3v-6.1h-1.5v-0.9h1.5v-3L492.5,57.6z"/>
	<path class="st3" d="M498.6,57.2v1.7H497v-1.7H498.6z M498.4,60.9v9h-1.1v-9H498.4z"/>
	<path class="st3" d="M505.2,60.6c1.2,0,2.2,0.5,2.9,1.4c0.6,0.8,0.9,1.9,0.9,3.3c0,1.5-0.4,2.7-1.2,3.6c-0.7,0.8-1.6,1.1-2.6,1.1
		c-1.2,0-2.2-0.5-2.9-1.4c-0.6-0.8-0.9-1.9-0.9-3.3c0-1.5,0.4-2.7,1.2-3.6C503.3,61,504.2,60.6,505.2,60.6z M505.2,61.5
		c-0.9,0-1.6,0.4-2,1.1c-0.4,0.7-0.6,1.5-0.6,2.7c0,1.3,0.3,2.3,0.8,3c0.5,0.6,1.1,0.9,1.9,0.9c0.9,0,1.6-0.4,2-1.1
		c0.4-0.7,0.6-1.6,0.6-2.7c0-1.3-0.3-2.2-0.8-2.9C506.6,61.8,506,61.5,505.2,61.5z"/>
	<path class="st3" d="M513.2,60.9v1.7c1-1.3,2.1-1.9,3.3-1.9c0.8,0,1.5,0.3,1.9,0.8c0.4,0.5,0.6,1,0.6,1.8v6.7h-1.1v-6.2
		c0-1.3-0.6-2-1.7-2c-1,0-2,0.6-3,1.9v6.3h-1.1v-9H513.2z"/>
</g>
<g>
	<path d="M316.9,108.4c-0.9,1.1-1.6,2.3-1.9,3.3c-0.3,0.9-0.5,2-0.5,3.2c0,1.3,0.2,2.5,0.6,3.6c0.4,0.9,1,1.9,1.8,2.9l-0.4,0.3
		c-1.1-1.1-1.8-2.2-2.3-3.3c-0.4-1-0.6-2.2-0.6-3.4c0-1.4,0.3-2.7,0.8-3.9c0.5-1,1.1-1.9,2.1-2.9L316.9,108.4z"/>
	<path d="M326.3,109.7v10.2h-0.9v-5h-5.4v5H319v-10.2h0.9v4.4h5.4v-4.4H326.3z"/>
	<path d="M336,109.7v0.8h-3.3v9.4h-0.9v-9.4h-3.3v-0.8H336z"/>
	<path d="M347.9,109.7v10.2H347v-6.4l0-3h-0.2c-0.1,0.5-0.5,1.5-1,3l-2.3,6.5h-1.2l-2.3-6.5c-0.3-0.9-0.7-1.9-1-3H339
		c0,0.2,0,0.4,0,0.6l0,2.4v6.4h-0.8v-10.2h1.6l2.2,6.4c0.4,1,0.7,2,1,3h0.1c0.5-1.6,0.9-2.5,1-3l2.2-6.4H347.9z"/>
	<path d="M352,109.7v9.4h5.2v0.8h-6.1v-10.2H352z"/>
	<path d="M360.4,118.6v1.4l-0.8,1.9H359l0.7-1.9H359v-1.4H360.4z"/>
	<path d="M369.5,109.7v7.7c0,0.9-0.3,1.7-0.9,2.1c-0.5,0.4-1,0.5-1.7,0.5c-0.2,0-0.5,0-0.9-0.1l-0.1-0.8c0.3,0,0.6,0.1,1,0.1
		c0.5,0,0.9-0.2,1.2-0.6c0.3-0.4,0.5-0.8,0.5-1.5v-7.6H369.5z"/>
	<path d="M372.3,114.6c0.4-1.2,1.3-1.8,2.8-1.8c1.7,0,2.5,0.8,2.5,2.3v2.5c0,0.9,0.1,1.7,0.2,2.4h-0.8c-0.1-0.3-0.1-0.7-0.2-1.2
		c-0.6,0.9-1.5,1.4-2.5,1.4c-0.7,0-1.3-0.2-1.7-0.6c-0.3-0.4-0.5-0.8-0.5-1.4c0-1.3,0.8-2,2.4-2.3c0.6-0.1,1.4-0.2,2.3-0.2v-0.4
		c0-0.7-0.1-1.1-0.4-1.4c-0.3-0.2-0.7-0.3-1.2-0.3c-1,0-1.6,0.5-1.9,1.4L372.3,114.6z M376.7,116.2c-0.7,0-1.4,0.1-2.1,0.2
		c-1.1,0.2-1.7,0.8-1.7,1.6c0,0.5,0.1,0.8,0.4,1.1c0.3,0.2,0.6,0.3,1,0.3c0.9,0,1.7-0.5,2.3-1.5V116.2z"/>
	<path d="M385.2,112.9l-2.4,7h-1.1l-2.4-7h0.9l1.3,4.3c0.1,0.2,0.3,0.9,0.6,2h0.1c0.3-1.1,0.5-1.8,0.6-2.1l1.3-4.2H385.2z"/>
	<path d="M386.9,114.6c0.4-1.2,1.3-1.8,2.8-1.8c1.7,0,2.5,0.8,2.5,2.3v2.5c0,0.9,0.1,1.7,0.2,2.4h-0.8c-0.1-0.3-0.1-0.7-0.2-1.2
		c-0.6,0.9-1.5,1.4-2.5,1.4c-0.7,0-1.3-0.2-1.7-0.6c-0.3-0.4-0.5-0.8-0.5-1.4c0-1.3,0.8-2,2.4-2.3c0.6-0.1,1.4-0.2,2.3-0.2v-0.4
		c0-0.7-0.1-1.1-0.4-1.4c-0.3-0.2-0.7-0.3-1.2-0.3c-1,0-1.6,0.5-1.9,1.4L386.9,114.6z M391.3,116.2c-0.7,0-1.4,0.1-2.1,0.2
		c-1.1,0.2-1.7,0.8-1.7,1.6c0,0.5,0.1,0.8,0.4,1.1c0.3,0.2,0.6,0.3,1,0.3c0.9,0,1.7-0.5,2.3-1.5V116.2z"/>
	<path d="M401.2,111.9l-0.9,0.3c-0.4-1.2-1.2-1.9-2.4-1.9c-0.7,0-1.3,0.2-1.7,0.6c-0.4,0.3-0.5,0.7-0.5,1.3c0,0.6,0.2,1.1,0.6,1.4
		c0.3,0.3,0.9,0.5,1.7,0.7l0.4,0.1c1.3,0.3,2.1,0.7,2.6,1.3c0.3,0.4,0.5,1,0.5,1.7c0,0.9-0.3,1.6-1,2.2c-0.6,0.5-1.4,0.7-2.4,0.7
		c-1,0-1.8-0.2-2.4-0.7c-0.6-0.4-1-1-1.2-1.8l0.9-0.3c0.4,1.4,1.3,2.1,2.7,2.1c0.9,0,1.5-0.2,2-0.6c0.3-0.3,0.5-0.8,0.5-1.4
		c0-0.6-0.2-1.1-0.6-1.4c-0.4-0.3-1-0.6-1.9-0.8l-0.4-0.1c-1.2-0.3-1.9-0.7-2.4-1.2c-0.4-0.4-0.5-1-0.5-1.7c0-0.8,0.3-1.4,0.9-1.9
		c0.6-0.5,1.3-0.7,2.2-0.7C399.5,109.6,400.6,110.3,401.2,111.9z"/>
	<path d="M408.9,114.8L408,115c-0.3-1-0.8-1.5-1.8-1.5c-0.7,0-1.2,0.3-1.6,0.9c-0.3,0.5-0.5,1.2-0.5,2.1c0,1,0.2,1.8,0.6,2.3
		c0.4,0.5,0.8,0.7,1.4,0.7c1,0,1.6-0.5,1.9-1.6l0.8,0.3c-0.4,1.3-1.3,2-2.7,2c-1,0-1.7-0.4-2.3-1.1c-0.5-0.7-0.7-1.5-0.7-2.5
		c0-1.2,0.3-2.1,0.9-2.8c0.5-0.6,1.2-0.9,2-0.9c0.7,0,1.3,0.2,1.7,0.6C408.4,113.7,408.7,114.2,408.9,114.8z"/>
	<path d="M414.1,112.8l-0.1,0.9c-0.5,0-0.9,0.2-1.4,0.6c-0.4,0.4-0.7,0.9-0.9,1.6v4.1H411v-7h0.8v1.8c0.3-0.7,0.6-1.2,1.1-1.6
		C413.3,112.9,413.7,112.8,414.1,112.8z"/>
	<path d="M417.1,110.1v1.3h-1.3v-1.3H417.1z M416.9,112.9v7H416v-7H416.9z"/>
	<path d="M420.6,112.9v1.1c0.6-0.9,1.3-1.3,2.2-1.3c0.9,0,1.6,0.4,2.1,1.1c0.5,0.7,0.7,1.5,0.7,2.6c0,1.2-0.3,2.1-0.9,2.8
		c-0.5,0.6-1.2,0.9-1.9,0.9c-0.9,0-1.6-0.4-2.1-1.3v3.6h-0.9v-9.5H420.6z M420.6,114.9v3.1c0.5,0.9,1.2,1.4,1.9,1.4
		c0.7,0,1.2-0.3,1.5-0.9c0.4-0.5,0.5-1.2,0.5-2.1c0-1-0.2-1.7-0.6-2.3c-0.4-0.4-0.8-0.7-1.4-0.7C421.8,113.5,421.1,114,420.6,114.9z
		"/>
	<path d="M429.1,110.4v2.5h1.8v0.7h-1.8v4.6c0,0.8,0.3,1.2,1,1.2c0.3,0,0.6,0,0.9-0.1l-0.1,0.7c-0.3,0.1-0.6,0.1-1,0.1
		c-1.2,0-1.8-0.6-1.8-1.8v-4.7H427v-0.7h1.2v-2.3L429.1,110.4z"/>
	<path d="M433.9,118.6v1.4l-0.8,1.9h-0.6l0.7-1.9h-0.8v-1.4H433.9z"/>
	<path d="M447.7,112.4l-0.9,0.3c-0.4-1.5-1.3-2.3-2.7-2.3c-1,0-1.8,0.4-2.4,1.3c-0.5,0.8-0.8,1.9-0.8,3.2c0,1.5,0.3,2.7,1,3.5
		c0.6,0.7,1.3,1,2.2,1c1.5,0,2.4-0.8,2.8-2.4l0.9,0.3c-0.6,1.9-1.8,2.8-3.7,2.8c-1.3,0-2.3-0.5-3.1-1.6c-0.7-1-1.1-2.2-1.1-3.7
		c0-1.8,0.5-3.1,1.4-4.1c0.8-0.8,1.7-1.2,2.8-1.2c1,0,1.8,0.3,2.4,0.9C447.1,110.9,447.5,111.6,447.7,112.4z"/>
	<path d="M456.1,111.9l-0.9,0.3c-0.4-1.2-1.2-1.9-2.4-1.9c-0.7,0-1.3,0.2-1.7,0.6c-0.4,0.3-0.5,0.7-0.5,1.3c0,0.6,0.2,1.1,0.6,1.4
		c0.3,0.3,0.9,0.5,1.7,0.7l0.4,0.1c1.3,0.3,2.1,0.7,2.6,1.3c0.3,0.4,0.5,1,0.5,1.7c0,0.9-0.3,1.6-1,2.2c-0.6,0.5-1.4,0.7-2.4,0.7
		c-1,0-1.8-0.2-2.4-0.7c-0.6-0.4-1-1-1.2-1.8l0.9-0.3c0.4,1.4,1.3,2.1,2.7,2.1c0.9,0,1.5-0.2,2-0.6c0.3-0.3,0.5-0.8,0.5-1.4
		c0-0.6-0.2-1.1-0.6-1.4c-0.4-0.3-1-0.6-1.9-0.8l-0.4-0.1c-1.2-0.3-1.9-0.7-2.4-1.2c-0.4-0.4-0.5-1-0.5-1.7c0-0.8,0.3-1.4,0.9-1.9
		c0.6-0.5,1.3-0.7,2.2-0.7C454.5,109.6,455.6,110.3,456.1,111.9z"/>
	<path d="M464.9,111.9l-0.9,0.3c-0.4-1.2-1.2-1.9-2.4-1.9c-0.7,0-1.3,0.2-1.7,0.6c-0.4,0.3-0.5,0.7-0.5,1.3c0,0.6,0.2,1.1,0.6,1.4
		c0.3,0.3,0.9,0.5,1.7,0.7l0.4,0.1c1.3,0.3,2.1,0.7,2.6,1.3c0.3,0.4,0.5,1,0.5,1.7c0,0.9-0.3,1.6-1,2.2c-0.6,0.5-1.4,0.7-2.4,0.7
		c-1,0-1.8-0.2-2.4-0.7c-0.6-0.4-1-1-1.2-1.8l0.9-0.3c0.4,1.4,1.3,2.1,2.7,2.1c0.9,0,1.5-0.2,2-0.6c0.3-0.3,0.5-0.8,0.5-1.4
		c0-0.6-0.2-1.1-0.6-1.4c-0.4-0.3-1-0.6-1.9-0.8l-0.4-0.1c-1.2-0.3-1.9-0.7-2.4-1.2c-0.4-0.4-0.5-1-0.5-1.7c0-0.8,0.3-1.4,0.9-1.9
		c0.6-0.5,1.3-0.7,2.2-0.7C463.3,109.6,464.4,110.3,464.9,111.9z"/>
	<path d="M468.6,118.6v1.4l-0.8,1.9h-0.6l0.7-1.9h-0.8v-1.4H468.6z"/>
	<path d="M480.6,116.5h-5.1c0,1,0.2,1.7,0.7,2.3c0.4,0.4,0.9,0.7,1.5,0.7c1,0,1.7-0.5,2-1.5l0.8,0.3c-0.5,1.3-1.4,1.9-2.8,1.9
		c-1,0-1.8-0.4-2.3-1.1c-0.5-0.7-0.8-1.5-0.8-2.5c0-1.2,0.3-2.1,1-2.8c0.5-0.6,1.2-0.9,2-0.9c0.9,0,1.7,0.4,2.2,1.1
		c0.5,0.6,0.7,1.5,0.7,2.4V116.5z M479.7,115.9c-0.1-0.8-0.3-1.4-0.7-1.8c-0.4-0.4-0.8-0.5-1.3-0.5c-0.6,0-1.1,0.2-1.5,0.7
		c-0.3,0.4-0.5,1-0.6,1.7H479.7z"/>
	<path d="M484.1,110.4v2.5h1.8v0.7h-1.8v4.6c0,0.8,0.3,1.2,1,1.2c0.3,0,0.6,0,0.9-0.1L486,120c-0.3,0.1-0.6,0.1-1,0.1
		c-1.2,0-1.8-0.6-1.8-1.8v-4.7h-1.2v-0.7h1.2v-2.3L484.1,110.4z"/>
	<path d="M493,114.8l-0.9,0.3c-0.3-1-0.8-1.5-1.8-1.5c-0.7,0-1.2,0.3-1.6,0.9c-0.3,0.5-0.5,1.2-0.5,2.1c0,1,0.2,1.8,0.6,2.3
		c0.4,0.5,0.8,0.7,1.4,0.7c1,0,1.6-0.5,1.9-1.6l0.8,0.3c-0.4,1.3-1.3,2-2.7,2c-1,0-1.7-0.4-2.3-1.1c-0.5-0.7-0.7-1.5-0.7-2.5
		c0-1.2,0.3-2.1,0.9-2.8c0.5-0.6,1.2-0.9,2-0.9c0.7,0,1.3,0.2,1.7,0.6C492.5,113.7,492.8,114.2,493,114.8z"/>
	<path d="M496.2,118.5v1.4h-1.4v-1.4H496.2z"/>
	<path d="M498.2,108.2c1.1,1.1,1.8,2.2,2.3,3.3c0.4,1,0.6,2.2,0.6,3.4c0,1.4-0.3,2.7-0.8,3.9c-0.5,1-1.1,1.9-2.1,2.9l-0.4-0.3
		c0.9-1.1,1.6-2.2,1.9-3.3c0.3-1,0.5-2,0.5-3.2c0-1.3-0.2-2.5-0.6-3.6c-0.4-0.9-1-1.9-1.8-2.9L498.2,108.2z"/>
</g>
<g>
</g>
<g>
</g>
<g>
</g>
<g>
</g>
<g>
</g>
<g>
</g>
<g>
</g>
<g>
</g>
<g>
</g>
<g>
</g>
<g>
</g>
<g>
</g>
<g>
</g>
<g>
</g>
<g>
</g>
<g>
</g>
</svg>
