<?xml version="1.0" encoding="utf-8"?>
<!-- Generator: Adobe Illustrator 21.0.0, SVG Export Plug-In . SVG Version: 6.00 Build 0)  -->
<svg version="1.1" id="レイヤー_1" xmlns="http://www.w3.org/2000/svg" xmlns:xlink="http://www.w3.org/1999/xlink" x="0px"
	 y="0px" viewBox="0 0 760 395" style="enable-background:new 0 0 760 395;" xml:space="preserve">
<style type="text/css">
	.st0{fill:#FFFFFF;stroke:#F7931E;stroke-miterlimit:10;}
	.st1{fill:#FFFFFF;stroke:#C1272D;stroke-miterlimit:10;}
	.st2{fill:#2D2828;}
	.st3{fill:#C1272D;}
	.st4{fill:#FFF1F1;stroke:#C1272D;stroke-miterlimit:10;}
	.st5{fill:none;stroke:#F7931E;stroke-miterlimit:10;}
	.st6{fill:none;stroke:#C1272D;stroke-miterlimit:10;}
</style>
<path class="st0" d="M611.5,383.5h-300c-6.6,0-12-5.4-12-12v-345c0-6.6,5.4-12,12-12h300c6.6,0,12,5.4,12,12v345
	C623.5,378.1,618.1,383.5,611.5,383.5z"/>
<path class="st1" d="M599.5,335.5h-274c-6.6,0-12-5.4-12-12v-264c0-6.6,5.4-12,12-12h274c6.6,0,12,5.4,12,12v264
	C611.5,330.1,606.1,335.5,599.5,335.5z"/>
<g>
	<path d="M325,23.7h4.2c1.6,0,2.7,0.4,3.5,1.1c0.6,0.6,1,1.4,1,2.5c0,1.2-0.4,2.2-1.3,2.8c-0.8,0.6-1.9,0.9-3.2,0.9h-2.9v5.9H325
		V23.7z M326.2,24.7V30h2.9c2.3,0,3.4-0.9,3.4-2.7c0-1.7-1.1-2.6-3.3-2.6H326.2z"/>
	<path d="M337.8,23.5v13.4h-1.1V23.5H337.8z"/>
	<path d="M348.3,27.9v9h-1.1v-1.7c-0.4,0.6-0.9,1.1-1.6,1.5c-0.6,0.3-1.1,0.5-1.7,0.5c-0.8,0-1.4-0.2-1.9-0.7
		c-0.4-0.4-0.7-1-0.7-1.8v-6.7h1.1v6.4c0,1.2,0.6,1.9,1.7,1.9c0.6,0,1.1-0.2,1.7-0.6c0.5-0.4,0.9-0.8,1.2-1.3v-6.3H348.3z"/>
	<path d="M359.2,26.8l-0.1,1c-0.5,0-0.9,0.1-1.2,0.2c-0.2,0.1-0.5,0.3-0.7,0.5c0.6,0.5,0.9,1.2,0.9,2.1c0,1-0.4,1.7-1.1,2.3
		c-0.6,0.5-1.3,0.7-2.2,0.7c-0.5,0-1-0.1-1.5-0.3c-0.6,0.3-0.9,0.7-0.9,1.1c0,0.3,0.1,0.5,0.4,0.7c0.3,0.1,0.8,0.2,1.5,0.3l1.8,0.2
		c1.2,0.1,2.1,0.4,2.5,0.8c0.4,0.3,0.5,0.7,0.5,1.3c0,0.8-0.4,1.4-1.2,1.9c-0.8,0.4-1.8,0.6-3,0.6c-1.3,0-2.4-0.2-3.1-0.7
		c-0.6-0.4-0.9-0.9-0.9-1.5c0-0.5,0.2-0.9,0.6-1.2c0.3-0.3,0.7-0.6,1.3-0.7c-0.9-0.2-1.4-0.6-1.4-1.3c0-0.6,0.4-1.2,1.2-1.7
		c-0.8-0.5-1.1-1.3-1.1-2.3c0-0.9,0.4-1.7,1.1-2.3c0.6-0.5,1.3-0.7,2.2-0.7c0.7,0,1.3,0.1,1.7,0.4c0.3-0.5,0.7-0.8,1.2-1
		C358.1,26.8,358.6,26.8,359.2,26.8z M353.8,36.2c-1.2,0.3-1.8,0.9-1.8,1.6c0,0.5,0.3,1,0.9,1.2c0.5,0.2,1.2,0.3,2,0.3
		c1.1,0,1.9-0.2,2.5-0.5c0.5-0.3,0.7-0.6,0.7-1.1c0-0.4-0.2-0.7-0.5-0.9c-0.4-0.2-0.9-0.4-1.8-0.4L353.8,36.2z M354.8,28.4
		c-0.7,0-1.2,0.2-1.6,0.7c-0.4,0.4-0.6,0.9-0.6,1.5c0,0.7,0.2,1.3,0.7,1.7c0.4,0.3,0.9,0.5,1.5,0.5c0.7,0,1.2-0.2,1.6-0.6
		c0.4-0.4,0.6-0.9,0.6-1.5c0-0.7-0.2-1.3-0.7-1.7C355.9,28.6,355.4,28.4,354.8,28.4z"/>
	<path d="M366.3,31.3v1h-4.9v-1H366.3z"/>
	<path d="M371,23.7v13.1h-1.2V23.7H371z"/>
	<path d="M375.9,27.9v1.7c1-1.3,2.1-1.9,3.3-1.9c0.8,0,1.5,0.3,1.9,0.8c0.4,0.5,0.6,1,0.6,1.8v6.7h-1.1v-6.2c0-1.3-0.6-2-1.7-2
		c-1,0-2,0.6-3,1.9v6.3h-1.1v-9H375.9z"/>
	<path d="M386.9,27.9v1.8h-1.8v-1.8H386.9z M386.9,35v1.8h-1.8V35H386.9z"/>
	<path d="M403.5,26.5l-1.2,0.4c-0.5-1.6-1.5-2.4-3-2.4c-0.9,0-1.7,0.2-2.2,0.7c-0.5,0.4-0.7,1-0.7,1.6c0,0.8,0.2,1.4,0.7,1.8
		c0.4,0.3,1.1,0.6,2.1,0.9l0.5,0.1c1.6,0.4,2.7,1,3.3,1.6c0.4,0.5,0.7,1.2,0.7,2.2c0,1.2-0.4,2.1-1.3,2.8c-0.8,0.6-1.8,0.9-3.1,0.9
		c-1.2,0-2.3-0.3-3.1-0.9c-0.7-0.6-1.2-1.3-1.5-2.3l1.2-0.4c0.5,1.8,1.6,2.7,3.4,2.7c1.1,0,2-0.3,2.5-0.8c0.4-0.4,0.7-1,0.7-1.7
		c0-0.8-0.2-1.4-0.7-1.8c-0.5-0.4-1.3-0.7-2.4-1l-0.5-0.1c-1.5-0.4-2.5-0.9-3.1-1.5c-0.5-0.5-0.7-1.3-0.7-2.2c0-1,0.4-1.8,1.2-2.5
		c0.7-0.6,1.7-0.9,2.9-0.9C401.4,23.5,402.8,24.5,403.5,26.5z"/>
	<path d="M407.9,27.9v1.7c0.9-1.3,2-1.9,3-1.9c0.7,0,1.2,0.2,1.7,0.6c0.4,0.3,0.6,0.8,0.7,1.3c0.9-1.2,1.9-1.9,3.1-1.9
		c0.8,0,1.4,0.3,1.9,0.8c0.4,0.5,0.6,1,0.6,1.8v6.7h-1.1v-6.2c0-1.3-0.5-2-1.6-2c-0.5,0-1,0.2-1.5,0.6c-0.4,0.3-0.8,0.8-1.2,1.3v6.3
		h-1.1v-6.2c0-1.3-0.5-2-1.6-2c-0.5,0-1,0.2-1.5,0.6c-0.5,0.3-0.9,0.8-1.2,1.3v6.3h-1.1v-9H407.9z"/>
	<path d="M422.1,29.9c0.5-1.5,1.7-2.3,3.5-2.3c2.1,0,3.2,1,3.2,3v3.2c0,1.2,0.1,2.2,0.2,3.1h-1c-0.1-0.3-0.1-0.9-0.2-1.6
		c-0.8,1.2-1.9,1.8-3.3,1.8c-1,0-1.7-0.3-2.2-0.8c-0.4-0.5-0.6-1.1-0.6-1.8c0-1.6,1-2.6,3-3c0.8-0.1,1.8-0.2,3-0.3v-0.5
		c0-0.9-0.2-1.5-0.6-1.8c-0.3-0.3-0.8-0.4-1.6-0.4c-1.3,0-2.1,0.6-2.5,1.8L422.1,29.9z M427.7,32c-0.9,0-1.8,0.1-2.8,0.3
		c-1.4,0.3-2.2,1-2.2,2.1c0,0.6,0.2,1,0.6,1.4c0.3,0.3,0.8,0.4,1.3,0.4c1.2,0,2.2-0.7,3-2V32z"/>
	<path d="M436.4,27.6l-0.1,1.1c-0.6,0-1.2,0.3-1.8,0.8c-0.5,0.5-0.9,1.2-1.1,2v5.3h-1.1v-9h1.1v2.3c0.4-0.9,0.8-1.6,1.4-2
		C435.3,27.8,435.9,27.6,436.4,27.6z"/>
	<path d="M440.5,24.6v3.2h2.3v0.9h-2.3v5.9c0,1.1,0.4,1.6,1.3,1.6c0.4,0,0.8,0,1.2-0.1l-0.1,0.9c-0.4,0.1-0.8,0.1-1.3,0.1
		c-1.5,0-2.3-0.8-2.3-2.3v-6.1h-1.5v-0.9h1.5v-3L440.5,24.6z"/>
	<path d="M453.3,26.5l-1.2,0.4c-0.5-1.6-1.5-2.4-3-2.4c-0.9,0-1.7,0.2-2.2,0.7c-0.5,0.4-0.7,1-0.7,1.6c0,0.8,0.2,1.4,0.7,1.8
		c0.4,0.3,1.1,0.6,2.1,0.9l0.5,0.1c1.6,0.4,2.7,1,3.3,1.6c0.4,0.5,0.7,1.2,0.7,2.2c0,1.2-0.4,2.1-1.3,2.8c-0.8,0.6-1.8,0.9-3.1,0.9
		c-1.2,0-2.3-0.3-3.1-0.9c-0.7-0.6-1.2-1.3-1.5-2.3l1.2-0.4c0.5,1.8,1.6,2.7,3.4,2.7c1.1,0,2-0.3,2.5-0.8c0.4-0.4,0.7-1,0.7-1.7
		c0-0.8-0.2-1.4-0.7-1.8c-0.5-0.4-1.3-0.7-2.4-1l-0.5-0.1c-1.5-0.4-2.5-0.9-3.1-1.5c-0.5-0.5-0.7-1.3-0.7-2.2c0-1,0.4-1.8,1.2-2.5
		c0.7-0.6,1.7-0.9,2.9-0.9C451.1,23.5,452.5,24.5,453.3,26.5z"/>
	<path d="M463.6,32.4h-6.5c0,1.3,0.3,2.2,0.9,2.9c0.5,0.6,1.2,0.8,2,0.8c1.3,0,2.1-0.6,2.5-1.9l1,0.4c-0.6,1.6-1.8,2.4-3.6,2.4
		c-1.3,0-2.3-0.5-3-1.4c-0.6-0.8-1-1.9-1-3.3c0-1.5,0.4-2.7,1.2-3.6c0.7-0.8,1.6-1.1,2.6-1.1c1.2,0,2.1,0.5,2.8,1.4
		c0.6,0.8,0.9,1.9,0.9,3.1V32.4z M462.5,31.6c-0.1-1-0.4-1.8-0.9-2.4c-0.5-0.5-1-0.7-1.7-0.7c-0.8,0-1.5,0.3-2,0.9
		c-0.4,0.5-0.7,1.3-0.8,2.1H462.5z"/>
	<path d="M467.7,27.9v1.7c1-1.3,2.1-1.9,3.3-1.9c0.8,0,1.5,0.3,1.9,0.8c0.4,0.5,0.6,1,0.6,1.8v6.7h-1.1v-6.2c0-1.3-0.6-2-1.7-2
		c-1,0-2,0.6-3,1.9v6.3h-1.1v-9H467.7z"/>
	<path d="M483,29.8l-1.1,0.4c-0.3-1.1-1.1-1.6-2.2-1.6c-0.7,0-1.2,0.1-1.6,0.4c-0.3,0.3-0.5,0.6-0.5,1c0,0.5,0.2,0.9,0.5,1.1
		c0.3,0.2,0.8,0.4,1.5,0.6l0.7,0.2c1.1,0.3,1.9,0.6,2.3,1c0.4,0.4,0.6,0.9,0.6,1.6c0,0.8-0.3,1.5-1,2c-0.6,0.5-1.4,0.7-2.5,0.7
		c-1.8,0-3-0.7-3.6-2.2l1.1-0.4c0.4,1.1,1.2,1.7,2.5,1.7c0.8,0,1.4-0.2,1.8-0.6c0.3-0.3,0.5-0.7,0.5-1.1c0-0.6-0.2-1-0.5-1.2
		c-0.3-0.2-0.9-0.4-1.7-0.6l-0.7-0.2c-1.1-0.2-1.8-0.6-2.2-1c-0.3-0.4-0.5-0.8-0.5-1.5c0-0.8,0.3-1.4,0.9-1.8
		c0.6-0.4,1.3-0.6,2.2-0.6C481.4,27.6,482.4,28.3,483,29.8z"/>
	<path d="M489.4,27.6c1.2,0,2.2,0.5,2.9,1.4c0.6,0.8,0.9,1.9,0.9,3.3c0,1.5-0.4,2.7-1.2,3.6c-0.7,0.8-1.6,1.1-2.6,1.1
		c-1.2,0-2.2-0.5-2.9-1.4c-0.6-0.8-0.9-1.9-0.9-3.3c0-1.5,0.4-2.7,1.2-3.6C487.5,28,488.4,27.6,489.4,27.6z M489.4,28.5
		c-0.9,0-1.6,0.4-2,1.1c-0.4,0.7-0.6,1.5-0.6,2.7c0,1.3,0.3,2.3,0.8,3c0.5,0.6,1.1,0.9,1.9,0.9c0.9,0,1.6-0.4,2-1.1
		c0.4-0.7,0.6-1.6,0.6-2.7c0-1.3-0.3-2.2-0.8-2.9C490.8,28.8,490.2,28.5,489.4,28.5z"/>
	<path d="M500.4,27.6l-0.1,1.1c-0.6,0-1.2,0.3-1.8,0.8c-0.5,0.5-0.9,1.2-1.1,2v5.3h-1.1v-9h1.1v2.3c0.4-0.9,0.8-1.6,1.4-2
		C499.3,27.8,499.8,27.6,500.4,27.6z"/>
</g>
<path class="st0" d="M737.5,184.5h-89c-6.6,0-12-5.4-12-12v-20c0-6.6,5.4-12,12-12h89c6.6,0,12,5.4,12,12v20
	C749.5,179.1,744.1,184.5,737.5,184.5z"/>
<g>
	<path class="st2" d="M662.8,157.5l-1.2,0.4c-0.5-1.6-1.5-2.4-3-2.4c-0.9,0-1.7,0.2-2.2,0.7c-0.5,0.4-0.7,1-0.7,1.6
		c0,0.8,0.2,1.4,0.7,1.8c0.4,0.3,1.1,0.6,2.1,0.9l0.5,0.1c1.6,0.4,2.7,1,3.3,1.6c0.4,0.5,0.7,1.2,0.7,2.2c0,1.2-0.4,2.1-1.3,2.8
		c-0.8,0.6-1.8,0.9-3.1,0.9c-1.2,0-2.3-0.3-3.1-0.9c-0.7-0.6-1.2-1.3-1.5-2.3l1.2-0.4c0.5,1.8,1.6,2.7,3.4,2.7c1.1,0,2-0.3,2.5-0.8
		c0.4-0.4,0.7-1,0.7-1.7c0-0.8-0.2-1.4-0.7-1.8c-0.5-0.4-1.3-0.7-2.4-1l-0.5-0.1c-1.5-0.4-2.5-0.9-3.1-1.5c-0.5-0.5-0.7-1.3-0.7-2.2
		c0-1,0.4-1.8,1.2-2.5c0.7-0.6,1.7-0.9,2.9-0.9C660.7,154.5,662.1,155.5,662.8,157.5z"/>
	<path class="st2" d="M673.2,163.4h-6.5c0,1.3,0.3,2.2,0.9,2.9c0.5,0.6,1.2,0.8,2,0.8c1.3,0,2.1-0.6,2.5-1.9l1,0.4
		c-0.6,1.6-1.8,2.4-3.6,2.4c-1.3,0-2.3-0.5-3-1.4c-0.6-0.8-1-1.9-1-3.3c0-1.5,0.4-2.7,1.2-3.6c0.7-0.8,1.6-1.1,2.6-1.1
		c1.2,0,2.1,0.5,2.8,1.4c0.6,0.8,0.9,1.9,0.9,3.1V163.4z M672,162.6c-0.1-1-0.4-1.8-0.9-2.4c-0.5-0.5-1-0.7-1.7-0.7
		c-0.8,0-1.5,0.3-2,0.9c-0.4,0.5-0.7,1.3-0.8,2.1H672z"/>
	<path class="st2" d="M677.2,158.9v1.7c1-1.3,2.1-1.9,3.3-1.9c0.8,0,1.5,0.3,1.9,0.8c0.4,0.5,0.6,1,0.6,1.8v6.7h-1.1v-6.2
		c0-1.3-0.6-2-1.7-2c-1,0-2,0.6-3,1.9v6.3h-1.1v-9H677.2z"/>
	<path class="st2" d="M692.6,160.8l-1.1,0.4c-0.3-1.1-1.1-1.6-2.2-1.6c-0.7,0-1.2,0.1-1.6,0.4c-0.3,0.3-0.5,0.6-0.5,1
		c0,0.5,0.2,0.9,0.5,1.1c0.3,0.2,0.8,0.4,1.5,0.6l0.7,0.2c1.1,0.3,1.9,0.6,2.3,1c0.4,0.4,0.6,0.9,0.6,1.6c0,0.8-0.3,1.5-1,2
		c-0.6,0.5-1.4,0.7-2.5,0.7c-1.8,0-3-0.7-3.6-2.2l1.1-0.4c0.4,1.1,1.2,1.7,2.5,1.7c0.8,0,1.4-0.2,1.8-0.6c0.3-0.3,0.5-0.7,0.5-1.1
		c0-0.6-0.2-1-0.5-1.2c-0.3-0.2-0.9-0.4-1.7-0.6l-0.7-0.2c-1.1-0.2-1.8-0.6-2.2-1c-0.3-0.4-0.5-0.8-0.5-1.5c0-0.8,0.3-1.4,0.9-1.8
		c0.6-0.4,1.3-0.6,2.2-0.6C690.9,158.6,692,159.3,692.6,160.8z"/>
	<path class="st2" d="M699,158.6c1.2,0,2.2,0.5,2.9,1.4c0.6,0.8,0.9,1.9,0.9,3.3c0,1.5-0.4,2.7-1.2,3.6c-0.7,0.8-1.6,1.1-2.6,1.1
		c-1.2,0-2.2-0.5-2.9-1.4c-0.6-0.8-0.9-1.9-0.9-3.3c0-1.5,0.4-2.7,1.2-3.6C697.1,159,697.9,158.6,699,158.6z M699,159.5
		c-0.9,0-1.6,0.4-2,1.1c-0.4,0.7-0.6,1.5-0.6,2.7c0,1.3,0.3,2.3,0.8,3c0.5,0.6,1.1,0.9,1.9,0.9c0.9,0,1.6-0.4,2-1.1
		c0.4-0.7,0.6-1.6,0.6-2.7c0-1.3-0.3-2.2-0.8-2.9C700.4,159.8,699.8,159.5,699,159.5z"/>
	<path class="st2" d="M709.9,158.6l-0.1,1.1c-0.6,0-1.2,0.3-1.8,0.8c-0.5,0.5-0.9,1.2-1.1,2v5.3h-1.1v-9h1.1v2.3
		c0.4-0.9,0.8-1.6,1.4-2C708.8,158.8,709.4,158.6,709.9,158.6z"/>
	<path class="st2" d="M724.5,154.7l-0.8,3.9h1.8l-0.2,0.9h-1.8l-0.7,3.4h1.8l-0.2,0.9h-1.7l-0.8,3.9H721l0.8-3.9h-2.7l-0.8,3.9h-0.8
		l0.9-3.9h-1.8l0.2-0.9h1.7l0.7-3.4h-1.8l0.2-0.9h1.7l0.8-3.9h0.8l-0.8,3.9h2.8l0.8-3.9H724.5z M722.7,159.6h-2.8l-0.7,3.4h2.8
		L722.7,159.6z"/>
	<path class="st2" d="M732,154.8v12.1h2.4v1h-6.1v-1h2.6V156c-0.8,0.5-1.6,1-2.6,1.4l-0.2-1c1-0.3,2-0.8,3-1.5H732z"/>
</g>
<g>
	<path d="M348.8,62.8l-1.1,0.4c-0.3-1.1-1.1-1.6-2.2-1.6c-0.7,0-1.2,0.1-1.6,0.4c-0.3,0.3-0.5,0.6-0.5,1c0,0.5,0.2,0.9,0.5,1.1
		c0.3,0.2,0.8,0.4,1.5,0.6l0.7,0.2c1.1,0.3,1.9,0.6,2.3,1c0.4,0.4,0.6,0.9,0.6,1.6c0,0.8-0.3,1.5-1,2c-0.6,0.5-1.4,0.7-2.5,0.7
		c-1.8,0-3-0.7-3.6-2.2l1.1-0.4c0.4,1.1,1.2,1.7,2.5,1.7c0.8,0,1.4-0.2,1.8-0.6c0.3-0.3,0.5-0.7,0.5-1.1c0-0.6-0.2-1-0.5-1.2
		c-0.3-0.2-0.9-0.4-1.7-0.6l-0.7-0.2c-1.1-0.2-1.8-0.6-2.2-1c-0.3-0.4-0.5-0.8-0.5-1.5c0-0.8,0.3-1.4,0.9-1.8
		c0.6-0.4,1.3-0.6,2.2-0.6C347.1,60.6,348.2,61.3,348.8,62.8z"/>
	<path d="M359,65.4h-6.5c0,1.3,0.3,2.2,0.9,2.9c0.5,0.6,1.2,0.8,2,0.8c1.3,0,2.1-0.6,2.5-1.9l1,0.4c-0.6,1.6-1.8,2.4-3.6,2.4
		c-1.3,0-2.3-0.5-3-1.4c-0.6-0.8-1-1.9-1-3.3c0-1.5,0.4-2.7,1.2-3.6c0.7-0.8,1.6-1.1,2.6-1.1c1.2,0,2.1,0.5,2.8,1.4
		c0.6,0.8,0.9,1.9,0.9,3.1V65.4z M357.9,64.6c-0.1-1-0.4-1.8-0.9-2.4c-0.5-0.5-1-0.7-1.7-0.7c-0.8,0-1.5,0.3-2,0.9
		c-0.4,0.5-0.7,1.3-0.8,2.1H357.9z"/>
	<path d="M366.1,60.6l-0.1,1.1c-0.6,0-1.2,0.3-1.8,0.8c-0.5,0.5-0.9,1.2-1.1,2v5.3H362v-9h1.1v2.3c0.4-0.9,0.8-1.6,1.4-2
		C365,60.8,365.5,60.6,366.1,60.6z"/>
	<path d="M374.9,60.9l-3,9h-1.4l-3-9h1.2l1.7,5.5c0.1,0.3,0.3,1.2,0.7,2.6h0.2c0.4-1.4,0.6-2.3,0.8-2.7l1.7-5.4H374.9z"/>
	<path d="M378.7,57.2v1.7h-1.7v-1.7H378.7z M378.5,60.9v9h-1.1v-9H378.5z"/>
	<path d="M388.7,63.2l-1.1,0.3c-0.3-1.3-1.1-2-2.3-2c-0.9,0-1.6,0.4-2,1.1c-0.4,0.7-0.6,1.6-0.6,2.7c0,1.3,0.3,2.3,0.8,3
		c0.5,0.6,1.1,0.9,1.9,0.9c1.3,0,2.1-0.7,2.4-2l1.1,0.4c-0.6,1.7-1.7,2.6-3.5,2.6c-1.2,0-2.2-0.5-2.9-1.4c-0.6-0.8-0.9-1.9-0.9-3.3
		c0-1.5,0.4-2.7,1.2-3.6c0.7-0.8,1.6-1.1,2.6-1.1c0.9,0,1.6,0.2,2.2,0.7C388,61.8,388.4,62.4,388.7,63.2z"/>
	<path d="M398.4,65.4h-6.5c0,1.3,0.3,2.2,0.9,2.9c0.5,0.6,1.2,0.8,2,0.8c1.3,0,2.1-0.6,2.5-1.9l1,0.4c-0.6,1.6-1.8,2.4-3.6,2.4
		c-1.3,0-2.3-0.5-3-1.4c-0.6-0.8-1-1.9-1-3.3c0-1.5,0.4-2.7,1.2-3.6c0.7-0.8,1.6-1.1,2.6-1.1c1.2,0,2.1,0.5,2.8,1.4
		c0.6,0.8,0.9,1.9,0.9,3.1V65.4z M397.3,64.6c-0.1-1-0.4-1.8-0.9-2.4c-0.5-0.5-1-0.7-1.7-0.7c-0.8,0-1.5,0.3-2,0.9
		c-0.4,0.5-0.7,1.3-0.8,2.1H397.3z"/>
	<path d="M402.8,56.7v13.1h-1.2V56.7H402.8z"/>
	<path d="M413.5,56.5v13.4h-1.1v-1.4c-0.7,1.1-1.6,1.6-2.7,1.6c-1.1,0-2-0.5-2.7-1.4c-0.6-0.9-0.9-2-0.9-3.3c0-1.5,0.4-2.7,1.2-3.6
		c0.6-0.7,1.4-1.1,2.4-1.1c1.1,0,2,0.5,2.7,1.6v-5.7H413.5z M412.4,63.4c-0.6-1.2-1.5-1.8-2.6-1.8c-0.8,0-1.5,0.4-2,1.1
		c-0.4,0.7-0.6,1.5-0.6,2.6c0,1.3,0.3,2.2,0.9,2.9c0.5,0.6,1.1,0.9,1.8,0.9c1,0,1.8-0.6,2.5-1.7V63.4z"/>
	<path d="M418.7,60.9v1.8h-1.8v-1.8H418.7z M418.7,68v1.8h-1.8V68H418.7z"/>
	<path class="st3" d="M433.3,62.8l-1.1,0.4c-0.3-1.1-1.1-1.6-2.2-1.6c-0.7,0-1.2,0.1-1.6,0.4c-0.3,0.3-0.5,0.6-0.5,1
		c0,0.5,0.2,0.9,0.5,1.1c0.3,0.2,0.8,0.4,1.5,0.6l0.7,0.2c1.1,0.3,1.9,0.6,2.3,1c0.4,0.4,0.6,0.9,0.6,1.6c0,0.8-0.3,1.5-1,2
		c-0.6,0.5-1.4,0.7-2.5,0.7c-1.8,0-3-0.7-3.6-2.2l1.1-0.4c0.4,1.1,1.2,1.7,2.5,1.7c0.8,0,1.4-0.2,1.8-0.6c0.3-0.3,0.5-0.7,0.5-1.1
		c0-0.6-0.2-1-0.5-1.2c-0.3-0.2-0.9-0.4-1.7-0.6l-0.7-0.2c-1.1-0.2-1.8-0.6-2.2-1c-0.3-0.4-0.5-0.8-0.5-1.5c0-0.8,0.3-1.4,0.9-1.8
		c0.6-0.4,1.3-0.6,2.2-0.6C431.6,60.6,432.7,61.3,433.3,62.8z"/>
	<path class="st3" d="M437.5,60.9v1.7c0.9-1.3,2-1.9,3-1.9c0.7,0,1.2,0.2,1.7,0.6c0.4,0.3,0.6,0.8,0.7,1.3c0.9-1.2,1.9-1.9,3.1-1.9
		c0.8,0,1.4,0.3,1.9,0.8c0.4,0.5,0.6,1,0.6,1.8v6.7h-1.1v-6.2c0-1.3-0.5-2-1.6-2c-0.5,0-1,0.2-1.5,0.6c-0.4,0.3-0.8,0.8-1.2,1.3v6.3
		h-1.1v-6.2c0-1.3-0.5-2-1.6-2c-0.5,0-1,0.2-1.5,0.6c-0.5,0.3-0.9,0.8-1.2,1.3v6.3h-1.1v-9H437.5z"/>
	<path class="st3" d="M451.7,62.9c0.5-1.5,1.7-2.3,3.5-2.3c2.1,0,3.2,1,3.2,3v3.2c0,1.2,0.1,2.2,0.2,3.1h-1
		c-0.1-0.3-0.1-0.9-0.2-1.6c-0.8,1.2-1.9,1.8-3.3,1.8c-1,0-1.7-0.3-2.2-0.8c-0.4-0.5-0.6-1.1-0.6-1.8c0-1.6,1-2.6,3-3
		c0.8-0.1,1.8-0.2,3-0.3v-0.5c0-0.9-0.2-1.5-0.6-1.8c-0.3-0.3-0.8-0.4-1.6-0.4c-1.3,0-2.1,0.6-2.5,1.8L451.7,62.9z M457.4,65
		c-0.9,0-1.8,0.1-2.8,0.3c-1.4,0.3-2.2,1-2.2,2.1c0,0.6,0.2,1,0.6,1.4c0.3,0.3,0.8,0.4,1.3,0.4c1.2,0,2.2-0.7,3-2V65z"/>
	<path class="st3" d="M466.1,60.6l-0.1,1.1c-0.6,0-1.2,0.3-1.8,0.8c-0.5,0.5-0.9,1.2-1.1,2v5.3H462v-9h1.1v2.3
		c0.4-0.9,0.8-1.6,1.4-2C465,60.8,465.5,60.6,466.1,60.6z"/>
	<path class="st3" d="M470.1,57.6v3.2h2.3v0.9h-2.3v5.9c0,1.1,0.4,1.6,1.3,1.6c0.4,0,0.8,0,1.2-0.1l-0.1,0.9
		c-0.4,0.1-0.8,0.1-1.3,0.1c-1.5,0-2.3-0.8-2.3-2.3v-6.1h-1.5v-0.9h1.5v-3L470.1,57.6z"/>
	<path class="st3" d="M479.5,64.3v1h-4.9v-1H479.5z"/>
	<path class="st3" d="M488.7,62.8l-1.1,0.4c-0.3-1.1-1.1-1.6-2.2-1.6c-0.7,0-1.2,0.1-1.6,0.4c-0.3,0.3-0.5,0.6-0.5,1
		c0,0.5,0.2,0.9,0.5,1.1c0.3,0.2,0.8,0.4,1.5,0.6l0.7,0.2c1.1,0.3,1.9,0.6,2.3,1c0.4,0.4,0.6,0.9,0.6,1.6c0,0.8-0.3,1.5-1,2
		c-0.6,0.5-1.4,0.7-2.5,0.7c-1.8,0-3-0.7-3.6-2.2l1.1-0.4c0.4,1.1,1.2,1.7,2.5,1.7c0.8,0,1.4-0.2,1.8-0.6c0.3-0.3,0.5-0.7,0.5-1.1
		c0-0.6-0.2-1-0.5-1.2c-0.3-0.2-0.9-0.4-1.7-0.6l-0.7-0.2c-1.1-0.2-1.8-0.6-2.2-1c-0.3-0.4-0.5-0.8-0.5-1.5c0-0.8,0.3-1.4,0.9-1.8
		c0.6-0.4,1.3-0.6,2.2-0.6C487.1,60.6,488.1,61.3,488.7,62.8z"/>
	<path class="st3" d="M498.9,65.4h-6.5c0,1.3,0.3,2.2,0.9,2.9c0.5,0.6,1.2,0.8,2,0.8c1.3,0,2.1-0.6,2.5-1.9l1,0.4
		c-0.6,1.6-1.8,2.4-3.6,2.4c-1.3,0-2.3-0.5-3-1.4c-0.6-0.8-1-1.9-1-3.3c0-1.5,0.4-2.7,1.2-3.6c0.7-0.8,1.6-1.1,2.6-1.1
		c1.2,0,2.1,0.5,2.8,1.4c0.6,0.8,0.9,1.9,0.9,3.1V65.4z M497.8,64.6c-0.1-1-0.4-1.8-0.9-2.4c-0.5-0.5-1-0.7-1.7-0.7
		c-0.8,0-1.5,0.3-2,0.9c-0.4,0.5-0.7,1.3-0.8,2.1H497.8z"/>
	<path class="st3" d="M503,60.9v1.7c1-1.3,2.1-1.9,3.3-1.9c0.8,0,1.5,0.3,1.9,0.8c0.4,0.5,0.6,1,0.6,1.8v6.7h-1.1v-6.2
		c0-1.3-0.6-2-1.7-2c-1,0-2,0.6-3,1.9v6.3h-1.1v-9H503z"/>
	<path class="st3" d="M518.3,62.8l-1.1,0.4c-0.3-1.1-1.1-1.6-2.2-1.6c-0.7,0-1.2,0.1-1.6,0.4c-0.3,0.3-0.5,0.6-0.5,1
		c0,0.5,0.2,0.9,0.5,1.1c0.3,0.2,0.8,0.4,1.5,0.6l0.7,0.2c1.1,0.3,1.9,0.6,2.3,1c0.4,0.4,0.6,0.9,0.6,1.6c0,0.8-0.3,1.5-1,2
		c-0.6,0.5-1.4,0.7-2.5,0.7c-1.8,0-3-0.7-3.6-2.2l1.1-0.4c0.4,1.1,1.2,1.7,2.5,1.7c0.8,0,1.4-0.2,1.8-0.6c0.3-0.3,0.5-0.7,0.5-1.1
		c0-0.6-0.2-1-0.5-1.2c-0.3-0.2-0.9-0.4-1.7-0.6l-0.7-0.2c-1.1-0.2-1.8-0.6-2.2-1c-0.3-0.4-0.5-0.8-0.5-1.5c0-0.8,0.3-1.4,0.9-1.8
		c0.6-0.4,1.3-0.6,2.2-0.6C516.7,60.6,517.8,61.3,518.3,62.8z"/>
	<path class="st3" d="M524.8,60.6c1.2,0,2.2,0.5,2.9,1.4c0.6,0.8,0.9,1.9,0.9,3.3c0,1.5-0.4,2.7-1.2,3.6c-0.7,0.8-1.6,1.1-2.6,1.1
		c-1.2,0-2.2-0.5-2.9-1.4c-0.6-0.8-0.9-1.9-0.9-3.3c0-1.5,0.4-2.7,1.2-3.6C522.9,61,523.7,60.6,524.8,60.6z M524.8,61.5
		c-0.9,0-1.6,0.4-2,1.1c-0.4,0.7-0.6,1.5-0.6,2.7c0,1.3,0.3,2.3,0.8,3c0.5,0.6,1.1,0.9,1.9,0.9c0.9,0,1.6-0.4,2-1.1
		c0.4-0.7,0.6-1.6,0.6-2.7c0-1.3-0.3-2.2-0.8-2.9C526.2,61.8,525.6,61.5,524.8,61.5z"/>
	<path class="st3" d="M535.7,60.6l-0.1,1.1c-0.6,0-1.2,0.3-1.8,0.8c-0.5,0.5-0.9,1.2-1.1,2v5.3h-1.1v-9h1.1v2.3
		c0.4-0.9,0.8-1.6,1.4-2C534.6,60.8,535.1,60.6,535.7,60.6z"/>
	<path class="st3" d="M542.8,64.3v1h-4.9v-1H542.8z"/>
	<path class="st3" d="M550,56.8v12.1h2.4v1h-6.1v-1h2.6V58c-0.8,0.5-1.6,1-2.6,1.4l-0.2-1c1-0.3,2-0.8,3-1.5H550z"/>
</g>
<path class="st1" d="M589.5,244.5h-254c-6.6,0-12-5.4-12-12v-136c0-6.6,5.4-12,12-12h254c6.6,0,12,5.4,12,12v136
	C601.5,239.1,596.1,244.5,589.5,244.5z"/>
<g>
	<path d="M347.9,95.9v1.4c0.7-1.1,1.6-1.7,2.8-1.7c1.1,0,2,0.5,2.7,1.4c0.6,0.8,0.9,1.9,0.9,3.3c0,1.5-0.4,2.8-1.2,3.6
		c-0.7,0.7-1.5,1.1-2.5,1.1c-1.1,0-2-0.5-2.6-1.6v4.7h-1.1V95.9H347.9z M347.9,98.4v4c0.7,1.2,1.5,1.7,2.5,1.7c0.8,0,1.5-0.4,2-1.1
		c0.5-0.7,0.7-1.6,0.7-2.7c0-1.3-0.3-2.2-0.8-2.9c-0.5-0.6-1-0.8-1.7-0.8C349.4,96.6,348.6,97.2,347.9,98.4z"/>
	<path d="M361.3,95.6l-0.1,1.1c-0.6,0-1.2,0.3-1.8,0.8c-0.5,0.5-0.9,1.2-1.1,2v5.3h-1.1v-9h1.1v2.3c0.4-0.9,0.8-1.6,1.4-2
		C360.2,95.8,360.8,95.6,361.3,95.6z"/>
	<path d="M367,95.6c1.2,0,2.2,0.5,2.9,1.4c0.6,0.8,0.9,1.9,0.9,3.3c0,1.5-0.4,2.7-1.2,3.6c-0.7,0.8-1.6,1.1-2.6,1.1
		c-1.2,0-2.2-0.5-2.9-1.4c-0.6-0.8-0.9-1.9-0.9-3.3c0-1.5,0.4-2.7,1.2-3.6C365.1,96,366,95.6,367,95.6z M367,96.5
		c-0.9,0-1.6,0.4-2,1.1c-0.4,0.7-0.6,1.5-0.6,2.7c0,1.3,0.3,2.3,0.8,3c0.5,0.6,1.1,0.9,1.9,0.9c0.9,0,1.6-0.4,2-1.1
		c0.4-0.7,0.6-1.6,0.6-2.7c0-1.3-0.3-2.2-0.8-2.9C368.4,96.8,367.8,96.5,367,96.5z"/>
	<path d="M378,91.6l-0.2,0.9c-0.3-0.1-0.5-0.1-0.8-0.1c-0.5,0-0.9,0.1-1.1,0.4c-0.2,0.2-0.3,0.6-0.3,1.1v1.9h2.1v0.9h-2.1v8.1h-1.1
		v-8.1h-1.8v-0.9h1.8v-2c0-1.6,0.8-2.4,2.4-2.4C377.2,91.5,377.6,91.5,378,91.6z M381.4,92.4v1.7h-1.7v-1.7H381.4z M381.1,95.9v9
		H380v-9H381.1z"/>
	<path d="M385.9,91.5v13.4h-1.1V91.5H385.9z"/>
	<path d="M396.6,100.4h-6.5c0,1.3,0.3,2.2,0.9,2.9c0.5,0.6,1.2,0.8,2,0.8c1.3,0,2.1-0.6,2.5-1.9l1,0.4c-0.6,1.6-1.8,2.4-3.6,2.4
		c-1.3,0-2.3-0.5-3-1.4c-0.6-0.8-1-1.9-1-3.3c0-1.5,0.4-2.7,1.2-3.6c0.7-0.8,1.6-1.1,2.6-1.1c1.2,0,2.1,0.5,2.8,1.4
		c0.6,0.8,0.9,1.9,0.9,3.1V100.4z M395.5,99.6c-0.1-1-0.4-1.8-0.9-2.4c-0.5-0.5-1-0.7-1.7-0.7c-0.8,0-1.5,0.3-2,0.9
		c-0.4,0.5-0.7,1.3-0.8,2.1H395.5z"/>
	<path d="M401.2,95.9v1.8h-1.8v-1.8H401.2z M401.2,103v1.8h-1.8V103H401.2z"/>
	<path class="st3" d="M410.9,91.5v5.8c0.7-1.1,1.6-1.6,2.8-1.6s2,0.5,2.7,1.4c0.6,0.8,0.9,1.9,0.9,3.3c0,1.5-0.4,2.8-1.2,3.6
		c-0.7,0.7-1.5,1.1-2.5,1.1c-1.1,0-2-0.6-2.7-1.7l-0.2,1.5h-0.8V91.5H410.9z M410.9,98.4v4c0.7,1.2,1.5,1.7,2.5,1.7
		c0.8,0,1.5-0.4,2-1.1c0.5-0.7,0.7-1.6,0.7-2.7c0-1.3-0.3-2.2-0.8-2.9c-0.5-0.6-1-0.8-1.7-0.8C412.5,96.6,411.6,97.2,410.9,98.4z"/>
	<path class="st3" d="M420,97.9c0.5-1.5,1.7-2.3,3.5-2.3c2.1,0,3.2,1,3.2,3v3.2c0,1.2,0.1,2.2,0.2,3.1h-1c-0.1-0.3-0.1-0.9-0.2-1.6
		c-0.8,1.2-1.9,1.8-3.3,1.8c-1,0-1.7-0.3-2.2-0.8c-0.4-0.5-0.6-1.1-0.6-1.8c0-1.6,1-2.6,3-3c0.8-0.1,1.8-0.2,3-0.3v-0.5
		c0-0.9-0.2-1.5-0.6-1.8c-0.3-0.3-0.8-0.4-1.6-0.4c-1.3,0-2.1,0.6-2.5,1.8L420,97.9z M425.7,100c-0.9,0-1.8,0.1-2.8,0.3
		c-1.4,0.3-2.2,1-2.2,2.1c0,0.6,0.2,1,0.6,1.4c0.3,0.3,0.8,0.4,1.3,0.4c1.2,0,2.2-0.7,3-2V100z"/>
	<path class="st3" d="M431.9,92.6v3.2h2.3v0.9h-2.3v5.9c0,1.1,0.4,1.6,1.3,1.6c0.4,0,0.8,0,1.2-0.1l-0.1,0.9
		c-0.4,0.1-0.8,0.1-1.3,0.1c-1.5,0-2.3-0.8-2.3-2.3v-6.1h-1.5v-0.9h1.5v-3L431.9,92.6z"/>
	<path class="st3" d="M438.2,92.6v3.2h2.3v0.9h-2.3v5.9c0,1.1,0.4,1.6,1.3,1.6c0.4,0,0.8,0,1.2-0.1l-0.1,0.9
		c-0.4,0.1-0.8,0.1-1.3,0.1c-1.5,0-2.3-0.8-2.3-2.3v-6.1h-1.5v-0.9h1.5v-3L438.2,92.6z"/>
	<path class="st3" d="M450,100.4h-6.5c0,1.3,0.3,2.2,0.9,2.9c0.5,0.6,1.2,0.8,2,0.8c1.3,0,2.1-0.6,2.5-1.9l1,0.4
		c-0.6,1.6-1.8,2.4-3.6,2.4c-1.3,0-2.3-0.5-3-1.4c-0.6-0.8-1-1.9-1-3.3c0-1.5,0.4-2.7,1.2-3.6c0.7-0.8,1.6-1.1,2.6-1.1
		c1.2,0,2.1,0.5,2.8,1.4c0.6,0.8,0.9,1.9,0.9,3.1V100.4z M448.9,99.6c-0.1-1-0.4-1.8-0.9-2.4c-0.5-0.5-1-0.7-1.7-0.7
		c-0.8,0-1.5,0.3-2,0.9c-0.4,0.5-0.7,1.3-0.8,2.1H448.9z"/>
	<path class="st3" d="M457.1,95.6l-0.1,1.1c-0.6,0-1.2,0.3-1.8,0.8c-0.5,0.5-0.9,1.2-1.1,2v5.3H453v-9h1.1v2.3
		c0.4-0.9,0.8-1.6,1.4-2C456,95.8,456.5,95.6,457.1,95.6z"/>
	<path class="st3" d="M465.9,95.9l-3.4,9.5c-0.4,1.1-0.9,1.8-1.4,2.3c-0.5,0.4-1.1,0.5-1.8,0.5c-0.3,0-0.6,0-0.8-0.1l-0.1-1
		c0.3,0.1,0.6,0.1,0.9,0.1c0.6,0,1-0.2,1.3-0.5c0.3-0.3,0.6-0.8,0.9-1.5l0.2-0.4l-3.2-8.8h1.2l2,5.8c0.1,0.4,0.3,1,0.5,1.8h0.1
		c0.1-0.3,0.2-0.6,0.3-1c0.1-0.4,0.2-0.7,0.3-0.9l1.9-5.8H465.9z"/>
</g>
<path class="st0" d="M580.5,150.5h-225c-6.6,0-12-5.4-12-12v-10c0-6.6,5.4-12,12-12h225c6.6,0,12,5.4,12,12v10
	C592.5,145.1,587.1,150.5,580.5,150.5z"/>
<g>
	<path d="M355.5,131.9c0.5-1.5,1.7-2.3,3.5-2.3c2.1,0,3.2,1,3.2,3v3.2c0,1.2,0.1,2.2,0.2,3.1h-1c-0.1-0.3-0.1-0.9-0.2-1.6
		c-0.8,1.2-1.9,1.8-3.3,1.8c-1,0-1.7-0.3-2.2-0.8c-0.4-0.5-0.6-1.1-0.6-1.8c0-1.6,1-2.6,3-3c0.8-0.1,1.8-0.2,3-0.3v-0.5
		c0-0.9-0.2-1.5-0.6-1.8c-0.3-0.3-0.8-0.4-1.6-0.4c-1.3,0-2.1,0.6-2.5,1.8L355.5,131.9z M361.2,134c-0.9,0-1.8,0.1-2.8,0.3
		c-1.4,0.3-2.2,1-2.2,2.1c0,0.6,0.2,1,0.6,1.4c0.3,0.3,0.8,0.4,1.3,0.4c1.2,0,2.2-0.7,3-2V134z"/>
	<path d="M367.4,126.6v3.2h2.3v0.9h-2.3v5.9c0,1.1,0.4,1.6,1.3,1.6c0.4,0,0.8,0,1.2-0.1l-0.1,0.9c-0.4,0.1-0.8,0.1-1.3,0.1
		c-1.5,0-2.3-0.8-2.3-2.3v-6.1h-1.5v-0.9h1.5v-3L367.4,126.6z"/>
	<path d="M373.7,126.6v3.2h2.3v0.9h-2.3v5.9c0,1.1,0.4,1.6,1.3,1.6c0.4,0,0.8,0,1.2-0.1l-0.1,0.9c-0.4,0.1-0.8,0.1-1.3,0.1
		c-1.5,0-2.3-0.8-2.3-2.3v-6.1h-1.5v-0.9h1.5v-3L373.7,126.6z"/>
	<path d="M382.6,129.6l-0.1,1.1c-0.6,0-1.2,0.3-1.8,0.8c-0.5,0.5-0.9,1.2-1.1,2v5.3h-1.1v-9h1.1v2.3c0.4-0.9,0.8-1.6,1.4-2
		C381.5,129.8,382,129.6,382.6,129.6z"/>
	<path d="M386.4,126.2v1.7h-1.7v-1.7H386.4z M386.2,129.9v9h-1.1v-9H386.2z"/>
	<path d="M390.9,125.5v5.8c0.7-1.1,1.6-1.6,2.8-1.6s2,0.5,2.7,1.4c0.6,0.8,0.9,1.9,0.9,3.3c0,1.5-0.4,2.8-1.2,3.6
		c-0.7,0.7-1.5,1.1-2.5,1.1c-1.1,0-2-0.6-2.7-1.7l-0.2,1.5h-0.8v-13.4H390.9z M390.9,132.4v4c0.7,1.2,1.5,1.7,2.5,1.7
		c0.8,0,1.5-0.4,2-1.1c0.5-0.7,0.7-1.6,0.7-2.7c0-1.3-0.3-2.2-0.8-2.9c-0.5-0.6-1-0.8-1.7-0.8C392.4,130.6,391.6,131.2,390.9,132.4z
		"/>
	<path d="M407.1,129.9v9H406v-1.7c-0.4,0.6-0.9,1.1-1.6,1.5c-0.6,0.3-1.1,0.5-1.7,0.5c-0.8,0-1.4-0.2-1.9-0.7
		c-0.4-0.4-0.7-1-0.7-1.8v-6.7h1.1v6.4c0,1.2,0.6,1.9,1.7,1.9c0.6,0,1.1-0.2,1.7-0.6c0.5-0.4,0.9-0.8,1.2-1.3v-6.3H407.1z"/>
	<path d="M412.3,126.6v3.2h2.3v0.9h-2.3v5.9c0,1.1,0.4,1.6,1.3,1.6c0.4,0,0.8,0,1.2-0.1l-0.1,0.9c-0.4,0.1-0.8,0.1-1.3,0.1
		c-1.5,0-2.3-0.8-2.3-2.3v-6.1h-1.5v-0.9h1.5v-3L412.3,126.6z"/>
	<path d="M424.1,134.4h-6.5c0,1.3,0.3,2.2,0.9,2.9c0.5,0.6,1.2,0.8,2,0.8c1.3,0,2.1-0.6,2.5-1.9l1,0.4c-0.6,1.6-1.8,2.4-3.6,2.4
		c-1.3,0-2.3-0.5-3-1.4c-0.6-0.8-1-1.9-1-3.3c0-1.5,0.4-2.7,1.2-3.6c0.7-0.8,1.6-1.1,2.6-1.1c1.2,0,2.1,0.5,2.8,1.4
		c0.6,0.8,0.9,1.9,0.9,3.1V134.4z M423,133.6c-0.1-1-0.4-1.8-0.9-2.4c-0.5-0.5-1-0.7-1.7-0.7c-0.8,0-1.5,0.3-2,0.9
		c-0.4,0.5-0.7,1.3-0.8,2.1H423z"/>
	<path d="M428.7,129.9v1.8h-1.8v-1.8H428.7z M428.7,137v1.8h-1.8V137H428.7z"/>
	<path d="M441.8,124.1c-1.2,1.5-2,2.9-2.5,4.3c-0.4,1.2-0.6,2.6-0.6,4.1c0,1.7,0.3,3.2,0.8,4.6c0.5,1.2,1.3,2.5,2.3,3.8l-0.5,0.4
		c-1.4-1.4-2.3-2.9-2.9-4.3c-0.5-1.3-0.8-2.8-0.8-4.4c0-1.8,0.3-3.5,1-5c0.6-1.2,1.5-2.5,2.7-3.7L441.8,124.1z"/>
	<path d="M445.4,125.5v13.4h-1.1v-13.4H445.4z"/>
	<path d="M456,134.4h-6.5c0,1.3,0.3,2.2,0.9,2.9c0.5,0.6,1.2,0.8,2,0.8c1.3,0,2.1-0.6,2.5-1.9l1,0.4c-0.6,1.6-1.8,2.4-3.6,2.4
		c-1.3,0-2.3-0.5-3-1.4c-0.6-0.8-1-1.9-1-3.3c0-1.5,0.4-2.7,1.2-3.6c0.7-0.8,1.6-1.1,2.6-1.1c1.2,0,2.1,0.5,2.8,1.4
		c0.6,0.8,0.9,1.9,0.9,3.1V134.4z M454.9,133.6c-0.1-1-0.4-1.8-0.9-2.4c-0.5-0.5-1-0.7-1.7-0.7c-0.8,0-1.5,0.3-2,0.9
		c-0.4,0.5-0.7,1.3-0.8,2.1H454.9z"/>
	<path d="M465.4,129.9l-3,9h-1.4l-3-9h1.2l1.7,5.5c0.1,0.3,0.3,1.2,0.7,2.6h0.2c0.4-1.4,0.6-2.3,0.8-2.7l1.7-5.4H465.4z"/>
	<path d="M474.9,134.4h-6.5c0,1.3,0.3,2.2,0.9,2.9c0.5,0.6,1.2,0.8,2,0.8c1.3,0,2.1-0.6,2.5-1.9l1,0.4c-0.6,1.6-1.8,2.4-3.6,2.4
		c-1.3,0-2.3-0.5-3-1.4c-0.6-0.8-1-1.9-1-3.3c0-1.5,0.4-2.7,1.2-3.6c0.7-0.8,1.6-1.1,2.6-1.1c1.2,0,2.1,0.5,2.8,1.4
		c0.6,0.8,0.9,1.9,0.9,3.1V134.4z M473.8,133.6c-0.1-1-0.4-1.8-0.9-2.4c-0.5-0.5-1-0.7-1.7-0.7c-0.8,0-1.5,0.3-2,0.9
		c-0.4,0.5-0.7,1.3-0.8,2.1H473.8z"/>
	<path d="M479,125.5v13.4h-1.1v-13.4H479z"/>
	<path d="M481.9,123.7c1.4,1.4,2.3,2.9,2.9,4.3c0.5,1.3,0.8,2.8,0.8,4.4c0,1.8-0.3,3.5-1,5c-0.6,1.2-1.5,2.5-2.7,3.7l-0.5-0.4
		c1.2-1.5,2-2.9,2.5-4.3c0.4-1.2,0.6-2.6,0.6-4.1c0-1.7-0.3-3.2-0.8-4.6c-0.5-1.2-1.3-2.5-2.3-3.8L481.9,123.7z"/>
</g>
<path class="st4" d="M580.5,193.5h-225c-6.6,0-12-5.4-12-12v-10c0-6.6,5.4-12,12-12h225c6.6,0,12,5.4,12,12v10
	C592.5,188.1,587.1,193.5,580.5,193.5z"/>
<g>
	<path d="M355.5,174.9c0.5-1.5,1.7-2.3,3.5-2.3c2.1,0,3.2,1,3.2,3v3.2c0,1.2,0.1,2.2,0.2,3.1h-1c-0.1-0.3-0.1-0.9-0.2-1.6
		c-0.8,1.2-1.9,1.8-3.3,1.8c-1,0-1.7-0.3-2.2-0.8c-0.4-0.5-0.6-1.1-0.6-1.8c0-1.6,1-2.6,3-3c0.8-0.1,1.8-0.2,3-0.3v-0.5
		c0-0.9-0.2-1.5-0.6-1.8c-0.3-0.3-0.8-0.4-1.6-0.4c-1.3,0-2.1,0.6-2.5,1.8L355.5,174.9z M361.2,177c-0.9,0-1.8,0.1-2.8,0.3
		c-1.4,0.3-2.2,1-2.2,2.1c0,0.6,0.2,1,0.6,1.4c0.3,0.3,0.8,0.4,1.3,0.4c1.2,0,2.2-0.7,3-2V177z"/>
	<path d="M367.4,169.6v3.2h2.3v0.9h-2.3v5.9c0,1.1,0.4,1.6,1.3,1.6c0.4,0,0.8,0,1.2-0.1l-0.1,0.9c-0.4,0.1-0.8,0.1-1.3,0.1
		c-1.5,0-2.3-0.8-2.3-2.3v-6.1h-1.5v-0.9h1.5v-3L367.4,169.6z"/>
	<path d="M373.7,169.6v3.2h2.3v0.9h-2.3v5.9c0,1.1,0.4,1.6,1.3,1.6c0.4,0,0.8,0,1.2-0.1l-0.1,0.9c-0.4,0.1-0.8,0.1-1.3,0.1
		c-1.5,0-2.3-0.8-2.3-2.3v-6.1h-1.5v-0.9h1.5v-3L373.7,169.6z"/>
	<path d="M382.6,172.6l-0.1,1.1c-0.6,0-1.2,0.3-1.8,0.8c-0.5,0.5-0.9,1.2-1.1,2v5.3h-1.1v-9h1.1v2.3c0.4-0.9,0.8-1.6,1.4-2
		C381.5,172.8,382,172.6,382.6,172.6z"/>
	<path d="M386.4,169.2v1.7h-1.7v-1.7H386.4z M386.2,172.9v9h-1.1v-9H386.2z"/>
	<path d="M390.9,168.5v5.8c0.7-1.1,1.6-1.6,2.8-1.6s2,0.5,2.7,1.4c0.6,0.8,0.9,1.9,0.9,3.3c0,1.5-0.4,2.8-1.2,3.6
		c-0.7,0.7-1.5,1.1-2.5,1.1c-1.1,0-2-0.6-2.7-1.7l-0.2,1.5h-0.8v-13.4H390.9z M390.9,175.4v4c0.7,1.2,1.5,1.7,2.5,1.7
		c0.8,0,1.5-0.4,2-1.1c0.5-0.7,0.7-1.6,0.7-2.7c0-1.3-0.3-2.2-0.8-2.9c-0.5-0.6-1-0.8-1.7-0.8C392.4,173.6,391.6,174.2,390.9,175.4z
		"/>
	<path d="M407.1,172.9v9H406v-1.7c-0.4,0.6-0.9,1.1-1.6,1.5c-0.6,0.3-1.1,0.5-1.7,0.5c-0.8,0-1.4-0.2-1.9-0.7
		c-0.4-0.4-0.7-1-0.7-1.8v-6.7h1.1v6.4c0,1.2,0.6,1.9,1.7,1.9c0.6,0,1.1-0.2,1.7-0.6c0.5-0.4,0.9-0.8,1.2-1.3v-6.3H407.1z"/>
	<path d="M412.3,169.6v3.2h2.3v0.9h-2.3v5.9c0,1.1,0.4,1.6,1.3,1.6c0.4,0,0.8,0,1.2-0.1l-0.1,0.9c-0.4,0.1-0.8,0.1-1.3,0.1
		c-1.5,0-2.3-0.8-2.3-2.3v-6.1h-1.5v-0.9h1.5v-3L412.3,169.6z"/>
	<path d="M424.1,177.4h-6.5c0,1.3,0.3,2.2,0.9,2.9c0.5,0.6,1.2,0.8,2,0.8c1.3,0,2.1-0.6,2.5-1.9l1,0.4c-0.6,1.6-1.8,2.4-3.6,2.4
		c-1.3,0-2.3-0.5-3-1.4c-0.6-0.8-1-1.9-1-3.3c0-1.5,0.4-2.7,1.2-3.6c0.7-0.8,1.6-1.1,2.6-1.1c1.2,0,2.1,0.5,2.8,1.4
		c0.6,0.8,0.9,1.9,0.9,3.1V177.4z M423,176.6c-0.1-1-0.4-1.8-0.9-2.4c-0.5-0.5-1-0.7-1.7-0.7c-0.8,0-1.5,0.3-2,0.9
		c-0.4,0.5-0.7,1.3-0.8,2.1H423z"/>
	<path d="M428.7,172.9v1.8h-1.8v-1.8H428.7z M428.7,180v1.8h-1.8V180H428.7z"/>
	<path class="st3" d="M443.9,175.2l-1.1,0.3c-0.3-1.3-1.1-2-2.3-2c-0.9,0-1.6,0.4-2,1.1c-0.4,0.7-0.6,1.6-0.6,2.7
		c0,1.3,0.3,2.3,0.8,3c0.5,0.6,1.1,0.9,1.9,0.9c1.3,0,2.1-0.7,2.4-2l1.1,0.4c-0.6,1.7-1.7,2.6-3.5,2.6c-1.2,0-2.2-0.5-2.9-1.4
		c-0.6-0.8-0.9-1.9-0.9-3.3c0-1.5,0.4-2.7,1.2-3.6c0.7-0.8,1.6-1.1,2.6-1.1c0.9,0,1.6,0.2,2.2,0.7
		C443.3,173.8,443.7,174.4,443.9,175.2z"/>
	<path class="st3" d="M447.7,168.5v6c1-1.2,2.1-1.9,3.3-1.9c0.8,0,1.4,0.3,1.9,0.8c0.4,0.5,0.6,1,0.6,1.8v6.7h-1.1v-6.2
		c0-1.3-0.6-2-1.7-2c-1,0-2,0.6-3,1.9v6.3h-1.1v-13.4H447.7z"/>
	<path class="st3" d="M456.8,174.9c0.5-1.5,1.7-2.3,3.5-2.3c2.1,0,3.2,1,3.2,3v3.2c0,1.2,0.1,2.2,0.2,3.1h-1
		c-0.1-0.3-0.1-0.9-0.2-1.6c-0.8,1.2-1.9,1.8-3.3,1.8c-1,0-1.7-0.3-2.2-0.8c-0.4-0.5-0.6-1.1-0.6-1.8c0-1.6,1-2.6,3-3
		c0.8-0.1,1.8-0.2,3-0.3v-0.5c0-0.9-0.2-1.5-0.6-1.8c-0.3-0.3-0.8-0.4-1.6-0.4c-1.3,0-2.1,0.6-2.5,1.8L456.8,174.9z M462.4,177
		c-0.9,0-1.8,0.1-2.8,0.3c-1.4,0.3-2.2,1-2.2,2.1c0,0.6,0.2,1,0.6,1.4c0.3,0.3,0.8,0.4,1.3,0.4c1.2,0,2.2-0.7,3-2V177z"/>
	<path class="st3" d="M471.2,172.6l-0.1,1.1c-0.6,0-1.2,0.3-1.8,0.8c-0.5,0.5-0.9,1.2-1.1,2v5.3h-1.1v-9h1.1v2.3
		c0.4-0.9,0.8-1.6,1.4-2C470.1,172.8,470.6,172.6,471.2,172.6z"/>
	<path class="st3" d="M480.9,171.8l-0.1,1c-0.5,0-0.9,0.1-1.2,0.2c-0.2,0.1-0.5,0.3-0.7,0.5c0.6,0.5,0.9,1.2,0.9,2.1
		c0,1-0.4,1.7-1.1,2.3c-0.6,0.5-1.3,0.7-2.2,0.7c-0.5,0-1-0.1-1.5-0.3c-0.6,0.3-0.9,0.7-0.9,1.1c0,0.3,0.1,0.5,0.4,0.7
		c0.3,0.1,0.8,0.2,1.5,0.3l1.8,0.2c1.2,0.1,2.1,0.4,2.5,0.8c0.4,0.3,0.5,0.7,0.5,1.3c0,0.8-0.4,1.4-1.2,1.9c-0.8,0.4-1.8,0.6-3,0.6
		c-1.3,0-2.4-0.2-3.1-0.7c-0.6-0.4-0.9-0.9-0.9-1.5c0-0.5,0.2-0.9,0.6-1.2c0.3-0.3,0.7-0.6,1.3-0.7c-0.9-0.2-1.4-0.6-1.4-1.3
		c0-0.6,0.4-1.2,1.2-1.7c-0.8-0.5-1.1-1.3-1.1-2.3c0-0.9,0.4-1.7,1.1-2.3c0.6-0.5,1.3-0.7,2.2-0.7c0.7,0,1.3,0.1,1.7,0.4
		c0.3-0.5,0.7-0.8,1.2-1C479.9,171.8,480.4,171.8,480.9,171.8z M475.5,181.2c-1.2,0.3-1.8,0.9-1.8,1.6c0,0.5,0.3,1,0.9,1.2
		c0.5,0.2,1.2,0.3,2,0.3c1.1,0,1.9-0.2,2.5-0.5c0.5-0.3,0.7-0.6,0.7-1.1c0-0.4-0.2-0.7-0.5-0.9c-0.4-0.2-0.9-0.4-1.8-0.4
		L475.5,181.2z M476.6,173.4c-0.7,0-1.2,0.2-1.6,0.7c-0.4,0.4-0.6,0.9-0.6,1.5c0,0.7,0.2,1.3,0.7,1.7c0.4,0.3,0.9,0.5,1.5,0.5
		c0.7,0,1.2-0.2,1.6-0.6c0.4-0.4,0.6-0.9,0.6-1.5c0-0.7-0.2-1.3-0.7-1.7C477.7,173.6,477.2,173.4,476.6,173.4z"/>
	<path class="st3" d="M484.9,169.2v1.7h-1.7v-1.7H484.9z M484.6,172.9v9h-1.1v-9H484.6z"/>
	<path class="st3" d="M489.3,172.9v1.7c1-1.3,2.1-1.9,3.3-1.9c0.8,0,1.5,0.3,1.9,0.8c0.4,0.5,0.6,1,0.6,1.8v6.7H494v-6.2
		c0-1.3-0.6-2-1.7-2c-1,0-2,0.6-3,1.9v6.3h-1.1v-9H489.3z"/>
	<path class="st3" d="M506,171.8l-0.1,1c-0.5,0-0.9,0.1-1.2,0.2c-0.2,0.1-0.5,0.3-0.7,0.5c0.6,0.5,0.9,1.2,0.9,2.1
		c0,1-0.4,1.7-1.1,2.3c-0.6,0.5-1.3,0.7-2.2,0.7c-0.5,0-1-0.1-1.5-0.3c-0.6,0.3-0.9,0.7-0.9,1.1c0,0.3,0.1,0.5,0.4,0.7
		c0.3,0.1,0.8,0.2,1.5,0.3l1.8,0.2c1.2,0.1,2.1,0.4,2.5,0.8c0.4,0.3,0.5,0.7,0.5,1.3c0,0.8-0.4,1.4-1.2,1.9c-0.8,0.4-1.8,0.6-3,0.6
		c-1.3,0-2.4-0.2-3.1-0.7c-0.6-0.4-0.9-0.9-0.9-1.5c0-0.5,0.2-0.9,0.6-1.2c0.3-0.3,0.7-0.6,1.3-0.7c-0.9-0.2-1.4-0.6-1.4-1.3
		c0-0.6,0.4-1.2,1.2-1.7c-0.8-0.5-1.1-1.3-1.1-2.3c0-0.9,0.4-1.7,1.1-2.3c0.6-0.5,1.3-0.7,2.2-0.7c0.7,0,1.3,0.1,1.7,0.4
		c0.3-0.5,0.7-0.8,1.2-1C504.9,171.8,505.4,171.8,506,171.8z M500.5,181.2c-1.2,0.3-1.8,0.9-1.8,1.6c0,0.5,0.3,1,0.9,1.2
		c0.5,0.2,1.2,0.3,2,0.3c1.1,0,1.9-0.2,2.5-0.5c0.5-0.3,0.7-0.6,0.7-1.1c0-0.4-0.2-0.7-0.5-0.9c-0.4-0.2-0.9-0.4-1.8-0.4
		L500.5,181.2z M501.6,173.4c-0.7,0-1.2,0.2-1.6,0.7c-0.4,0.4-0.6,0.9-0.6,1.5c0,0.7,0.2,1.3,0.7,1.7c0.4,0.3,0.9,0.5,1.5,0.5
		c0.7,0,1.2-0.2,1.6-0.6c0.4-0.4,0.6-0.9,0.6-1.5c0-0.7-0.2-1.3-0.7-1.7C502.7,173.6,502.2,173.4,501.6,173.4z"/>
</g>
<line class="st5" x1="601.5" y1="162.5" x2="636.5" y2="162.5"/>
<path class="st0" d="M599.5,372.5h-274c-6.6,0-12-5.4-12-12v-6c0-6.6,5.4-12,12-12h274c6.6,0,12,5.4,12,12v6
	C611.5,367.1,606.1,372.5,599.5,372.5z"/>
<path class="st0" d="M737.5,379.5h-89c-6.6,0-12-5.4-12-12v-20c0-6.6,5.4-12,12-12h89c6.6,0,12,5.4,12,12v20
	C749.5,374.1,744.1,379.5,737.5,379.5z"/>
<g>
	<path class="st2" d="M662.8,352.5l-1.2,0.4c-0.5-1.6-1.5-2.4-3-2.4c-0.9,0-1.7,0.2-2.2,0.7c-0.5,0.4-0.7,1-0.7,1.6
		c0,0.8,0.2,1.4,0.7,1.8c0.4,0.3,1.1,0.6,2.1,0.9l0.5,0.1c1.6,0.4,2.7,1,3.3,1.6c0.4,0.5,0.7,1.2,0.7,2.2c0,1.2-0.4,2.1-1.3,2.8
		c-0.8,0.6-1.8,0.9-3.1,0.9c-1.2,0-2.3-0.3-3.1-0.9c-0.7-0.6-1.2-1.3-1.5-2.3l1.2-0.4c0.5,1.8,1.6,2.7,3.4,2.7c1.1,0,2-0.3,2.5-0.8
		c0.4-0.4,0.7-1,0.7-1.7c0-0.8-0.2-1.4-0.7-1.8c-0.5-0.4-1.3-0.7-2.4-1l-0.5-0.1c-1.5-0.4-2.5-0.9-3.1-1.5c-0.5-0.5-0.7-1.3-0.7-2.2
		c0-1,0.4-1.8,1.2-2.5c0.7-0.6,1.7-0.9,2.9-0.9C660.7,349.5,662.1,350.5,662.8,352.5z"/>
	<path class="st2" d="M673.2,358.4h-6.5c0,1.3,0.3,2.2,0.9,2.9c0.5,0.6,1.2,0.8,2,0.8c1.3,0,2.1-0.6,2.5-1.9l1,0.4
		c-0.6,1.6-1.8,2.4-3.6,2.4c-1.3,0-2.3-0.5-3-1.4c-0.6-0.8-1-1.9-1-3.3c0-1.5,0.4-2.7,1.2-3.6c0.7-0.8,1.6-1.1,2.6-1.1
		c1.2,0,2.1,0.5,2.8,1.4c0.6,0.8,0.9,1.9,0.9,3.1V358.4z M672,357.6c-0.1-1-0.4-1.8-0.9-2.4c-0.5-0.5-1-0.7-1.7-0.7
		c-0.8,0-1.5,0.3-2,0.9c-0.4,0.5-0.7,1.3-0.8,2.1H672z"/>
	<path class="st2" d="M677.2,353.9v1.7c1-1.3,2.1-1.9,3.3-1.9c0.8,0,1.5,0.3,1.9,0.8c0.4,0.5,0.6,1,0.6,1.8v6.7h-1.1v-6.2
		c0-1.3-0.6-2-1.7-2c-1,0-2,0.6-3,1.9v6.3h-1.1v-9H677.2z"/>
	<path class="st2" d="M692.6,355.8l-1.1,0.4c-0.3-1.1-1.1-1.6-2.2-1.6c-0.7,0-1.2,0.1-1.6,0.4c-0.3,0.3-0.5,0.6-0.5,1
		c0,0.5,0.2,0.9,0.5,1.1c0.3,0.2,0.8,0.4,1.5,0.6l0.7,0.2c1.1,0.3,1.9,0.6,2.3,1c0.4,0.4,0.6,0.9,0.6,1.6c0,0.8-0.3,1.5-1,2
		c-0.6,0.5-1.4,0.7-2.5,0.7c-1.8,0-3-0.7-3.6-2.2l1.1-0.4c0.4,1.1,1.2,1.7,2.5,1.7c0.8,0,1.4-0.2,1.8-0.6c0.3-0.3,0.5-0.7,0.5-1.1
		c0-0.6-0.2-1-0.5-1.2c-0.3-0.2-0.9-0.4-1.7-0.6l-0.7-0.2c-1.1-0.2-1.8-0.6-2.2-1c-0.3-0.4-0.5-0.8-0.5-1.5c0-0.8,0.3-1.4,0.9-1.8
		c0.6-0.4,1.3-0.6,2.2-0.6C690.9,353.6,692,354.3,692.6,355.8z"/>
	<path class="st2" d="M699,353.6c1.2,0,2.2,0.5,2.9,1.4c0.6,0.8,0.9,1.9,0.9,3.3c0,1.5-0.4,2.7-1.2,3.6c-0.7,0.8-1.6,1.1-2.6,1.1
		c-1.2,0-2.2-0.5-2.9-1.4c-0.6-0.8-0.9-1.9-0.9-3.3c0-1.5,0.4-2.7,1.2-3.6C697.1,354,697.9,353.6,699,353.6z M699,354.5
		c-0.9,0-1.6,0.4-2,1.1c-0.4,0.7-0.6,1.5-0.6,2.7c0,1.3,0.3,2.3,0.8,3c0.5,0.6,1.1,0.9,1.9,0.9c0.9,0,1.6-0.4,2-1.1
		c0.4-0.7,0.6-1.6,0.6-2.7c0-1.3-0.3-2.2-0.8-2.9C700.4,354.8,699.8,354.5,699,354.5z"/>
	<path class="st2" d="M709.9,353.6l-0.1,1.1c-0.6,0-1.2,0.3-1.8,0.8c-0.5,0.5-0.9,1.2-1.1,2v5.3h-1.1v-9h1.1v2.3
		c0.4-0.9,0.8-1.6,1.4-2C708.8,353.8,709.4,353.6,709.9,353.6z"/>
	<path class="st2" d="M724.5,349.7l-0.8,3.9h1.8l-0.2,0.9h-1.8l-0.7,3.4h1.8l-0.2,0.9h-1.7l-0.8,3.9H721l0.8-3.9h-2.7l-0.8,3.9h-0.8
		l0.9-3.9h-1.8l0.2-0.9h1.7l0.7-3.4h-1.8l0.2-0.9h1.7l0.8-3.9h0.8l-0.8,3.9h2.8l0.8-3.9H724.5z M722.7,354.6h-2.8l-0.7,3.4h2.8
		L722.7,354.6z"/>
	<path class="st2" d="M727.5,353.1c0.2-1.2,0.7-2.1,1.5-2.7c0.6-0.5,1.4-0.7,2.3-0.7c1.1,0,2,0.3,2.6,1c0.6,0.6,0.9,1.4,0.9,2.3
		c0,0.8-0.2,1.5-0.6,2.1c-0.4,0.6-1.1,1.3-2.1,2.3c-1.7,1.5-2.9,3-3.6,4.4h6.3v1h-7.4V362c0.7-1.8,2-3.5,3.9-5.2
		c1-0.9,1.6-1.6,1.9-2.2c0.3-0.5,0.4-1,0.4-1.5c0-0.8-0.2-1.4-0.7-1.8c-0.4-0.4-0.9-0.5-1.6-0.5c-1.5,0-2.4,0.9-2.7,2.7L727.5,353.1
		z"/>
</g>
<g>
	<path d="M347.8,355.8l-1.1,0.4c-0.3-1.1-1.1-1.6-2.2-1.6c-0.7,0-1.2,0.1-1.6,0.4c-0.3,0.3-0.5,0.6-0.5,1c0,0.5,0.2,0.9,0.5,1.1
		c0.3,0.2,0.8,0.4,1.5,0.6l0.7,0.2c1.1,0.3,1.9,0.6,2.3,1c0.4,0.4,0.6,0.9,0.6,1.6c0,0.8-0.3,1.5-1,2c-0.6,0.5-1.4,0.7-2.5,0.7
		c-1.8,0-3-0.7-3.6-2.2l1.1-0.4c0.4,1.1,1.2,1.7,2.5,1.7c0.8,0,1.4-0.2,1.8-0.6c0.3-0.3,0.5-0.7,0.5-1.1c0-0.6-0.2-1-0.5-1.2
		c-0.3-0.2-0.9-0.4-1.7-0.6l-0.7-0.2c-1.1-0.2-1.8-0.6-2.2-1c-0.3-0.4-0.5-0.8-0.5-1.5c0-0.8,0.3-1.4,0.9-1.8
		c0.6-0.4,1.3-0.6,2.2-0.6C346.1,353.6,347.2,354.3,347.8,355.8z"/>
	<path d="M358,358.4h-6.5c0,1.3,0.3,2.2,0.9,2.9c0.5,0.6,1.2,0.8,2,0.8c1.3,0,2.1-0.6,2.5-1.9l1,0.4c-0.6,1.6-1.8,2.4-3.6,2.4
		c-1.3,0-2.3-0.5-3-1.4c-0.6-0.8-1-1.9-1-3.3c0-1.5,0.4-2.7,1.2-3.6c0.7-0.8,1.6-1.1,2.6-1.1c1.2,0,2.1,0.5,2.8,1.4
		c0.6,0.8,0.9,1.9,0.9,3.1V358.4z M356.9,357.6c-0.1-1-0.4-1.8-0.9-2.4c-0.5-0.5-1-0.7-1.7-0.7c-0.8,0-1.5,0.3-2,0.9
		c-0.4,0.5-0.7,1.3-0.8,2.1H356.9z"/>
	<path d="M365.1,353.6l-0.1,1.1c-0.6,0-1.2,0.3-1.8,0.8c-0.5,0.5-0.9,1.2-1.1,2v5.3H361v-9h1.1v2.3c0.4-0.9,0.8-1.6,1.4-2
		C364,353.8,364.5,353.6,365.1,353.6z"/>
	<path d="M373.9,353.9l-3,9h-1.4l-3-9h1.2l1.7,5.5c0.1,0.3,0.3,1.2,0.7,2.6h0.2c0.4-1.4,0.6-2.3,0.8-2.7l1.7-5.4H373.9z"/>
	<path d="M377.7,350.2v1.7h-1.7v-1.7H377.7z M377.5,353.9v9h-1.1v-9H377.5z"/>
	<path d="M387.7,356.2l-1.1,0.3c-0.3-1.3-1.1-2-2.3-2c-0.9,0-1.6,0.4-2,1.1c-0.4,0.7-0.6,1.6-0.6,2.7c0,1.3,0.3,2.3,0.8,3
		c0.5,0.6,1.1,0.9,1.9,0.9c1.3,0,2.1-0.7,2.4-2l1.1,0.4c-0.6,1.7-1.7,2.6-3.5,2.6c-1.2,0-2.2-0.5-2.9-1.4c-0.6-0.8-0.9-1.9-0.9-3.3
		c0-1.5,0.4-2.7,1.2-3.6c0.7-0.8,1.6-1.1,2.6-1.1c0.9,0,1.6,0.2,2.2,0.7C387,354.8,387.4,355.4,387.7,356.2z"/>
	<path d="M397.4,358.4h-6.5c0,1.3,0.3,2.2,0.9,2.9c0.5,0.6,1.2,0.8,2,0.8c1.3,0,2.1-0.6,2.5-1.9l1,0.4c-0.6,1.6-1.8,2.4-3.6,2.4
		c-1.3,0-2.3-0.5-3-1.4c-0.6-0.8-1-1.9-1-3.3c0-1.5,0.4-2.7,1.2-3.6c0.7-0.8,1.6-1.1,2.6-1.1c1.2,0,2.1,0.5,2.8,1.4
		c0.6,0.8,0.9,1.9,0.9,3.1V358.4z M396.3,357.6c-0.1-1-0.4-1.8-0.9-2.4c-0.5-0.5-1-0.7-1.7-0.7c-0.8,0-1.5,0.3-2,0.9
		c-0.4,0.5-0.7,1.3-0.8,2.1H396.3z"/>
	<path d="M401.8,349.7v13.1h-1.2v-13.1H401.8z"/>
	<path d="M412.5,349.5v13.4h-1.1v-1.4c-0.7,1.1-1.6,1.6-2.7,1.6c-1.1,0-2-0.5-2.7-1.4c-0.6-0.9-0.9-2-0.9-3.3c0-1.5,0.4-2.7,1.2-3.6
		c0.6-0.7,1.4-1.1,2.4-1.1c1.1,0,2,0.5,2.7,1.6v-5.7H412.5z M411.4,356.4c-0.6-1.2-1.5-1.8-2.6-1.8c-0.8,0-1.5,0.4-2,1.1
		c-0.4,0.7-0.6,1.5-0.6,2.6c0,1.3,0.3,2.2,0.9,2.9c0.5,0.6,1.1,0.9,1.8,0.9c1,0,1.8-0.6,2.5-1.7V356.4z"/>
	<path d="M417.7,353.9v1.8h-1.8v-1.8H417.7z M417.7,361v1.8h-1.8V361H417.7z"/>
	<path d="M432.3,355.8l-1.1,0.4c-0.3-1.1-1.1-1.6-2.2-1.6c-0.7,0-1.2,0.1-1.6,0.4c-0.3,0.3-0.5,0.6-0.5,1c0,0.5,0.2,0.9,0.5,1.1
		c0.3,0.2,0.8,0.4,1.5,0.6l0.7,0.2c1.1,0.3,1.9,0.6,2.3,1c0.4,0.4,0.6,0.9,0.6,1.6c0,0.8-0.3,1.5-1,2c-0.6,0.5-1.4,0.7-2.5,0.7
		c-1.8,0-3-0.7-3.6-2.2l1.1-0.4c0.4,1.1,1.2,1.7,2.5,1.7c0.8,0,1.4-0.2,1.8-0.6c0.3-0.3,0.5-0.7,0.5-1.1c0-0.6-0.2-1-0.5-1.2
		c-0.3-0.2-0.9-0.4-1.7-0.6l-0.7-0.2c-1.1-0.2-1.8-0.6-2.2-1c-0.3-0.4-0.5-0.8-0.5-1.5c0-0.8,0.3-1.4,0.9-1.8
		c0.6-0.4,1.3-0.6,2.2-0.6C430.6,353.6,431.7,354.3,432.3,355.8z"/>
	<path d="M436.5,353.9v1.7c0.9-1.3,2-1.9,3-1.9c0.7,0,1.2,0.2,1.7,0.6c0.4,0.3,0.6,0.8,0.7,1.3c0.9-1.2,1.9-1.9,3.1-1.9
		c0.8,0,1.4,0.3,1.9,0.8c0.4,0.5,0.6,1,0.6,1.8v6.7h-1.1v-6.2c0-1.3-0.5-2-1.6-2c-0.5,0-1,0.2-1.5,0.6c-0.4,0.3-0.8,0.8-1.2,1.3v6.3
		h-1.1v-6.2c0-1.3-0.5-2-1.6-2c-0.5,0-1,0.2-1.5,0.6c-0.5,0.3-0.9,0.8-1.2,1.3v6.3h-1.1v-9H436.5z"/>
	<path d="M450.7,355.9c0.5-1.5,1.7-2.3,3.5-2.3c2.1,0,3.2,1,3.2,3v3.2c0,1.2,0.1,2.2,0.2,3.1h-1c-0.1-0.3-0.1-0.9-0.2-1.6
		c-0.8,1.2-1.9,1.8-3.3,1.8c-1,0-1.7-0.3-2.2-0.8c-0.4-0.5-0.6-1.1-0.6-1.8c0-1.6,1-2.6,3-3c0.8-0.1,1.8-0.2,3-0.3v-0.5
		c0-0.9-0.2-1.5-0.6-1.8c-0.3-0.3-0.8-0.4-1.6-0.4c-1.3,0-2.1,0.6-2.5,1.8L450.7,355.9z M456.4,358c-0.9,0-1.8,0.1-2.8,0.3
		c-1.4,0.3-2.2,1-2.2,2.1c0,0.6,0.2,1,0.6,1.4c0.3,0.3,0.8,0.4,1.3,0.4c1.2,0,2.2-0.7,3-2V358z"/>
	<path d="M465.1,353.6l-0.1,1.1c-0.6,0-1.2,0.3-1.8,0.8c-0.5,0.5-0.9,1.2-1.1,2v5.3H461v-9h1.1v2.3c0.4-0.9,0.8-1.6,1.4-2
		C464,353.8,464.5,353.6,465.1,353.6z"/>
	<path d="M469.1,350.6v3.2h2.3v0.9h-2.3v5.9c0,1.1,0.4,1.6,1.3,1.6c0.4,0,0.8,0,1.2-0.1l-0.1,0.9c-0.4,0.1-0.8,0.1-1.3,0.1
		c-1.5,0-2.3-0.8-2.3-2.3v-6.1h-1.5v-0.9h1.5v-3L469.1,350.6z"/>
	<path d="M478.5,357.3v1h-4.9v-1H478.5z"/>
	<path d="M487.7,355.8l-1.1,0.4c-0.3-1.1-1.1-1.6-2.2-1.6c-0.7,0-1.2,0.1-1.6,0.4c-0.3,0.3-0.5,0.6-0.5,1c0,0.5,0.2,0.9,0.5,1.1
		c0.3,0.2,0.8,0.4,1.5,0.6l0.7,0.2c1.1,0.3,1.9,0.6,2.3,1c0.4,0.4,0.6,0.9,0.6,1.6c0,0.8-0.3,1.5-1,2c-0.6,0.5-1.4,0.7-2.5,0.7
		c-1.8,0-3-0.7-3.6-2.2l1.1-0.4c0.4,1.1,1.2,1.7,2.5,1.7c0.8,0,1.4-0.2,1.8-0.6c0.3-0.3,0.5-0.7,0.5-1.1c0-0.6-0.2-1-0.5-1.2
		c-0.3-0.2-0.9-0.4-1.7-0.6l-0.7-0.2c-1.1-0.2-1.8-0.6-2.2-1c-0.3-0.4-0.5-0.8-0.5-1.5c0-0.8,0.3-1.4,0.9-1.8
		c0.6-0.4,1.3-0.6,2.2-0.6C486.1,353.6,487.1,354.3,487.7,355.8z"/>
	<path d="M497.9,358.4h-6.5c0,1.3,0.3,2.2,0.9,2.9c0.5,0.6,1.2,0.8,2,0.8c1.3,0,2.1-0.6,2.5-1.9l1,0.4c-0.6,1.6-1.8,2.4-3.6,2.4
		c-1.3,0-2.3-0.5-3-1.4c-0.6-0.8-1-1.9-1-3.3c0-1.5,0.4-2.7,1.2-3.6c0.7-0.8,1.6-1.1,2.6-1.1c1.2,0,2.1,0.5,2.8,1.4
		c0.6,0.8,0.9,1.9,0.9,3.1V358.4z M496.8,357.6c-0.1-1-0.4-1.8-0.9-2.4c-0.5-0.5-1-0.7-1.7-0.7c-0.8,0-1.5,0.3-2,0.9
		c-0.4,0.5-0.7,1.3-0.8,2.1H496.8z"/>
	<path d="M502,353.9v1.7c1-1.3,2.1-1.9,3.3-1.9c0.8,0,1.5,0.3,1.9,0.8c0.4,0.5,0.6,1,0.6,1.8v6.7h-1.1v-6.2c0-1.3-0.6-2-1.7-2
		c-1,0-2,0.6-3,1.9v6.3h-1.1v-9H502z"/>
	<path d="M517.3,355.8l-1.1,0.4c-0.3-1.1-1.1-1.6-2.2-1.6c-0.7,0-1.2,0.1-1.6,0.4c-0.3,0.3-0.5,0.6-0.5,1c0,0.5,0.2,0.9,0.5,1.1
		c0.3,0.2,0.8,0.4,1.5,0.6l0.7,0.2c1.1,0.3,1.9,0.6,2.3,1c0.4,0.4,0.6,0.9,0.6,1.6c0,0.8-0.3,1.5-1,2c-0.6,0.5-1.4,0.7-2.5,0.7
		c-1.8,0-3-0.7-3.6-2.2l1.1-0.4c0.4,1.1,1.2,1.7,2.5,1.7c0.8,0,1.4-0.2,1.8-0.6c0.3-0.3,0.5-0.7,0.5-1.1c0-0.6-0.2-1-0.5-1.2
		c-0.3-0.2-0.9-0.4-1.7-0.6l-0.7-0.2c-1.1-0.2-1.8-0.6-2.2-1c-0.3-0.4-0.5-0.8-0.5-1.5c0-0.8,0.3-1.4,0.9-1.8
		c0.6-0.4,1.3-0.6,2.2-0.6C515.7,353.6,516.8,354.3,517.3,355.8z"/>
	<path d="M523.8,353.6c1.2,0,2.2,0.5,2.9,1.4c0.6,0.8,0.9,1.9,0.9,3.3c0,1.5-0.4,2.7-1.2,3.6c-0.7,0.8-1.6,1.1-2.6,1.1
		c-1.2,0-2.2-0.5-2.9-1.4c-0.6-0.8-0.9-1.9-0.9-3.3c0-1.5,0.4-2.7,1.2-3.6C521.9,354,522.7,353.6,523.8,353.6z M523.8,354.5
		c-0.9,0-1.6,0.4-2,1.1c-0.4,0.7-0.6,1.5-0.6,2.7c0,1.3,0.3,2.3,0.8,3c0.5,0.6,1.1,0.9,1.9,0.9c0.9,0,1.6-0.4,2-1.1
		c0.4-0.7,0.6-1.6,0.6-2.7c0-1.3-0.3-2.2-0.8-2.9C525.2,354.8,524.6,354.5,523.8,354.5z"/>
	<path d="M534.7,353.6l-0.1,1.1c-0.6,0-1.2,0.3-1.8,0.8c-0.5,0.5-0.9,1.2-1.1,2v5.3h-1.1v-9h1.1v2.3c0.4-0.9,0.8-1.6,1.4-2
		C533.6,353.8,534.1,353.6,534.7,353.6z"/>
	<path d="M541.8,357.3v1h-4.9v-1H541.8z"/>
	<path d="M544.5,353.1c0.2-1.2,0.7-2.1,1.5-2.7c0.6-0.5,1.4-0.7,2.3-0.7c1.1,0,2,0.3,2.6,1c0.6,0.6,0.9,1.4,0.9,2.3
		c0,0.8-0.2,1.5-0.6,2.1c-0.4,0.6-1.1,1.3-2.1,2.3c-1.7,1.5-2.9,3-3.6,4.4h6.3v1h-7.4V362c0.7-1.8,2-3.5,3.9-5.2
		c1-0.9,1.6-1.6,1.9-2.2c0.3-0.5,0.4-1,0.4-1.5c0-0.8-0.2-1.4-0.7-1.8c-0.4-0.4-0.9-0.5-1.6-0.5c-1.5,0-2.4,0.9-2.7,2.7L544.5,353.1
		z"/>
</g>
<path class="st0" d="M589.5,326.5h-254c-6.6,0-12-5.4-12-12v-51c0-6.6,5.4-12,12-12h254c6.6,0,12,5.4,12,12v51
	C601.5,321.1,596.1,326.5,589.5,326.5z"/>
<g>
	<path d="M347.9,262.9v1.4c0.7-1.1,1.6-1.7,2.8-1.7c1.1,0,2,0.5,2.7,1.4c0.6,0.8,0.9,1.9,0.9,3.3c0,1.5-0.4,2.8-1.2,3.6
		c-0.7,0.7-1.5,1.1-2.5,1.1c-1.1,0-2-0.5-2.6-1.6v4.7h-1.1v-12.3H347.9z M347.9,265.4v4c0.7,1.2,1.5,1.7,2.5,1.7
		c0.8,0,1.5-0.4,2-1.1c0.5-0.7,0.7-1.6,0.7-2.7c0-1.3-0.3-2.2-0.8-2.9c-0.5-0.6-1-0.8-1.7-0.8C349.4,263.6,348.6,264.2,347.9,265.4z
		"/>
	<path d="M361.3,262.6l-0.1,1.1c-0.6,0-1.2,0.3-1.8,0.8c-0.5,0.5-0.9,1.2-1.1,2v5.3h-1.1v-9h1.1v2.3c0.4-0.9,0.8-1.6,1.4-2
		C360.2,262.8,360.8,262.6,361.3,262.6z"/>
	<path d="M367,262.6c1.2,0,2.2,0.5,2.9,1.4c0.6,0.8,0.9,1.9,0.9,3.3c0,1.5-0.4,2.7-1.2,3.6c-0.7,0.8-1.6,1.1-2.6,1.1
		c-1.2,0-2.2-0.5-2.9-1.4c-0.6-0.8-0.9-1.9-0.9-3.3c0-1.5,0.4-2.7,1.2-3.6C365.1,263,366,262.6,367,262.6z M367,263.5
		c-0.9,0-1.6,0.4-2,1.1c-0.4,0.7-0.6,1.5-0.6,2.7c0,1.3,0.3,2.3,0.8,3c0.5,0.6,1.1,0.9,1.9,0.9c0.9,0,1.6-0.4,2-1.1
		c0.4-0.7,0.6-1.6,0.6-2.7c0-1.3-0.3-2.2-0.8-2.9C368.4,263.8,367.8,263.5,367,263.5z"/>
	<path d="M378,258.6l-0.2,0.9c-0.3-0.1-0.5-0.1-0.8-0.1c-0.5,0-0.9,0.1-1.1,0.4c-0.2,0.2-0.3,0.6-0.3,1.1v1.9h2.1v0.9h-2.1v8.1h-1.1
		v-8.1h-1.8v-0.9h1.8v-2c0-1.6,0.8-2.4,2.4-2.4C377.2,258.5,377.6,258.5,378,258.6z M381.4,259.4v1.7h-1.7v-1.7H381.4z M381.1,262.9
		v9H380v-9H381.1z"/>
	<path d="M385.9,258.5v13.4h-1.1v-13.4H385.9z"/>
	<path d="M396.6,267.4h-6.5c0,1.3,0.3,2.2,0.9,2.9c0.5,0.6,1.2,0.8,2,0.8c1.3,0,2.1-0.6,2.5-1.9l1,0.4c-0.6,1.6-1.8,2.4-3.6,2.4
		c-1.3,0-2.3-0.5-3-1.4c-0.6-0.8-1-1.9-1-3.3c0-1.5,0.4-2.7,1.2-3.6c0.7-0.8,1.6-1.1,2.6-1.1c1.2,0,2.1,0.5,2.8,1.4
		c0.6,0.8,0.9,1.9,0.9,3.1V267.4z M395.5,266.6c-0.1-1-0.4-1.8-0.9-2.4c-0.5-0.5-1-0.7-1.7-0.7c-0.8,0-1.5,0.3-2,0.9
		c-0.4,0.5-0.7,1.3-0.8,2.1H395.5z"/>
	<path d="M401.2,262.9v1.8h-1.8v-1.8H401.2z M401.2,270v1.8h-1.8V270H401.2z"/>
	<path d="M411.4,259.6v3.2h2.3v0.9h-2.3v5.9c0,1.1,0.4,1.6,1.3,1.6c0.4,0,0.8,0,1.2-0.1l-0.1,0.9c-0.4,0.1-0.8,0.1-1.3,0.1
		c-1.5,0-2.3-0.8-2.3-2.3v-6.1h-1.5v-0.9h1.5v-3L411.4,259.6z"/>
	<path d="M423.2,267.4h-6.5c0,1.3,0.3,2.2,0.9,2.9c0.5,0.6,1.2,0.8,2,0.8c1.3,0,2.1-0.6,2.5-1.9l1,0.4c-0.6,1.6-1.8,2.4-3.6,2.4
		c-1.3,0-2.3-0.5-3-1.4c-0.6-0.8-1-1.9-1-3.3c0-1.5,0.4-2.7,1.2-3.6c0.7-0.8,1.6-1.1,2.6-1.1c1.2,0,2.1,0.5,2.8,1.4
		c0.6,0.8,0.9,1.9,0.9,3.1V267.4z M422.1,266.6c-0.1-1-0.4-1.8-0.9-2.4c-0.5-0.5-1-0.7-1.7-0.7c-0.8,0-1.5,0.3-2,0.9
		c-0.4,0.5-0.7,1.3-0.8,2.1H422.1z"/>
	<path d="M427.3,262.9v1.7c0.9-1.3,2-1.9,3-1.9c0.7,0,1.2,0.2,1.7,0.6c0.4,0.3,0.6,0.8,0.7,1.3c0.9-1.2,1.9-1.9,3.1-1.9
		c0.8,0,1.4,0.3,1.9,0.8c0.4,0.5,0.6,1,0.6,1.8v6.7H437v-6.2c0-1.3-0.5-2-1.6-2c-0.5,0-1,0.2-1.5,0.6c-0.4,0.3-0.8,0.8-1.2,1.3v6.3
		h-1.1v-6.2c0-1.3-0.5-2-1.6-2c-0.5,0-1,0.2-1.5,0.6c-0.5,0.3-0.9,0.8-1.2,1.3v6.3h-1.1v-9H427.3z"/>
	<path d="M442.8,262.9v1.4c0.7-1.1,1.6-1.7,2.8-1.7c1.1,0,2,0.5,2.7,1.4c0.6,0.8,0.9,1.9,0.9,3.3c0,1.5-0.4,2.8-1.2,3.6
		c-0.7,0.7-1.5,1.1-2.5,1.1c-1.1,0-2-0.5-2.6-1.6v4.7h-1.1v-12.3H442.8z M442.8,265.4v4c0.7,1.2,1.5,1.7,2.5,1.7
		c0.8,0,1.5-0.4,2-1.1c0.5-0.7,0.7-1.6,0.7-2.7c0-1.3-0.3-2.2-0.8-2.9c-0.5-0.6-1-0.8-1.7-0.8C444.3,263.6,443.5,264.2,442.8,265.4z
		"/>
	<path d="M459.2,267.4h-6.5c0,1.3,0.3,2.2,0.9,2.9c0.5,0.6,1.2,0.8,2,0.8c1.3,0,2.1-0.6,2.5-1.9l1,0.4c-0.6,1.6-1.8,2.4-3.6,2.4
		c-1.3,0-2.3-0.5-3-1.4c-0.6-0.8-1-1.9-1-3.3c0-1.5,0.4-2.7,1.2-3.6c0.7-0.8,1.6-1.1,2.6-1.1c1.2,0,2.1,0.5,2.8,1.4
		c0.6,0.8,0.9,1.9,0.9,3.1V267.4z M458.1,266.6c-0.1-1-0.4-1.8-0.9-2.4c-0.5-0.5-1-0.7-1.7-0.7c-0.8,0-1.5,0.3-2,0.9
		c-0.4,0.5-0.7,1.3-0.8,2.1H458.1z"/>
	<path d="M466.3,262.6l-0.1,1.1c-0.6,0-1.2,0.3-1.8,0.8c-0.5,0.5-0.9,1.2-1.1,2v5.3h-1.1v-9h1.1v2.3c0.4-0.9,0.8-1.6,1.4-2
		C465.2,262.8,465.7,262.6,466.3,262.6z"/>
	<path d="M468.5,264.9c0.5-1.5,1.7-2.3,3.5-2.3c2.1,0,3.2,1,3.2,3v3.2c0,1.2,0.1,2.2,0.2,3.1h-1c-0.1-0.3-0.1-0.9-0.2-1.6
		c-0.8,1.2-1.9,1.8-3.3,1.8c-1,0-1.7-0.3-2.2-0.8c-0.4-0.5-0.6-1.1-0.6-1.8c0-1.6,1-2.6,3-3c0.8-0.1,1.8-0.2,3-0.3v-0.5
		c0-0.9-0.2-1.5-0.6-1.8c-0.3-0.3-0.8-0.4-1.6-0.4c-1.3,0-2.1,0.6-2.5,1.8L468.5,264.9z M474.1,267c-0.9,0-1.8,0.1-2.8,0.3
		c-1.4,0.3-2.2,1-2.2,2.1c0,0.6,0.2,1,0.6,1.4c0.3,0.3,0.8,0.4,1.3,0.4c1.2,0,2.2-0.7,3-2V267z"/>
	<path d="M480.4,259.6v3.2h2.3v0.9h-2.3v5.9c0,1.1,0.4,1.6,1.3,1.6c0.4,0,0.8,0,1.2-0.1l-0.1,0.9c-0.4,0.1-0.8,0.1-1.3,0.1
		c-1.5,0-2.3-0.8-2.3-2.3v-6.1h-1.5v-0.9h1.5v-3L480.4,259.6z"/>
	<path d="M492,262.9v9h-1.1v-1.7c-0.4,0.6-0.9,1.1-1.6,1.5c-0.6,0.3-1.1,0.5-1.7,0.5c-0.8,0-1.4-0.2-1.9-0.7c-0.4-0.4-0.7-1-0.7-1.8
		v-6.7h1.1v6.4c0,1.2,0.6,1.9,1.7,1.9c0.6,0,1.1-0.2,1.7-0.6c0.5-0.4,0.9-0.8,1.2-1.3v-6.3H492z"/>
	<path d="M499.7,262.6l-0.1,1.1c-0.6,0-1.2,0.3-1.8,0.8c-0.5,0.5-0.9,1.2-1.1,2v5.3h-1.1v-9h1.1v2.3c0.4-0.9,0.8-1.6,1.4-2
		C498.6,262.8,499.1,262.6,499.7,262.6z"/>
	<path d="M509.2,267.4h-6.5c0,1.3,0.3,2.2,0.9,2.9c0.5,0.6,1.2,0.8,2,0.8c1.3,0,2.1-0.6,2.5-1.9l1,0.4c-0.6,1.6-1.8,2.4-3.6,2.4
		c-1.3,0-2.3-0.5-3-1.4c-0.6-0.8-1-1.9-1-3.3c0-1.5,0.4-2.7,1.2-3.6c0.7-0.8,1.6-1.1,2.6-1.1c1.2,0,2.1,0.5,2.8,1.4
		c0.6,0.8,0.9,1.9,0.9,3.1V267.4z M508.1,266.6c-0.1-1-0.4-1.8-0.9-2.4c-0.5-0.5-1-0.7-1.7-0.7c-0.8,0-1.5,0.3-2,0.9
		c-0.4,0.5-0.7,1.3-0.8,2.1H508.1z"/>
</g>
<path class="st0" d="M580.5,317.5h-225c-6.6,0-12-5.4-12-12v-10c0-6.6,5.4-12,12-12h225c6.6,0,12,5.4,12,12v10
	C592.5,312.1,587.1,317.5,580.5,317.5z"/>
<g>
	<path d="M355.5,298.9c0.5-1.5,1.7-2.3,3.5-2.3c2.1,0,3.2,1,3.2,3v3.2c0,1.2,0.1,2.2,0.2,3.1h-1c-0.1-0.3-0.1-0.9-0.2-1.6
		c-0.8,1.2-1.9,1.8-3.3,1.8c-1,0-1.7-0.3-2.2-0.8c-0.4-0.5-0.6-1.1-0.6-1.8c0-1.6,1-2.6,3-3c0.8-0.1,1.8-0.2,3-0.3v-0.5
		c0-0.9-0.2-1.5-0.6-1.8c-0.3-0.3-0.8-0.4-1.6-0.4c-1.3,0-2.1,0.6-2.5,1.8L355.5,298.9z M361.2,301c-0.9,0-1.8,0.1-2.8,0.3
		c-1.4,0.3-2.2,1-2.2,2.1c0,0.6,0.2,1,0.6,1.4c0.3,0.3,0.8,0.4,1.3,0.4c1.2,0,2.2-0.7,3-2V301z"/>
	<path d="M367.4,293.6v3.2h2.3v0.9h-2.3v5.9c0,1.1,0.4,1.6,1.3,1.6c0.4,0,0.8,0,1.2-0.1l-0.1,0.9c-0.4,0.1-0.8,0.1-1.3,0.1
		c-1.5,0-2.3-0.8-2.3-2.3v-6.1h-1.5v-0.9h1.5v-3L367.4,293.6z"/>
	<path d="M373.7,293.6v3.2h2.3v0.9h-2.3v5.9c0,1.1,0.4,1.6,1.3,1.6c0.4,0,0.8,0,1.2-0.1l-0.1,0.9c-0.4,0.1-0.8,0.1-1.3,0.1
		c-1.5,0-2.3-0.8-2.3-2.3v-6.1h-1.5v-0.9h1.5v-3L373.7,293.6z"/>
	<path d="M382.6,296.6l-0.1,1.1c-0.6,0-1.2,0.3-1.8,0.8c-0.5,0.5-0.9,1.2-1.1,2v5.3h-1.1v-9h1.1v2.3c0.4-0.9,0.8-1.6,1.4-2
		C381.5,296.8,382,296.6,382.6,296.6z"/>
	<path d="M386.4,293.2v1.7h-1.7v-1.7H386.4z M386.2,296.9v9h-1.1v-9H386.2z"/>
	<path d="M390.9,292.5v5.8c0.7-1.1,1.6-1.6,2.8-1.6s2,0.5,2.7,1.4c0.6,0.8,0.9,1.9,0.9,3.3c0,1.5-0.4,2.8-1.2,3.6
		c-0.7,0.7-1.5,1.1-2.5,1.1c-1.1,0-2-0.6-2.7-1.7l-0.2,1.5h-0.8v-13.4H390.9z M390.9,299.4v4c0.7,1.2,1.5,1.7,2.5,1.7
		c0.8,0,1.5-0.4,2-1.1c0.5-0.7,0.7-1.6,0.7-2.7c0-1.3-0.3-2.2-0.8-2.9c-0.5-0.6-1-0.8-1.7-0.8C392.4,297.6,391.6,298.2,390.9,299.4z
		"/>
	<path d="M407.1,296.9v9H406v-1.7c-0.4,0.6-0.9,1.1-1.6,1.5c-0.6,0.3-1.1,0.5-1.7,0.5c-0.8,0-1.4-0.2-1.9-0.7
		c-0.4-0.4-0.7-1-0.7-1.8v-6.7h1.1v6.4c0,1.2,0.6,1.9,1.7,1.9c0.6,0,1.1-0.2,1.7-0.6c0.5-0.4,0.9-0.8,1.2-1.3v-6.3H407.1z"/>
	<path d="M412.3,293.6v3.2h2.3v0.9h-2.3v5.9c0,1.1,0.4,1.6,1.3,1.6c0.4,0,0.8,0,1.2-0.1l-0.1,0.9c-0.4,0.1-0.8,0.1-1.3,0.1
		c-1.5,0-2.3-0.8-2.3-2.3v-6.1h-1.5v-0.9h1.5v-3L412.3,293.6z"/>
	<path d="M424.1,301.4h-6.5c0,1.3,0.3,2.2,0.9,2.9c0.5,0.6,1.2,0.8,2,0.8c1.3,0,2.1-0.6,2.5-1.9l1,0.4c-0.6,1.6-1.8,2.4-3.6,2.4
		c-1.3,0-2.3-0.5-3-1.4c-0.6-0.8-1-1.9-1-3.3c0-1.5,0.4-2.7,1.2-3.6c0.7-0.8,1.6-1.1,2.6-1.1c1.2,0,2.1,0.5,2.8,1.4
		c0.6,0.8,0.9,1.9,0.9,3.1V301.4z M423,300.6c-0.1-1-0.4-1.8-0.9-2.4c-0.5-0.5-1-0.7-1.7-0.7c-0.8,0-1.5,0.3-2,0.9
		c-0.4,0.5-0.7,1.3-0.8,2.1H423z"/>
	<path d="M428.7,296.9v1.8h-1.8v-1.8H428.7z M428.7,304v1.8h-1.8V304H428.7z"/>
	<path d="M441.8,291.1c-1.2,1.5-2,2.9-2.5,4.3c-0.4,1.2-0.6,2.6-0.6,4.1c0,1.7,0.3,3.2,0.8,4.6c0.5,1.2,1.3,2.5,2.3,3.8l-0.5,0.4
		c-1.4-1.4-2.3-2.9-2.9-4.3c-0.5-1.3-0.8-2.8-0.8-4.4c0-1.8,0.3-3.5,1-5c0.6-1.2,1.5-2.5,2.7-3.7L441.8,291.1z"/>
	<path d="M445.8,293.6v3.2h2.3v0.9h-2.3v5.9c0,1.1,0.4,1.6,1.3,1.6c0.4,0,0.8,0,1.2-0.1l-0.1,0.9c-0.4,0.1-0.8,0.1-1.3,0.1
		c-1.5,0-2.3-0.8-2.3-2.3v-6.1h-1.5v-0.9h1.5v-3L445.8,293.6z"/>
	<path d="M457.7,301.4h-6.5c0,1.3,0.3,2.2,0.9,2.9c0.5,0.6,1.2,0.8,2,0.8c1.3,0,2.1-0.6,2.5-1.9l1,0.4c-0.6,1.6-1.8,2.4-3.6,2.4
		c-1.3,0-2.3-0.5-3-1.4c-0.6-0.8-1-1.9-1-3.3c0-1.5,0.4-2.7,1.2-3.6c0.7-0.8,1.6-1.1,2.6-1.1c1.2,0,2.1,0.5,2.8,1.4
		c0.6,0.8,0.9,1.9,0.9,3.1V301.4z M456.5,300.6c-0.1-1-0.4-1.8-0.9-2.4c-0.5-0.5-1-0.7-1.7-0.7c-0.8,0-1.5,0.3-2,0.9
		c-0.4,0.5-0.7,1.3-0.8,2.1H456.5z"/>
	<path d="M461.7,296.9v1.7c0.9-1.3,2-1.9,3-1.9c0.7,0,1.2,0.2,1.7,0.6c0.4,0.3,0.6,0.8,0.7,1.3c0.9-1.2,1.9-1.9,3.1-1.9
		c0.8,0,1.4,0.3,1.9,0.8c0.4,0.5,0.6,1,0.6,1.8v6.7h-1.1v-6.2c0-1.3-0.5-2-1.6-2c-0.5,0-1,0.2-1.5,0.6c-0.4,0.3-0.8,0.8-1.2,1.3v6.3
		h-1.1v-6.2c0-1.3-0.5-2-1.6-2c-0.5,0-1,0.2-1.5,0.6c-0.5,0.3-0.9,0.8-1.2,1.3v6.3h-1.1v-9H461.7z"/>
	<path d="M477.2,296.9v1.4c0.7-1.1,1.6-1.7,2.8-1.7c1.1,0,2,0.5,2.7,1.4c0.6,0.8,0.9,1.9,0.9,3.3c0,1.5-0.4,2.8-1.2,3.6
		c-0.7,0.7-1.5,1.1-2.5,1.1c-1.1,0-2-0.5-2.6-1.6v4.7h-1.1v-12.3H477.2z M477.3,299.4v4c0.7,1.2,1.5,1.7,2.5,1.7
		c0.8,0,1.5-0.4,2-1.1c0.5-0.7,0.7-1.6,0.7-2.7c0-1.3-0.3-2.2-0.8-2.9c-0.5-0.6-1-0.8-1.7-0.8C478.8,297.6,477.9,298.2,477.3,299.4z
		"/>
	<path d="M493.6,301.4h-6.5c0,1.3,0.3,2.2,0.9,2.9c0.5,0.6,1.2,0.8,2,0.8c1.3,0,2.1-0.6,2.5-1.9l1,0.4c-0.6,1.6-1.8,2.4-3.6,2.4
		c-1.3,0-2.3-0.5-3-1.4c-0.6-0.8-1-1.9-1-3.3c0-1.5,0.4-2.7,1.2-3.6c0.7-0.8,1.6-1.1,2.6-1.1c1.2,0,2.1,0.5,2.8,1.4
		c0.6,0.8,0.9,1.9,0.9,3.1V301.4z M492.5,300.6c-0.1-1-0.4-1.8-0.9-2.4c-0.5-0.5-1-0.7-1.7-0.7c-0.8,0-1.5,0.3-2,0.9
		c-0.4,0.5-0.7,1.3-0.8,2.1H492.5z"/>
	<path d="M500.7,296.6l-0.1,1.1c-0.6,0-1.2,0.3-1.8,0.8c-0.5,0.5-0.9,1.2-1.1,2v5.3h-1.1v-9h1.1v2.3c0.4-0.9,0.8-1.6,1.4-2
		C499.6,296.8,500.2,296.6,500.7,296.6z"/>
	<path d="M502.9,298.9c0.5-1.5,1.7-2.3,3.5-2.3c2.1,0,3.2,1,3.2,3v3.2c0,1.2,0.1,2.2,0.2,3.1h-1c-0.1-0.3-0.1-0.9-0.2-1.6
		c-0.8,1.2-1.9,1.8-3.3,1.8c-1,0-1.7-0.3-2.2-0.8c-0.4-0.5-0.6-1.1-0.6-1.8c0-1.6,1-2.6,3-3c0.8-0.1,1.8-0.2,3-0.3v-0.5
		c0-0.9-0.2-1.5-0.6-1.8c-0.3-0.3-0.8-0.4-1.6-0.4c-1.3,0-2.1,0.6-2.5,1.8L502.9,298.9z M508.6,301c-0.9,0-1.8,0.1-2.8,0.3
		c-1.4,0.3-2.2,1-2.2,2.1c0,0.6,0.2,1,0.6,1.4c0.3,0.3,0.8,0.4,1.3,0.4c1.2,0,2.2-0.7,3-2V301z"/>
	<path d="M514.8,293.6v3.2h2.3v0.9h-2.3v5.9c0,1.1,0.4,1.6,1.3,1.6c0.4,0,0.8,0,1.2-0.1l-0.1,0.9c-0.4,0.1-0.8,0.1-1.3,0.1
		c-1.5,0-2.3-0.8-2.3-2.3v-6.1h-1.5v-0.9h1.5v-3L514.8,293.6z"/>
	<path d="M526.4,296.9v9h-1.1v-1.7c-0.4,0.6-0.9,1.1-1.6,1.5c-0.6,0.3-1.1,0.5-1.7,0.5c-0.8,0-1.4-0.2-1.9-0.7
		c-0.4-0.4-0.7-1-0.7-1.8v-6.7h1.1v6.4c0,1.2,0.6,1.9,1.7,1.9c0.6,0,1.1-0.2,1.7-0.6c0.5-0.4,0.9-0.8,1.2-1.3v-6.3H526.4z"/>
	<path d="M534.1,296.6l-0.1,1.1c-0.6,0-1.2,0.3-1.8,0.8c-0.5,0.5-0.9,1.2-1.1,2v5.3H530v-9h1.1v2.3c0.4-0.9,0.8-1.6,1.4-2
		C533,296.8,533.5,296.6,534.1,296.6z"/>
	<path d="M543.6,301.4h-6.5c0,1.3,0.3,2.2,0.9,2.9c0.5,0.6,1.2,0.8,2,0.8c1.3,0,2.1-0.6,2.5-1.9l1,0.4c-0.6,1.6-1.8,2.4-3.6,2.4
		c-1.3,0-2.3-0.5-3-1.4c-0.6-0.8-1-1.9-1-3.3c0-1.5,0.4-2.7,1.2-3.6c0.7-0.8,1.6-1.1,2.6-1.1c1.2,0,2.1,0.5,2.8,1.4
		c0.6,0.8,0.9,1.9,0.9,3.1V301.4z M542.5,300.6c-0.1-1-0.4-1.8-0.9-2.4c-0.5-0.5-1-0.7-1.7-0.7c-0.8,0-1.5,0.3-2,0.9
		c-0.4,0.5-0.7,1.3-0.8,2.1H542.5z"/>
	<path d="M546,290.7c1.4,1.4,2.3,2.9,2.9,4.3c0.5,1.3,0.8,2.8,0.8,4.4c0,1.8-0.3,3.5-1,5c-0.6,1.2-1.5,2.5-2.7,3.7l-0.5-0.4
		c1.2-1.5,2-2.9,2.5-4.3c0.4-1.2,0.6-2.6,0.6-4.1c0-1.7-0.3-3.2-0.8-4.6c-0.5-1.2-1.3-2.5-2.3-3.8L546,290.7z"/>
</g>
<line class="st5" x1="611.5" y1="357.5" x2="636.5" y2="357.5"/>
<g>
	<path d="M30.3,94l-1.2,0.3c-0.5-1.9-1.7-2.8-3.4-2.8c-1.3,0-2.3,0.6-3.1,1.7c-0.7,1-1,2.4-1,4.1c0,1.9,0.4,3.4,1.3,4.5
		c0.7,0.9,1.7,1.3,2.8,1.3c1.3,0,2.2-0.5,2.8-1.6c0.5-0.8,0.7-1.8,0.8-3.1h-3.7v-1h4.8v6.5h-0.8l-0.1-2.2c-0.4,0.8-0.9,1.5-1.6,1.9
		c-0.6,0.4-1.3,0.6-2.1,0.6c-1.7,0-3-0.7-4-2c-0.9-1.2-1.3-2.8-1.3-4.8c0-2.2,0.6-4,1.8-5.3c1-1,2.2-1.6,3.6-1.6
		c1.2,0,2.3,0.4,3.1,1.1C29.4,92.2,29.9,93,30.3,94z"/>
	<path d="M42.2,90.7v1h-6.9v4.6h5.2v1h-5.2v5.4h7v1h-8.2V90.7H42.2z"/>
	<path d="M53.7,90.7v1h-4.2v12.1h-1.2V91.8h-4.2v-1H53.7z"/>
	<path d="M68,89.2l-7,16.5h-0.9l7-16.5H68z"/>
	<path d="M77.5,93.8l-0.1,1c-0.5,0-0.9,0.1-1.2,0.2c-0.2,0.1-0.5,0.3-0.7,0.5c0.6,0.5,0.9,1.2,0.9,2.1c0,1-0.4,1.7-1.1,2.3
		c-0.6,0.5-1.3,0.7-2.2,0.7c-0.5,0-1-0.1-1.5-0.3c-0.6,0.3-0.9,0.7-0.9,1.1c0,0.3,0.1,0.5,0.4,0.7c0.3,0.1,0.8,0.2,1.5,0.3l1.8,0.2
		c1.2,0.1,2.1,0.4,2.5,0.8c0.4,0.3,0.5,0.7,0.5,1.3c0,0.8-0.4,1.4-1.2,1.9c-0.8,0.4-1.8,0.6-3,0.6c-1.3,0-2.4-0.2-3.1-0.7
		c-0.6-0.4-0.9-0.9-0.9-1.5c0-0.5,0.2-0.9,0.6-1.2c0.3-0.3,0.7-0.6,1.3-0.7c-0.9-0.2-1.4-0.6-1.4-1.3c0-0.6,0.4-1.2,1.2-1.7
		c-0.8-0.5-1.1-1.3-1.1-2.3c0-0.9,0.4-1.7,1.1-2.3c0.6-0.5,1.3-0.7,2.2-0.7c0.7,0,1.3,0.1,1.7,0.4c0.3-0.5,0.7-0.8,1.2-1
		C76.4,93.8,76.9,93.8,77.5,93.8z M72.1,103.2c-1.2,0.3-1.8,0.9-1.8,1.6c0,0.5,0.3,1,0.9,1.2c0.5,0.2,1.2,0.3,2,0.3
		c1.1,0,1.9-0.2,2.5-0.5c0.5-0.3,0.7-0.6,0.7-1.1c0-0.4-0.2-0.7-0.5-0.9c-0.4-0.2-0.9-0.4-1.8-0.4L72.1,103.2z M73.1,95.4
		c-0.7,0-1.2,0.2-1.6,0.7c-0.4,0.4-0.6,0.9-0.6,1.5c0,0.7,0.2,1.3,0.7,1.7c0.4,0.3,0.9,0.5,1.5,0.5c0.7,0,1.2-0.2,1.6-0.6
		c0.4-0.4,0.6-0.9,0.6-1.5c0-0.7-0.2-1.3-0.7-1.7C74.2,95.6,73.7,95.4,73.1,95.4z"/>
	<path d="M83.3,94.6c1.2,0,2.2,0.5,2.9,1.4c0.6,0.8,0.9,1.9,0.9,3.3c0,1.5-0.4,2.7-1.2,3.6c-0.7,0.8-1.6,1.1-2.6,1.1
		c-1.2,0-2.2-0.5-2.9-1.4c-0.6-0.8-0.9-1.9-0.9-3.3c0-1.5,0.4-2.7,1.2-3.6C81.4,95,82.2,94.6,83.3,94.6z M83.3,95.5
		c-0.9,0-1.6,0.4-2,1.1c-0.4,0.7-0.6,1.5-0.6,2.7c0,1.3,0.3,2.3,0.8,3c0.5,0.6,1.1,0.9,1.9,0.9c0.9,0,1.6-0.4,2-1.1
		c0.4-0.7,0.6-1.6,0.6-2.7c0-1.3-0.3-2.2-0.8-2.9C84.7,95.8,84.1,95.5,83.3,95.5z"/>
	<path d="M91.7,91.6v3.2H94v0.9h-2.3v5.9c0,1.1,0.4,1.6,1.3,1.6c0.4,0,0.8,0,1.2-0.1l-0.1,0.9c-0.4,0.1-0.8,0.1-1.3,0.1
		c-1.5,0-2.3-0.8-2.3-2.3v-6.1H89v-0.9h1.5v-3L91.7,91.6z"/>
	<path d="M96.2,96.9c0.5-1.5,1.7-2.3,3.5-2.3c2.1,0,3.2,1,3.2,3v3.2c0,1.2,0.1,2.2,0.2,3.1h-1c-0.1-0.3-0.1-0.9-0.2-1.6
		c-0.8,1.2-1.9,1.8-3.3,1.8c-1,0-1.7-0.3-2.2-0.8c-0.4-0.5-0.6-1.1-0.6-1.8c0-1.6,1-2.6,3-3c0.8-0.1,1.8-0.2,3-0.3v-0.5
		c0-0.9-0.2-1.5-0.6-1.8c-0.3-0.3-0.8-0.4-1.6-0.4c-1.3,0-2.1,0.6-2.5,1.8L96.2,96.9z M101.9,99c-0.9,0-1.8,0.1-2.8,0.3
		c-1.4,0.3-2.2,1-2.2,2.1c0,0.6,0.2,1,0.6,1.4c0.3,0.3,0.8,0.4,1.3,0.4c1.2,0,2.2-0.7,3-2V99z"/>
	<path d="M107.6,94.9v1.4c0.7-1.1,1.6-1.7,2.8-1.7c1.1,0,2,0.5,2.7,1.4c0.6,0.8,0.9,1.9,0.9,3.3c0,1.5-0.4,2.8-1.2,3.6
		c-0.7,0.7-1.5,1.1-2.5,1.1c-1.1,0-2-0.5-2.6-1.6v4.7h-1.1V94.9H107.6z M107.6,97.4v4c0.7,1.2,1.5,1.7,2.5,1.7c0.8,0,1.5-0.4,2-1.1
		c0.5-0.7,0.7-1.6,0.7-2.7c0-1.3-0.3-2.2-0.8-2.9c-0.5-0.6-1-0.8-1.7-0.8C109.2,95.6,108.3,96.2,107.6,97.4z"/>
	<path d="M118.3,91.2v1.7h-1.7v-1.7H118.3z M118.1,94.9v9H117v-9H118.1z"/>
	<path d="M128.2,89.2l-7,16.5h-0.9l7-16.5H128.2z"/>
	<path class="st3" d="M131.5,90.5v5.8c0.7-1.1,1.6-1.6,2.8-1.6s2,0.5,2.7,1.4c0.6,0.8,0.9,1.9,0.9,3.3c0,1.5-0.4,2.8-1.2,3.6
		c-0.7,0.7-1.5,1.1-2.5,1.1c-1.1,0-2-0.6-2.7-1.7l-0.2,1.5h-0.8V90.5H131.5z M131.5,97.4v4c0.7,1.2,1.5,1.7,2.5,1.7
		c0.8,0,1.5-0.4,2-1.1c0.5-0.7,0.7-1.6,0.7-2.7c0-1.3-0.3-2.2-0.8-2.9c-0.5-0.6-1-0.8-1.7-0.8C133,95.6,132.2,96.2,131.5,97.4z"/>
	<path class="st3" d="M140.6,96.9c0.5-1.5,1.7-2.3,3.5-2.3c2.1,0,3.2,1,3.2,3v3.2c0,1.2,0.1,2.2,0.2,3.1h-1
		c-0.1-0.3-0.1-0.9-0.2-1.6c-0.8,1.2-1.9,1.8-3.3,1.8c-1,0-1.7-0.3-2.2-0.8c-0.4-0.5-0.6-1.1-0.6-1.8c0-1.6,1-2.6,3-3
		c0.8-0.1,1.8-0.2,3-0.3v-0.5c0-0.9-0.2-1.5-0.6-1.8c-0.3-0.3-0.8-0.4-1.6-0.4c-1.3,0-2.1,0.6-2.5,1.8L140.6,96.9z M146.2,99
		c-0.9,0-1.8,0.1-2.8,0.3c-1.4,0.3-2.2,1-2.2,2.1c0,0.6,0.2,1,0.6,1.4c0.3,0.3,0.8,0.4,1.3,0.4c1.2,0,2.2-0.7,3-2V99z"/>
	<path class="st3" d="M152.4,91.6v3.2h2.3v0.9h-2.3v5.9c0,1.1,0.4,1.6,1.3,1.6c0.4,0,0.8,0,1.2-0.1l-0.1,0.9
		c-0.4,0.1-0.8,0.1-1.3,0.1c-1.5,0-2.3-0.8-2.3-2.3v-6.1h-1.5v-0.9h1.5v-3L152.4,91.6z"/>
	<path class="st3" d="M158.8,91.6v3.2h2.3v0.9h-2.3v5.9c0,1.1,0.4,1.6,1.3,1.6c0.4,0,0.8,0,1.2-0.1l-0.1,0.9
		c-0.4,0.1-0.8,0.1-1.3,0.1c-1.5,0-2.3-0.8-2.3-2.3v-6.1h-1.5v-0.9h1.5v-3L158.8,91.6z"/>
	<path class="st3" d="M170.6,99.4h-6.5c0,1.3,0.3,2.2,0.9,2.9c0.5,0.6,1.2,0.8,2,0.8c1.3,0,2.1-0.6,2.5-1.9l1,0.4
		c-0.6,1.6-1.8,2.4-3.6,2.4c-1.3,0-2.3-0.5-3-1.4c-0.6-0.8-1-1.9-1-3.3c0-1.5,0.4-2.7,1.2-3.6c0.7-0.8,1.6-1.1,2.6-1.1
		c1.2,0,2.1,0.5,2.8,1.4c0.6,0.8,0.9,1.9,0.9,3.1V99.4z M169.5,98.6c-0.1-1-0.4-1.8-0.9-2.4c-0.5-0.5-1-0.7-1.7-0.7
		c-0.8,0-1.5,0.3-2,0.9c-0.4,0.5-0.7,1.3-0.8,2.1H169.5z"/>
	<path class="st3" d="M177.7,94.6l-0.1,1.1c-0.6,0-1.2,0.3-1.8,0.8c-0.5,0.5-0.9,1.2-1.1,2v5.3h-1.1v-9h1.1v2.3
		c0.4-0.9,0.8-1.6,1.4-2C176.6,94.8,177.1,94.6,177.7,94.6z"/>
	<path class="st3" d="M186.5,94.9l-3.4,9.5c-0.4,1.1-0.9,1.8-1.4,2.3c-0.5,0.4-1.1,0.5-1.8,0.5c-0.3,0-0.6,0-0.8-0.1l-0.1-1
		c0.3,0.1,0.6,0.1,0.9,0.1c0.6,0,1-0.2,1.3-0.5c0.3-0.3,0.6-0.8,0.9-1.5l0.2-0.4l-3.2-8.8h1.2l2,5.8c0.1,0.4,0.3,1,0.5,1.8h0.1
		c0.1-0.3,0.2-0.6,0.3-1c0.1-0.4,0.2-0.7,0.3-0.9l1.9-5.8H186.5z"/>
	<path d="M195.5,89.2l-7,16.5h-0.9l7-16.5H195.5z"/>
	<path class="st3" d="M204.3,97.2l-1.1,0.3c-0.3-1.3-1.1-2-2.3-2c-0.9,0-1.6,0.4-2,1.1c-0.4,0.7-0.6,1.6-0.6,2.7
		c0,1.3,0.3,2.3,0.8,3c0.5,0.6,1.1,0.9,1.9,0.9c1.3,0,2.1-0.7,2.4-2l1.1,0.4c-0.6,1.7-1.7,2.6-3.5,2.6c-1.2,0-2.2-0.5-2.9-1.4
		c-0.6-0.8-0.9-1.9-0.9-3.3c0-1.5,0.4-2.7,1.2-3.6c0.7-0.8,1.6-1.1,2.6-1.1c0.9,0,1.6,0.2,2.2,0.7C203.7,95.8,204.1,96.4,204.3,97.2
		z"/>
	<path class="st3" d="M208.1,90.5v6c1-1.2,2.1-1.9,3.3-1.9c0.8,0,1.4,0.3,1.9,0.8c0.4,0.5,0.6,1,0.6,1.8v6.7h-1.1v-6.2
		c0-1.3-0.6-2-1.7-2c-1,0-2,0.6-3,1.9v6.3H207V90.5H208.1z"/>
	<path class="st3" d="M217.2,96.9c0.5-1.5,1.7-2.3,3.5-2.3c2.1,0,3.2,1,3.2,3v3.2c0,1.2,0.1,2.2,0.2,3.1h-1
		c-0.1-0.3-0.1-0.9-0.2-1.6c-0.8,1.2-1.9,1.8-3.3,1.8c-1,0-1.7-0.3-2.2-0.8c-0.4-0.5-0.6-1.1-0.6-1.8c0-1.6,1-2.6,3-3
		c0.8-0.1,1.8-0.2,3-0.3v-0.5c0-0.9-0.2-1.5-0.6-1.8c-0.3-0.3-0.8-0.4-1.6-0.4c-1.3,0-2.1,0.6-2.5,1.8L217.2,96.9z M222.8,99
		c-0.9,0-1.8,0.1-2.8,0.3c-1.4,0.3-2.2,1-2.2,2.1c0,0.6,0.2,1,0.6,1.4c0.3,0.3,0.8,0.4,1.3,0.4c1.2,0,2.2-0.7,3-2V99z"/>
	<path class="st3" d="M231.6,94.6l-0.1,1.1c-0.6,0-1.2,0.3-1.8,0.8c-0.5,0.5-0.9,1.2-1.1,2v5.3h-1.1v-9h1.1v2.3
		c0.4-0.9,0.8-1.6,1.4-2C230.5,94.8,231,94.6,231.6,94.6z"/>
	<path class="st3" d="M241.3,93.8l-0.1,1c-0.5,0-0.9,0.1-1.2,0.2c-0.2,0.1-0.5,0.3-0.7,0.5c0.6,0.5,0.9,1.2,0.9,2.1
		c0,1-0.4,1.7-1.1,2.3c-0.6,0.5-1.3,0.7-2.2,0.7c-0.5,0-1-0.1-1.5-0.3c-0.6,0.3-0.9,0.7-0.9,1.1c0,0.3,0.1,0.5,0.4,0.7
		c0.3,0.1,0.8,0.2,1.5,0.3l1.8,0.2c1.2,0.1,2.1,0.4,2.5,0.8c0.4,0.3,0.5,0.7,0.5,1.3c0,0.8-0.4,1.4-1.2,1.9c-0.8,0.4-1.8,0.6-3,0.6
		c-1.3,0-2.4-0.2-3.1-0.7c-0.6-0.4-0.9-0.9-0.9-1.5c0-0.5,0.2-0.9,0.6-1.2c0.3-0.3,0.7-0.6,1.3-0.7c-0.9-0.2-1.4-0.6-1.4-1.3
		c0-0.6,0.4-1.2,1.2-1.7c-0.8-0.5-1.1-1.3-1.1-2.3c0-0.9,0.4-1.7,1.1-2.3c0.6-0.5,1.3-0.7,2.2-0.7c0.7,0,1.3,0.1,1.7,0.4
		c0.3-0.5,0.7-0.8,1.2-1C240.3,93.8,240.8,93.8,241.3,93.8z M235.9,103.2c-1.2,0.3-1.8,0.9-1.8,1.6c0,0.5,0.3,1,0.9,1.2
		c0.5,0.2,1.2,0.3,2,0.3c1.1,0,1.9-0.2,2.5-0.5c0.5-0.3,0.7-0.6,0.7-1.1c0-0.4-0.2-0.7-0.5-0.9c-0.4-0.2-0.9-0.4-1.8-0.4
		L235.9,103.2z M237,95.4c-0.7,0-1.2,0.2-1.6,0.7c-0.4,0.4-0.6,0.9-0.6,1.5c0,0.7,0.2,1.3,0.7,1.7c0.4,0.3,0.9,0.5,1.5,0.5
		c0.7,0,1.2-0.2,1.6-0.6c0.4-0.4,0.6-0.9,0.6-1.5c0-0.7-0.2-1.3-0.7-1.7C238.1,95.6,237.6,95.4,237,95.4z"/>
	<path class="st3" d="M245.3,91.2v1.7h-1.7v-1.7H245.3z M245,94.9v9h-1.1v-9H245z"/>
	<path class="st3" d="M249.7,94.9v1.7c1-1.3,2.1-1.9,3.3-1.9c0.8,0,1.5,0.3,1.9,0.8c0.4,0.5,0.6,1,0.6,1.8v6.7h-1.1v-6.2
		c0-1.3-0.6-2-1.7-2c-1,0-2,0.6-3,1.9v6.3h-1.1v-9H249.7z"/>
	<path class="st3" d="M266.4,93.8l-0.1,1c-0.5,0-0.9,0.1-1.2,0.2c-0.2,0.1-0.5,0.3-0.7,0.5c0.6,0.5,0.9,1.2,0.9,2.1
		c0,1-0.4,1.7-1.1,2.3c-0.6,0.5-1.3,0.7-2.2,0.7c-0.5,0-1-0.1-1.5-0.3c-0.6,0.3-0.9,0.7-0.9,1.1c0,0.3,0.1,0.5,0.4,0.7
		c0.3,0.1,0.8,0.2,1.5,0.3l1.8,0.2c1.2,0.1,2.1,0.4,2.5,0.8c0.4,0.3,0.5,0.7,0.5,1.3c0,0.8-0.4,1.4-1.2,1.9c-0.8,0.4-1.8,0.6-3,0.6
		c-1.3,0-2.4-0.2-3.1-0.7c-0.6-0.4-0.9-0.9-0.9-1.5c0-0.5,0.2-0.9,0.6-1.2c0.3-0.3,0.7-0.6,1.3-0.7c-0.9-0.2-1.4-0.6-1.4-1.3
		c0-0.6,0.4-1.2,1.2-1.7c-0.8-0.5-1.1-1.3-1.1-2.3c0-0.9,0.4-1.7,1.1-2.3c0.6-0.5,1.3-0.7,2.2-0.7c0.7,0,1.3,0.1,1.7,0.4
		c0.3-0.5,0.7-0.8,1.2-1C265.3,93.8,265.8,93.8,266.4,93.8z M260.9,103.2c-1.2,0.3-1.8,0.9-1.8,1.6c0,0.5,0.3,1,0.9,1.2
		c0.5,0.2,1.2,0.3,2,0.3c1.1,0,1.9-0.2,2.5-0.5c0.5-0.3,0.7-0.6,0.7-1.1c0-0.4-0.2-0.7-0.5-0.9c-0.4-0.2-0.9-0.4-1.8-0.4
		L260.9,103.2z M262,95.4c-0.7,0-1.2,0.2-1.6,0.7c-0.4,0.4-0.6,0.9-0.6,1.5c0,0.7,0.2,1.3,0.7,1.7c0.4,0.3,0.9,0.5,1.5,0.5
		c0.7,0,1.2-0.2,1.6-0.6c0.4-0.4,0.6-0.9,0.6-1.5c0-0.7-0.2-1.3-0.7-1.7C263.1,95.6,262.6,95.4,262,95.4z"/>
</g>
<g>
	<g>
		<line class="st6" x1="36" y1="177" x2="335.8" y2="177"/>
		<g>
			<polygon class="st3" points="334.4,182 343,177 334.4,172 			"/>
		</g>
	</g>
</g>
<g>
	<path d="M53,117.7c0.2-1.1,0.7-1.9,1.4-2.5c0.6-0.5,1.4-0.7,2.3-0.7c1.1,0,2,0.3,2.6,1c0.6,0.6,0.9,1.3,0.9,2.2
		c0,0.6-0.2,1.2-0.5,1.7c-0.3,0.5-0.8,1-1.5,1.6c-0.6,0.5-0.9,1-1.1,1.4c-0.1,0.4-0.2,1-0.2,1.8H56v-0.4c0-0.8,0.1-1.5,0.4-2
		c0.2-0.4,0.5-0.9,1-1.4c0.7-0.6,1.1-1.2,1.3-1.6c0.2-0.3,0.3-0.7,0.3-1.2c0-0.7-0.2-1.2-0.7-1.6c-0.4-0.4-0.9-0.5-1.6-0.5
		c-1.5,0-2.4,0.8-2.6,2.5L53,117.7z M57.4,126.1v1.8h-1.8v-1.8H57.4z"/>
	<path d="M69.1,120.8l-1.1,0.4c-0.3-1.1-1.1-1.6-2.2-1.6c-0.7,0-1.2,0.1-1.6,0.4c-0.3,0.3-0.5,0.6-0.5,1c0,0.5,0.2,0.9,0.5,1.1
		c0.3,0.2,0.8,0.4,1.5,0.6l0.7,0.2c1.1,0.3,1.9,0.6,2.3,1c0.4,0.4,0.6,0.9,0.6,1.6c0,0.8-0.3,1.5-1,2c-0.6,0.5-1.4,0.7-2.5,0.7
		c-1.8,0-3-0.7-3.6-2.2l1.1-0.4c0.4,1.1,1.2,1.7,2.5,1.7c0.8,0,1.4-0.2,1.8-0.6c0.3-0.3,0.5-0.7,0.5-1.1c0-0.6-0.2-1-0.5-1.2
		c-0.3-0.2-0.9-0.4-1.7-0.6l-0.7-0.2c-1.1-0.2-1.8-0.6-2.2-1c-0.3-0.4-0.5-0.8-0.5-1.5c0-0.8,0.3-1.4,0.9-1.8
		c0.6-0.4,1.3-0.6,2.2-0.6C67.5,118.6,68.6,119.3,69.1,120.8z"/>
	<path d="M79.4,123.4h-6.5c0,1.3,0.3,2.2,0.9,2.9c0.5,0.6,1.2,0.8,2,0.8c1.3,0,2.1-0.6,2.5-1.9l1,0.4c-0.6,1.6-1.8,2.4-3.6,2.4
		c-1.3,0-2.3-0.5-3-1.4c-0.6-0.8-1-1.9-1-3.3c0-1.5,0.4-2.7,1.2-3.6c0.7-0.8,1.6-1.1,2.6-1.1c1.2,0,2.1,0.5,2.8,1.4
		c0.6,0.8,0.9,1.9,0.9,3.1V123.4z M78.3,122.6c-0.1-1-0.4-1.8-0.9-2.4c-0.5-0.5-1-0.7-1.7-0.7c-0.8,0-1.5,0.3-2,0.9
		c-0.4,0.5-0.7,1.3-0.8,2.1H78.3z"/>
	<path d="M86.5,118.6l-0.1,1.1c-0.6,0-1.2,0.3-1.8,0.8c-0.5,0.5-0.9,1.2-1.1,2v5.3h-1.1v-9h1.1v2.3c0.4-0.9,0.8-1.6,1.4-2
		C85.3,118.8,85.9,118.6,86.5,118.6z"/>
	<path d="M95.2,118.9l-3,9h-1.4l-3-9H89l1.7,5.5c0.1,0.3,0.3,1.2,0.7,2.6h0.2c0.4-1.4,0.6-2.3,0.8-2.7l1.7-5.4H95.2z"/>
	<path d="M99.1,115.2v1.7h-1.7v-1.7H99.1z M98.8,118.9v9h-1.1v-9H98.8z"/>
	<path d="M109,121.2l-1.1,0.3c-0.3-1.3-1.1-2-2.3-2c-0.9,0-1.6,0.4-2,1.1c-0.4,0.7-0.6,1.6-0.6,2.7c0,1.3,0.3,2.3,0.8,3
		c0.5,0.6,1.1,0.9,1.9,0.9c1.3,0,2.1-0.7,2.4-2l1.1,0.4c-0.6,1.7-1.7,2.6-3.5,2.6c-1.2,0-2.2-0.5-2.9-1.4c-0.6-0.8-0.9-1.9-0.9-3.3
		c0-1.5,0.4-2.7,1.2-3.6c0.7-0.8,1.6-1.1,2.6-1.1c0.9,0,1.6,0.2,2.2,0.7C108.4,119.8,108.8,120.4,109,121.2z"/>
	<path d="M118.8,123.4h-6.5c0,1.3,0.3,2.2,0.9,2.9c0.5,0.6,1.2,0.8,2,0.8c1.3,0,2.1-0.6,2.5-1.9l1,0.4c-0.6,1.6-1.8,2.4-3.6,2.4
		c-1.3,0-2.3-0.5-3-1.4c-0.6-0.8-1-1.9-1-3.3c0-1.5,0.4-2.7,1.2-3.6c0.7-0.8,1.6-1.1,2.6-1.1c1.2,0,2.1,0.5,2.8,1.4
		c0.6,0.8,0.9,1.9,0.9,3.1V123.4z M117.7,122.6c-0.1-1-0.4-1.8-0.9-2.4c-0.5-0.5-1-0.7-1.7-0.7c-0.8,0-1.5,0.3-2,0.9
		c-0.4,0.5-0.7,1.3-0.8,2.1H117.7z"/>
	<path d="M123.2,114.7v13.1H122v-13.1H123.2z"/>
	<path d="M133.9,114.5v13.4h-1.1v-1.4c-0.7,1.1-1.6,1.6-2.7,1.6c-1.1,0-2-0.5-2.7-1.4c-0.6-0.9-0.9-2-0.9-3.3c0-1.5,0.4-2.7,1.2-3.6
		c0.6-0.7,1.4-1.1,2.4-1.1c1.1,0,2,0.5,2.7,1.6v-5.7H133.9z M132.7,121.4c-0.6-1.2-1.5-1.8-2.6-1.8c-0.8,0-1.5,0.4-2,1.1
		c-0.4,0.7-0.6,1.5-0.6,2.6c0,1.3,0.3,2.2,0.9,2.9c0.5,0.6,1.1,0.9,1.8,0.9c1,0,1.8-0.6,2.5-1.7V121.4z"/>
	<path d="M137.1,121h10.1v0.8h-10.1V121z M137.1,123.9h10.1v0.8h-10.1V123.9z"/>
	<path class="st3" d="M156.4,120.8l-1.1,0.4c-0.3-1.1-1.1-1.6-2.2-1.6c-0.7,0-1.2,0.1-1.6,0.4c-0.3,0.3-0.5,0.6-0.5,1
		c0,0.5,0.2,0.9,0.5,1.1c0.3,0.2,0.8,0.4,1.5,0.6l0.7,0.2c1.1,0.3,1.9,0.6,2.3,1c0.4,0.4,0.6,0.9,0.6,1.6c0,0.8-0.3,1.5-1,2
		c-0.6,0.5-1.4,0.7-2.5,0.7c-1.8,0-3-0.7-3.6-2.2l1.1-0.4c0.4,1.1,1.2,1.7,2.5,1.7c0.8,0,1.4-0.2,1.8-0.6c0.3-0.3,0.5-0.7,0.5-1.1
		c0-0.6-0.2-1-0.5-1.2c-0.3-0.2-0.9-0.4-1.7-0.6l-0.7-0.2c-1.1-0.2-1.8-0.6-2.2-1c-0.3-0.4-0.5-0.8-0.5-1.5c0-0.8,0.3-1.4,0.9-1.8
		c0.6-0.4,1.3-0.6,2.2-0.6C154.8,118.6,155.9,119.3,156.4,120.8z"/>
	<path class="st3" d="M160.7,118.9v1.7c0.9-1.3,2-1.9,3-1.9c0.7,0,1.2,0.2,1.7,0.6c0.4,0.3,0.6,0.8,0.7,1.3c0.9-1.2,1.9-1.9,3.1-1.9
		c0.8,0,1.4,0.3,1.9,0.8c0.4,0.5,0.6,1,0.6,1.8v6.7h-1.1v-6.2c0-1.3-0.5-2-1.6-2c-0.5,0-1,0.2-1.5,0.6c-0.4,0.3-0.8,0.8-1.2,1.3v6.3
		H165v-6.2c0-1.3-0.5-2-1.6-2c-0.5,0-1,0.2-1.5,0.6c-0.5,0.3-0.9,0.8-1.2,1.3v6.3h-1.1v-9H160.7z"/>
	<path class="st3" d="M174.9,120.9c0.5-1.5,1.7-2.3,3.5-2.3c2.1,0,3.2,1,3.2,3v3.2c0,1.2,0.1,2.2,0.2,3.1h-1
		c-0.1-0.3-0.1-0.9-0.2-1.6c-0.8,1.2-1.9,1.8-3.3,1.8c-1,0-1.7-0.3-2.2-0.8c-0.4-0.5-0.6-1.1-0.6-1.8c0-1.6,1-2.6,3-3
		c0.8-0.1,1.8-0.2,3-0.3v-0.5c0-0.9-0.2-1.5-0.6-1.8c-0.3-0.3-0.8-0.4-1.6-0.4c-1.3,0-2.1,0.6-2.5,1.8L174.9,120.9z M180.5,123
		c-0.9,0-1.8,0.1-2.8,0.3c-1.4,0.3-2.2,1-2.2,2.1c0,0.6,0.2,1,0.6,1.4c0.3,0.3,0.8,0.4,1.3,0.4c1.2,0,2.2-0.7,3-2V123z"/>
	<path class="st3" d="M189.3,118.6l-0.1,1.1c-0.6,0-1.2,0.3-1.8,0.8c-0.5,0.5-0.9,1.2-1.1,2v5.3h-1.1v-9h1.1v2.3
		c0.4-0.9,0.8-1.6,1.4-2C188.1,118.8,188.7,118.6,189.3,118.6z"/>
	<path class="st3" d="M193.3,115.6v3.2h2.3v0.9h-2.3v5.9c0,1.1,0.4,1.6,1.3,1.6c0.4,0,0.8,0,1.2-0.1l-0.1,0.9
		c-0.4,0.1-0.8,0.1-1.3,0.1c-1.5,0-2.3-0.8-2.3-2.3v-6.1h-1.5v-0.9h1.5v-3L193.3,115.6z"/>
	<path class="st3" d="M202.6,122.3v1h-4.9v-1H202.6z"/>
	<path class="st3" d="M211.8,120.8l-1.1,0.4c-0.3-1.1-1.1-1.6-2.2-1.6c-0.7,0-1.2,0.1-1.6,0.4c-0.3,0.3-0.5,0.6-0.5,1
		c0,0.5,0.2,0.9,0.5,1.1c0.3,0.2,0.8,0.4,1.5,0.6l0.7,0.2c1.1,0.3,1.9,0.6,2.3,1c0.4,0.4,0.6,0.9,0.6,1.6c0,0.8-0.3,1.5-1,2
		c-0.6,0.5-1.4,0.7-2.5,0.7c-1.8,0-3-0.7-3.6-2.2l1.1-0.4c0.4,1.1,1.2,1.7,2.5,1.7c0.8,0,1.4-0.2,1.8-0.6c0.3-0.3,0.5-0.7,0.5-1.1
		c0-0.6-0.2-1-0.5-1.2c-0.3-0.2-0.9-0.4-1.7-0.6l-0.7-0.2c-1.1-0.2-1.8-0.6-2.2-1c-0.3-0.4-0.5-0.8-0.5-1.5c0-0.8,0.3-1.4,0.9-1.8
		c0.6-0.4,1.3-0.6,2.2-0.6C210.2,118.6,211.3,119.3,211.8,120.8z"/>
	<path class="st3" d="M222.1,123.4h-6.5c0,1.3,0.3,2.2,0.9,2.9c0.5,0.6,1.2,0.8,2,0.8c1.3,0,2.1-0.6,2.5-1.9l1,0.4
		c-0.6,1.6-1.8,2.4-3.6,2.4c-1.3,0-2.3-0.5-3-1.4c-0.6-0.8-1-1.9-1-3.3c0-1.5,0.4-2.7,1.2-3.6c0.7-0.8,1.6-1.1,2.6-1.1
		c1.2,0,2.1,0.5,2.8,1.4c0.6,0.8,0.9,1.9,0.9,3.1V123.4z M221,122.6c-0.1-1-0.4-1.8-0.9-2.4c-0.5-0.5-1-0.7-1.7-0.7
		c-0.8,0-1.5,0.3-2,0.9c-0.4,0.5-0.7,1.3-0.8,2.1H221z"/>
	<path class="st3" d="M226.2,118.9v1.7c1-1.3,2.1-1.9,3.3-1.9c0.8,0,1.5,0.3,1.9,0.8c0.4,0.5,0.6,1,0.6,1.8v6.7h-1.1v-6.2
		c0-1.3-0.6-2-1.7-2c-1,0-2,0.6-3,1.9v6.3h-1.1v-9H226.2z"/>
	<path class="st3" d="M241.5,120.8l-1.1,0.4c-0.3-1.1-1.1-1.6-2.2-1.6c-0.7,0-1.2,0.1-1.6,0.4c-0.3,0.3-0.5,0.6-0.5,1
		c0,0.5,0.2,0.9,0.5,1.1c0.3,0.2,0.8,0.4,1.5,0.6l0.7,0.2c1.1,0.3,1.9,0.6,2.3,1c0.4,0.4,0.6,0.9,0.6,1.6c0,0.8-0.3,1.5-1,2
		c-0.6,0.5-1.4,0.7-2.5,0.7c-1.8,0-3-0.7-3.6-2.2l1.1-0.4c0.4,1.1,1.2,1.7,2.5,1.7c0.8,0,1.4-0.2,1.8-0.6c0.3-0.3,0.5-0.7,0.5-1.1
		c0-0.6-0.2-1-0.5-1.2c-0.3-0.2-0.9-0.4-1.7-0.6l-0.7-0.2c-1.1-0.2-1.8-0.6-2.2-1c-0.3-0.4-0.5-0.8-0.5-1.5c0-0.8,0.3-1.4,0.9-1.8
		c0.6-0.4,1.3-0.6,2.2-0.6C239.8,118.6,240.9,119.3,241.5,120.8z"/>
	<path class="st3" d="M247.9,118.6c1.2,0,2.2,0.5,2.9,1.4c0.6,0.8,0.9,1.9,0.9,3.3c0,1.5-0.4,2.7-1.2,3.6c-0.7,0.8-1.6,1.1-2.6,1.1
		c-1.2,0-2.2-0.5-2.9-1.4c-0.6-0.8-0.9-1.9-0.9-3.3c0-1.5,0.4-2.7,1.2-3.6C246,119,246.9,118.6,247.9,118.6z M247.9,119.5
		c-0.9,0-1.6,0.4-2,1.1c-0.4,0.7-0.6,1.5-0.6,2.7c0,1.3,0.3,2.3,0.8,3c0.5,0.6,1.1,0.9,1.9,0.9c0.9,0,1.6-0.4,2-1.1
		c0.4-0.7,0.6-1.6,0.6-2.7c0-1.3-0.3-2.2-0.8-2.9C249.3,119.8,248.7,119.5,247.9,119.5z"/>
	<path class="st3" d="M258.9,118.6l-0.1,1.1c-0.6,0-1.2,0.3-1.8,0.8c-0.5,0.5-0.9,1.2-1.1,2v5.3h-1.1v-9h1.1v2.3
		c0.4-0.9,0.8-1.6,1.4-2C257.8,118.8,258.3,118.6,258.9,118.6z"/>
	<path class="st3" d="M265.9,122.3v1H261v-1H265.9z"/>
	<path class="st3" d="M273.2,114.8v12.1h2.4v1h-6.1v-1h2.6V116c-0.8,0.5-1.6,1-2.6,1.4l-0.2-1c1-0.3,2-0.8,3-1.5H273.2z"/>
</g>
<path class="st0" d="M52.5,205.5h-23c-6.6,0-12-5.4-12-12v-34c0-6.6,5.4-12,12-12h23c6.6,0,12,5.4,12,12v34
	C64.5,200.1,59.1,205.5,52.5,205.5z"/>
<g>
	<path d="M31.6,168.7l4.3,13.1h-1.3l-1.4-4.3h-4.9l-1.4,4.3h-1.2l4.3-13.1H31.6z M33,176.6l-1.1-3.4c-0.4-1.2-0.7-2.3-1-3.5h-0.2
		c-0.3,1.2-0.7,2.3-1,3.5l-1.1,3.4H33z"/>
	<path d="M39.6,172.9v1.4c0.7-1.1,1.6-1.7,2.8-1.7c1.1,0,2,0.5,2.7,1.4c0.6,0.8,0.9,1.9,0.9,3.3c0,1.5-0.4,2.8-1.2,3.6
		c-0.7,0.7-1.5,1.1-2.5,1.1c-1.1,0-2-0.5-2.6-1.6v4.7h-1.1v-12.3H39.6z M39.6,175.4v4c0.7,1.2,1.5,1.7,2.5,1.7c0.8,0,1.5-0.4,2-1.1
		c0.5-0.7,0.7-1.6,0.7-2.7c0-1.3-0.3-2.2-0.8-2.9c-0.5-0.6-1-0.8-1.7-0.8C41.1,173.6,40.3,174.2,39.6,175.4z"/>
	<path d="M50,172.9v1.4c0.7-1.1,1.6-1.7,2.8-1.7c1.1,0,2,0.5,2.7,1.4c0.6,0.8,0.9,1.9,0.9,3.3c0,1.5-0.4,2.8-1.2,3.6
		c-0.7,0.7-1.5,1.1-2.5,1.1c-1.1,0-2-0.5-2.6-1.6v4.7h-1.1v-12.3H50z M50,175.4v4c0.7,1.2,1.5,1.7,2.5,1.7c0.8,0,1.5-0.4,2-1.1
		c0.5-0.7,0.7-1.6,0.7-2.7c0-1.3-0.3-2.2-0.8-2.9c-0.5-0.6-1-0.8-1.7-0.8C51.6,173.6,50.7,174.2,50,175.4z"/>
</g>
<path class="st0" d="M211.5,205.5h-54c-6.6,0-12-5.4-12-12v-34c0-6.6,5.4-12,12-12h54c6.6,0,12,5.4,12,12v34
	C223.5,200.1,218.1,205.5,211.5,205.5z"/>
<g>
	<path d="M168.3,162l-1.2,0.3c-0.5-1.9-1.7-2.8-3.4-2.8c-1.3,0-2.3,0.6-3.1,1.7c-0.7,1-1,2.4-1,4.1c0,1.9,0.4,3.4,1.3,4.5
		c0.7,0.9,1.7,1.3,2.8,1.3c1.3,0,2.2-0.5,2.8-1.6c0.5-0.8,0.7-1.8,0.8-3.1h-3.7v-1h4.8v6.5h-0.8l-0.1-2.2c-0.4,0.8-0.9,1.5-1.6,1.9
		c-0.6,0.4-1.3,0.6-2.1,0.6c-1.7,0-3-0.7-4-2c-0.9-1.2-1.3-2.8-1.3-4.8c0-2.2,0.6-4,1.8-5.3c1-1,2.2-1.6,3.6-1.6
		c1.2,0,2.3,0.4,3.1,1.1C167.4,160.2,167.9,161,168.3,162z"/>
	<path d="M175.1,162.6c1.2,0,2.2,0.5,2.9,1.4c0.6,0.8,0.9,1.9,0.9,3.3c0,1.5-0.4,2.7-1.2,3.6c-0.7,0.8-1.6,1.1-2.6,1.1
		c-1.2,0-2.2-0.5-2.9-1.4c-0.6-0.8-0.9-1.9-0.9-3.3c0-1.5,0.4-2.7,1.2-3.6C173.2,163,174.1,162.6,175.1,162.6z M175.1,163.5
		c-0.9,0-1.6,0.4-2,1.1c-0.4,0.7-0.6,1.5-0.6,2.7c0,1.3,0.3,2.3,0.8,3c0.5,0.6,1.1,0.9,1.9,0.9c0.9,0,1.6-0.4,2-1.1
		c0.4-0.7,0.6-1.6,0.6-2.7c0-1.3-0.3-2.2-0.8-2.9C176.5,163.8,175.9,163.5,175.1,163.5z"/>
	<path d="M183.5,159.6v3.2h2.3v0.9h-2.3v5.9c0,1.1,0.4,1.6,1.3,1.6c0.4,0,0.8,0,1.2-0.1L186,172c-0.4,0.1-0.8,0.1-1.3,0.1
		c-1.5,0-2.3-0.8-2.3-2.3v-6.1h-1.5v-0.9h1.5v-3L183.5,159.6z"/>
	<path d="M193.1,158.7l4.3,13.1h-1.3l-1.4-4.3h-4.9l-1.4,4.3h-1.2l4.3-13.1H193.1z M194.5,166.6l-1.1-3.4c-0.4-1.2-0.7-2.3-1-3.5
		h-0.2c-0.3,1.2-0.7,2.3-1,3.5l-1.1,3.4H194.5z"/>
	<path d="M200.2,158.7h4.2c1.6,0,2.7,0.4,3.5,1.1c0.6,0.6,1,1.4,1,2.5c0,1.2-0.4,2.2-1.3,2.8c-0.8,0.6-1.9,0.9-3.2,0.9h-2.9v5.9
		h-1.2V158.7z M201.4,159.7v5.3h2.9c2.3,0,3.4-0.9,3.4-2.7c0-1.7-1.1-2.6-3.3-2.6H201.4z"/>
	<path d="M213.3,158.7v13.1h-1.2v-13.1H213.3z"/>
</g>
<g>
	<path d="M166.8,184.5l-1.2,0.4c-0.5-1.6-1.5-2.4-3-2.4c-0.9,0-1.7,0.2-2.2,0.7c-0.5,0.4-0.7,1-0.7,1.6c0,0.8,0.2,1.4,0.7,1.8
		c0.4,0.3,1.1,0.6,2.1,0.9l0.5,0.1c1.6,0.4,2.7,1,3.3,1.6c0.4,0.5,0.7,1.2,0.7,2.2c0,1.2-0.4,2.1-1.3,2.8c-0.8,0.6-1.8,0.9-3.1,0.9
		c-1.2,0-2.3-0.3-3.1-0.9c-0.7-0.6-1.2-1.3-1.5-2.3l1.2-0.4c0.5,1.8,1.6,2.7,3.4,2.7c1.1,0,2-0.3,2.5-0.8c0.4-0.4,0.7-1,0.7-1.7
		c0-0.8-0.2-1.4-0.7-1.8c-0.5-0.4-1.3-0.7-2.4-1l-0.5-0.1c-1.5-0.4-2.5-0.9-3.1-1.5c-0.5-0.5-0.7-1.3-0.7-2.2c0-1,0.4-1.8,1.2-2.5
		c0.7-0.6,1.7-0.9,2.9-0.9C164.7,181.5,166.1,182.5,166.8,184.5z"/>
	<path d="M177.2,190.4h-6.5c0,1.3,0.3,2.2,0.9,2.9c0.5,0.6,1.2,0.8,2,0.8c1.3,0,2.1-0.6,2.5-1.9l1,0.4c-0.6,1.6-1.8,2.4-3.6,2.4
		c-1.3,0-2.3-0.5-3-1.4c-0.6-0.8-1-1.9-1-3.3c0-1.5,0.4-2.7,1.2-3.6c0.7-0.8,1.6-1.1,2.6-1.1c1.2,0,2.1,0.5,2.8,1.4
		c0.6,0.8,0.9,1.9,0.9,3.1V190.4z M176,189.6c-0.1-1-0.4-1.8-0.9-2.4c-0.5-0.5-1-0.7-1.7-0.7c-0.8,0-1.5,0.3-2,0.9
		c-0.4,0.5-0.7,1.3-0.8,2.1H176z"/>
	<path d="M184.2,185.6l-0.1,1.1c-0.6,0-1.2,0.3-1.8,0.8c-0.5,0.5-0.9,1.2-1.1,2v5.3h-1.1v-9h1.1v2.3c0.4-0.9,0.8-1.6,1.4-2
		C183.1,185.8,183.7,185.6,184.2,185.6z"/>
	<path d="M193,185.9l-3,9h-1.4l-3-9h1.2l1.7,5.5c0.1,0.3,0.3,1.2,0.7,2.6h0.2c0.4-1.4,0.6-2.3,0.8-2.7l1.7-5.4H193z"/>
	<path d="M202.5,190.4H196c0,1.3,0.3,2.2,0.9,2.9c0.5,0.6,1.2,0.8,2,0.8c1.3,0,2.1-0.6,2.5-1.9l1,0.4c-0.6,1.6-1.8,2.4-3.6,2.4
		c-1.3,0-2.3-0.5-3-1.4c-0.6-0.8-1-1.9-1-3.3c0-1.5,0.4-2.7,1.2-3.6c0.7-0.8,1.6-1.1,2.6-1.1c1.2,0,2.1,0.5,2.8,1.4
		c0.6,0.8,0.9,1.9,0.9,3.1V190.4z M201.4,189.6c-0.1-1-0.4-1.8-0.9-2.4c-0.5-0.5-1-0.7-1.7-0.7c-0.8,0-1.5,0.3-2,0.9
		c-0.4,0.5-0.7,1.3-0.8,2.1H201.4z"/>
	<path d="M209.6,185.6l-0.1,1.1c-0.6,0-1.2,0.3-1.8,0.8c-0.5,0.5-0.9,1.2-1.1,2v5.3h-1.1v-9h1.1v2.3c0.4-0.9,0.8-1.6,1.4-2
		C208.5,185.8,209.1,185.6,209.6,185.6z"/>
</g>
<g>
	<path d="M85.8,164.3l-0.9,0.3c-0.4-1.5-1.3-2.2-2.7-2.2c-1,0-1.8,0.4-2.4,1.3c-0.5,0.8-0.8,1.9-0.8,3.2c0,1.5,0.3,2.7,1,3.5
		c0.6,0.7,1.3,1,2.2,1c1,0,1.7-0.4,2.2-1.2c0.4-0.6,0.6-1.4,0.6-2.4h-2.9v-0.8h3.8v5h-0.7l-0.1-1.7c-0.3,0.7-0.7,1.1-1.3,1.5
		c-0.5,0.3-1,0.4-1.7,0.4c-1.3,0-2.3-0.5-3.1-1.6c-0.7-0.9-1-2.2-1-3.7c0-1.7,0.5-3.1,1.4-4.1c0.8-0.8,1.7-1.2,2.8-1.2
		c1,0,1.8,0.3,2.4,0.8C85.1,162.9,85.5,163.5,85.8,164.3z"/>
	<path d="M91.1,164.8c0.9,0,1.7,0.4,2.2,1.1c0.5,0.7,0.7,1.5,0.7,2.5c0,1.2-0.3,2.1-1,2.8c-0.5,0.6-1.2,0.9-2,0.9
		c-0.9,0-1.7-0.4-2.2-1.1c-0.5-0.7-0.7-1.5-0.7-2.5c0-1.2,0.3-2.1,0.9-2.8C89.6,165.1,90.3,164.8,91.1,164.8z M91.1,165.5
		c-0.7,0-1.2,0.3-1.6,0.9c-0.3,0.5-0.5,1.2-0.5,2.1c0,1,0.2,1.8,0.6,2.3c0.4,0.5,0.8,0.7,1.4,0.7c0.7,0,1.2-0.3,1.6-0.9
		c0.3-0.5,0.5-1.2,0.5-2.1c0-1-0.2-1.7-0.6-2.3C92.2,165.7,91.7,165.5,91.1,165.5z"/>
	<path d="M97.6,162.4v2.5h1.8v0.7h-1.8v4.6c0,0.8,0.3,1.2,1,1.2c0.3,0,0.6,0,0.9-0.1l-0.1,0.7c-0.3,0.1-0.6,0.1-1,0.1
		c-1.2,0-1.8-0.6-1.8-1.8v-4.7h-1.2v-0.7h1.2v-2.3L97.6,162.4z"/>
	<path d="M105.1,161.7l3.4,10.2h-1l-1.1-3.4h-3.8l-1.1,3.4h-0.9l3.4-10.2H105.1z M106.2,167.8l-0.8-2.7c-0.3-0.9-0.6-1.8-0.8-2.7
		h-0.1c-0.2,0.9-0.5,1.8-0.8,2.7l-0.8,2.7H106.2z"/>
	<path d="M110.6,161.7h3.3c1.2,0,2.1,0.3,2.7,0.8c0.5,0.5,0.8,1.1,0.8,2c0,0.9-0.3,1.7-1,2.2c-0.6,0.5-1.5,0.7-2.5,0.7h-2.3v4.6
		h-0.9V161.7z M111.5,162.5v4.1h2.2c1.8,0,2.6-0.7,2.6-2.1c0-1.4-0.9-2-2.6-2H111.5z"/>
	<path d="M120.8,161.7v10.2h-0.9v-10.2H120.8z"/>
	<path d="M127.3,167.6v0.8h-3.8v-0.8H127.3z"/>
	<path d="M133,161.8v9.4h1.9v0.7h-4.8v-0.7h2v-8.5c-0.6,0.4-1.3,0.8-2.1,1.1l-0.2-0.8c0.8-0.3,1.6-0.7,2.4-1.2H133z"/>
</g>
<g>
	<path d="M79.5,182.7v10.2h-0.9v-10.2H79.5z"/>
	<path d="M83.3,185.9v1.3c0.8-1,1.6-1.5,2.6-1.5c0.6,0,1.1,0.2,1.5,0.6c0.3,0.4,0.5,0.8,0.5,1.4v5.2H87v-4.8c0-1-0.4-1.6-1.3-1.6
		c-0.8,0-1.6,0.5-2.3,1.5v4.9h-0.9v-7H83.3z"/>
	<path d="M91.8,183.4v2.5h1.8v0.7h-1.8v4.6c0,0.8,0.3,1.2,1,1.2c0.3,0,0.6,0,0.9-0.1l-0.1,0.7c-0.3,0.1-0.6,0.1-1,0.1
		c-1.2,0-1.8-0.6-1.8-1.8v-4.7h-1.2v-0.7H91v-2.3L91.8,183.4z"/>
	<path d="M101,189.5h-5.1c0,1,0.2,1.7,0.7,2.3c0.4,0.4,0.9,0.7,1.5,0.7c1,0,1.7-0.5,2-1.5l0.8,0.3c-0.5,1.3-1.4,1.9-2.8,1.9
		c-1,0-1.8-0.4-2.3-1.1c-0.5-0.7-0.8-1.5-0.8-2.5c0-1.2,0.3-2.1,1-2.8c0.5-0.6,1.2-0.9,2-0.9c0.9,0,1.7,0.4,2.2,1.1
		c0.5,0.6,0.7,1.5,0.7,2.4V189.5z M100.2,188.9c-0.1-0.8-0.3-1.4-0.7-1.8c-0.4-0.4-0.8-0.5-1.3-0.5c-0.6,0-1.1,0.2-1.5,0.7
		c-0.3,0.4-0.5,1-0.6,1.7H100.2z"/>
	<path d="M106.5,185.8l-0.1,0.9c-0.5,0-0.9,0.2-1.4,0.6c-0.4,0.4-0.7,0.9-0.9,1.6v4.1h-0.9v-7h0.8v1.8c0.3-0.7,0.6-1.2,1.1-1.6
		C105.7,185.9,106.1,185.8,106.5,185.8z"/>
	<path d="M111.6,182.6l-0.1,0.7c-0.2,0-0.4-0.1-0.6-0.1c-0.4,0-0.7,0.1-0.9,0.3c-0.2,0.2-0.2,0.5-0.2,0.9v1.5h1.7v0.7h-1.7v6.3h-0.9
		v-6.3h-1.3v-0.7h1.3v-1.5c0-1.2,0.6-1.9,1.9-1.9C110.9,182.6,111.2,182.6,111.6,182.6z"/>
	<path d="M113.1,187.6c0.4-1.2,1.3-1.8,2.8-1.8c1.7,0,2.5,0.8,2.5,2.3v2.5c0,0.9,0.1,1.7,0.2,2.4h-0.8c-0.1-0.3-0.1-0.7-0.2-1.2
		c-0.6,0.9-1.5,1.4-2.5,1.4c-0.7,0-1.3-0.2-1.7-0.6c-0.3-0.4-0.5-0.8-0.5-1.4c0-1.3,0.8-2,2.4-2.3c0.6-0.1,1.4-0.2,2.3-0.2v-0.4
		c0-0.7-0.1-1.1-0.4-1.4c-0.3-0.2-0.7-0.3-1.2-0.3c-1,0-1.6,0.5-1.9,1.4L113.1,187.6z M117.5,189.2c-0.7,0-1.4,0.1-2.1,0.2
		c-1.1,0.2-1.7,0.8-1.7,1.6c0,0.5,0.1,0.8,0.4,1.1c0.3,0.2,0.6,0.3,1,0.3c0.9,0,1.7-0.5,2.3-1.5V189.2z"/>
	<path d="M126.2,187.8l-0.9,0.3c-0.3-1-0.8-1.5-1.8-1.5c-0.7,0-1.2,0.3-1.6,0.9c-0.3,0.5-0.5,1.2-0.5,2.1c0,1,0.2,1.8,0.6,2.3
		c0.4,0.5,0.8,0.7,1.4,0.7c1,0,1.6-0.5,1.9-1.6l0.8,0.3c-0.4,1.3-1.3,2-2.7,2c-1,0-1.7-0.4-2.3-1.1c-0.5-0.7-0.7-1.5-0.7-2.5
		c0-1.2,0.3-2.1,0.9-2.8c0.5-0.6,1.2-0.9,2-0.9c0.7,0,1.3,0.2,1.7,0.6C125.7,186.7,126,187.2,126.2,187.8z"/>
	<path d="M133.8,189.5h-5.1c0,1,0.2,1.7,0.7,2.3c0.4,0.4,0.9,0.7,1.5,0.7c1,0,1.7-0.5,2-1.5l0.8,0.3c-0.5,1.3-1.4,1.9-2.8,1.9
		c-1,0-1.8-0.4-2.3-1.1c-0.5-0.7-0.8-1.5-0.8-2.5c0-1.2,0.3-2.1,1-2.8c0.5-0.6,1.2-0.9,2-0.9c0.9,0,1.7,0.4,2.2,1.1
		c0.5,0.6,0.7,1.5,0.7,2.4V189.5z M132.9,188.9c-0.1-0.8-0.3-1.4-0.7-1.8c-0.4-0.4-0.8-0.5-1.3-0.5c-0.6,0-1.1,0.2-1.5,0.7
		c-0.3,0.4-0.5,1-0.6,1.7H132.9z"/>
</g>
<g>
	<path d="M239.8,163.3l-0.9,0.3c-0.4-1.5-1.3-2.2-2.7-2.2c-1,0-1.8,0.4-2.4,1.3c-0.5,0.8-0.8,1.9-0.8,3.2c0,1.5,0.3,2.7,1,3.5
		c0.6,0.7,1.3,1,2.2,1c1,0,1.7-0.4,2.2-1.2c0.4-0.6,0.6-1.4,0.6-2.4h-2.9v-0.8h3.8v5h-0.7l-0.1-1.7c-0.3,0.7-0.7,1.1-1.3,1.5
		c-0.5,0.3-1,0.4-1.7,0.4c-1.3,0-2.3-0.5-3.1-1.6c-0.7-0.9-1-2.2-1-3.7c0-1.7,0.5-3.1,1.4-4.1c0.8-0.8,1.7-1.2,2.8-1.2
		c1,0,1.8,0.3,2.4,0.8C239.1,161.9,239.5,162.5,239.8,163.3z"/>
	<path d="M245.1,163.8c0.9,0,1.7,0.4,2.2,1.1c0.5,0.7,0.7,1.5,0.7,2.5c0,1.2-0.3,2.1-1,2.8c-0.5,0.6-1.2,0.9-2,0.9
		c-0.9,0-1.7-0.4-2.2-1.1c-0.5-0.7-0.7-1.5-0.7-2.5c0-1.2,0.3-2.1,0.9-2.8C243.6,164.1,244.3,163.8,245.1,163.8z M245.1,164.5
		c-0.7,0-1.2,0.3-1.6,0.9c-0.3,0.5-0.5,1.2-0.5,2.1c0,1,0.2,1.8,0.6,2.3c0.4,0.5,0.8,0.7,1.4,0.7c0.7,0,1.2-0.3,1.6-0.9
		c0.3-0.5,0.5-1.2,0.5-2.1c0-1-0.2-1.7-0.6-2.3C246.2,164.7,245.7,164.5,245.1,164.5z"/>
	<path d="M251.6,161.4v2.5h1.8v0.7h-1.8v4.6c0,0.8,0.3,1.2,1,1.2c0.3,0,0.6,0,0.9-0.1l-0.1,0.7c-0.3,0.1-0.6,0.1-1,0.1
		c-1.2,0-1.8-0.6-1.8-1.8v-4.7h-1.2v-0.7h1.2v-2.3L251.6,161.4z"/>
	<path d="M259.1,160.7l3.4,10.2h-1l-1.1-3.4h-3.8l-1.1,3.4h-0.9l3.4-10.2H259.1z M260.2,166.8l-0.8-2.7c-0.3-0.9-0.6-1.8-0.8-2.7
		h-0.1c-0.2,0.9-0.5,1.8-0.8,2.7l-0.8,2.7H260.2z"/>
	<path d="M264.6,160.7h3.3c1.2,0,2.1,0.3,2.7,0.8c0.5,0.5,0.8,1.1,0.8,2c0,0.9-0.3,1.7-1,2.2c-0.6,0.5-1.5,0.7-2.5,0.7h-2.3v4.6
		h-0.9V160.7z M265.5,161.5v4.1h2.2c1.8,0,2.6-0.7,2.6-2.1c0-1.4-0.9-2-2.6-2H265.5z"/>
	<path d="M274.8,160.7v10.2h-0.9v-10.2H274.8z"/>
	<path d="M281.3,166.6v0.8h-3.8v-0.8H281.3z"/>
	<path d="M288.1,160.8v7h1.5v0.7h-1.5v2.4h-0.8v-2.4h-4.1v-0.7l3.7-7.1H288.1z M287.3,167.8v-4.2c0-0.3,0-1,0-2.1h-0.1
		c-0.3,0.7-0.6,1.3-0.9,2l-2.2,4.4H287.3z"/>
</g>
<g>
	<path d="M233.5,181.7v10.2h-0.9v-10.2H233.5z"/>
	<path d="M237.3,184.9v1.3c0.8-1,1.6-1.5,2.6-1.5c0.6,0,1.1,0.2,1.5,0.6c0.3,0.4,0.5,0.8,0.5,1.4v5.2H241v-4.8c0-1-0.4-1.6-1.3-1.6
		c-0.8,0-1.6,0.5-2.3,1.5v4.9h-0.9v-7H237.3z"/>
	<path d="M245.8,182.4v2.5h1.8v0.7h-1.8v4.6c0,0.8,0.3,1.2,1,1.2c0.3,0,0.6,0,0.9-0.1l-0.1,0.7c-0.3,0.1-0.6,0.1-1,0.1
		c-1.2,0-1.8-0.6-1.8-1.8v-4.7h-1.2v-0.7h1.2v-2.3L245.8,182.4z"/>
	<path d="M255,188.5h-5.1c0,1,0.2,1.7,0.7,2.3c0.4,0.4,0.9,0.7,1.5,0.7c1,0,1.7-0.5,2-1.5l0.8,0.3c-0.5,1.3-1.4,1.9-2.8,1.9
		c-1,0-1.8-0.4-2.3-1.1c-0.5-0.7-0.8-1.5-0.8-2.5c0-1.2,0.3-2.1,1-2.8c0.5-0.6,1.2-0.9,2-0.9c0.9,0,1.7,0.4,2.2,1.1
		c0.5,0.6,0.7,1.5,0.7,2.4V188.5z M254.2,187.9c-0.1-0.8-0.3-1.4-0.7-1.8c-0.4-0.4-0.8-0.5-1.3-0.5c-0.6,0-1.1,0.2-1.5,0.7
		c-0.3,0.4-0.5,1-0.6,1.7H254.2z"/>
	<path d="M260.5,184.8l-0.1,0.9c-0.5,0-0.9,0.2-1.4,0.6c-0.4,0.4-0.7,0.9-0.9,1.6v4.1h-0.9v-7h0.8v1.8c0.3-0.7,0.6-1.2,1.1-1.6
		C259.7,184.9,260.1,184.8,260.5,184.8z"/>
	<path d="M265.6,181.6l-0.1,0.7c-0.2,0-0.4-0.1-0.6-0.1c-0.4,0-0.7,0.1-0.9,0.3c-0.2,0.2-0.2,0.5-0.2,0.9v1.5h1.7v0.7h-1.7v6.3h-0.9
		v-6.3h-1.3v-0.7h1.3v-1.5c0-1.2,0.6-1.9,1.9-1.9C264.9,181.6,265.2,181.6,265.6,181.6z"/>
	<path d="M267.1,186.6c0.4-1.2,1.3-1.8,2.8-1.8c1.7,0,2.5,0.8,2.5,2.3v2.5c0,0.9,0.1,1.7,0.2,2.4h-0.8c-0.1-0.3-0.1-0.7-0.2-1.2
		c-0.6,0.9-1.5,1.4-2.5,1.4c-0.7,0-1.3-0.2-1.7-0.6c-0.3-0.4-0.5-0.8-0.5-1.4c0-1.3,0.8-2,2.4-2.3c0.6-0.1,1.4-0.2,2.3-0.2v-0.4
		c0-0.7-0.1-1.1-0.4-1.4c-0.3-0.2-0.7-0.3-1.2-0.3c-1,0-1.6,0.5-1.9,1.4L267.1,186.6z M271.5,188.2c-0.7,0-1.4,0.1-2.1,0.2
		c-1.1,0.2-1.7,0.8-1.7,1.6c0,0.5,0.1,0.8,0.4,1.1c0.3,0.2,0.6,0.3,1,0.3c0.9,0,1.7-0.5,2.3-1.5V188.2z"/>
	<path d="M280.2,186.8l-0.9,0.3c-0.3-1-0.8-1.5-1.8-1.5c-0.7,0-1.2,0.3-1.6,0.9c-0.3,0.5-0.5,1.2-0.5,2.1c0,1,0.2,1.8,0.6,2.3
		c0.4,0.5,0.8,0.7,1.4,0.7c1,0,1.6-0.5,1.9-1.6l0.8,0.3c-0.4,1.3-1.3,2-2.7,2c-1,0-1.7-0.4-2.3-1.1c-0.5-0.7-0.7-1.5-0.7-2.5
		c0-1.2,0.3-2.1,0.9-2.8c0.5-0.6,1.2-0.9,2-0.9c0.7,0,1.3,0.2,1.7,0.6C279.7,185.7,280,186.2,280.2,186.8z"/>
	<path d="M287.8,188.5h-5.1c0,1,0.2,1.7,0.7,2.3c0.4,0.4,0.9,0.7,1.5,0.7c1,0,1.7-0.5,2-1.5l0.8,0.3c-0.5,1.3-1.4,1.9-2.8,1.9
		c-1,0-1.8-0.4-2.3-1.1c-0.5-0.7-0.8-1.5-0.8-2.5c0-1.2,0.3-2.1,1-2.8c0.5-0.6,1.2-0.9,2-0.9c0.9,0,1.7,0.4,2.2,1.1
		c0.5,0.6,0.7,1.5,0.7,2.4V188.5z M286.9,187.9c-0.1-0.8-0.3-1.4-0.7-1.8c-0.4-0.4-0.8-0.5-1.3-0.5c-0.6,0-1.1,0.2-1.5,0.7
		c-0.3,0.4-0.5,1-0.6,1.7H286.9z"/>
</g>
<path class="st0" d="M580.5,236.5h-225c-6.6,0-12-5.4-12-12v-10c0-6.6,5.4-12,12-12h225c6.6,0,12,5.4,12,12v10
	C592.5,231.1,587.1,236.5,580.5,236.5z"/>
<g>
	<path d="M355.5,217.9c0.5-1.5,1.7-2.3,3.5-2.3c2.1,0,3.2,1,3.2,3v3.2c0,1.2,0.1,2.2,0.2,3.1h-1c-0.1-0.3-0.1-0.9-0.2-1.6
		c-0.8,1.2-1.9,1.8-3.3,1.8c-1,0-1.7-0.3-2.2-0.8c-0.4-0.5-0.6-1.1-0.6-1.8c0-1.6,1-2.6,3-3c0.8-0.1,1.8-0.2,3-0.3v-0.5
		c0-0.9-0.2-1.5-0.6-1.8c-0.3-0.3-0.8-0.4-1.6-0.4c-1.3,0-2.1,0.6-2.5,1.8L355.5,217.9z M361.2,220c-0.9,0-1.8,0.1-2.8,0.3
		c-1.4,0.3-2.2,1-2.2,2.1c0,0.6,0.2,1,0.6,1.4c0.3,0.3,0.8,0.4,1.3,0.4c1.2,0,2.2-0.7,3-2V220z"/>
	<path d="M367.4,212.6v3.2h2.3v0.9h-2.3v5.9c0,1.1,0.4,1.6,1.3,1.6c0.4,0,0.8,0,1.2-0.1l-0.1,0.9c-0.4,0.1-0.8,0.1-1.3,0.1
		c-1.5,0-2.3-0.8-2.3-2.3v-6.1h-1.5v-0.9h1.5v-3L367.4,212.6z"/>
	<path d="M373.7,212.6v3.2h2.3v0.9h-2.3v5.9c0,1.1,0.4,1.6,1.3,1.6c0.4,0,0.8,0,1.2-0.1l-0.1,0.9c-0.4,0.1-0.8,0.1-1.3,0.1
		c-1.5,0-2.3-0.8-2.3-2.3v-6.1h-1.5v-0.9h1.5v-3L373.7,212.6z"/>
	<path d="M382.6,215.6l-0.1,1.1c-0.6,0-1.2,0.3-1.8,0.8c-0.5,0.5-0.9,1.2-1.1,2v5.3h-1.1v-9h1.1v2.3c0.4-0.9,0.8-1.6,1.4-2
		C381.5,215.8,382,215.6,382.6,215.6z"/>
	<path d="M386.4,212.2v1.7h-1.7v-1.7H386.4z M386.2,215.9v9h-1.1v-9H386.2z"/>
	<path d="M390.9,211.5v5.8c0.7-1.1,1.6-1.6,2.8-1.6s2,0.5,2.7,1.4c0.6,0.8,0.9,1.9,0.9,3.3c0,1.5-0.4,2.8-1.2,3.6
		c-0.7,0.7-1.5,1.1-2.5,1.1c-1.1,0-2-0.6-2.7-1.7l-0.2,1.5h-0.8v-13.4H390.9z M390.9,218.4v4c0.7,1.2,1.5,1.7,2.5,1.7
		c0.8,0,1.5-0.4,2-1.1c0.5-0.7,0.7-1.6,0.7-2.7c0-1.3-0.3-2.2-0.8-2.9c-0.5-0.6-1-0.8-1.7-0.8C392.4,216.6,391.6,217.2,390.9,218.4z
		"/>
	<path d="M407.1,215.9v9H406v-1.7c-0.4,0.6-0.9,1.1-1.6,1.5c-0.6,0.3-1.1,0.5-1.7,0.5c-0.8,0-1.4-0.2-1.9-0.7
		c-0.4-0.4-0.7-1-0.7-1.8v-6.7h1.1v6.4c0,1.2,0.6,1.9,1.7,1.9c0.6,0,1.1-0.2,1.7-0.6c0.5-0.4,0.9-0.8,1.2-1.3v-6.3H407.1z"/>
	<path d="M412.3,212.6v3.2h2.3v0.9h-2.3v5.9c0,1.1,0.4,1.6,1.3,1.6c0.4,0,0.8,0,1.2-0.1l-0.1,0.9c-0.4,0.1-0.8,0.1-1.3,0.1
		c-1.5,0-2.3-0.8-2.3-2.3v-6.1h-1.5v-0.9h1.5v-3L412.3,212.6z"/>
	<path d="M424.1,220.4h-6.5c0,1.3,0.3,2.2,0.9,2.9c0.5,0.6,1.2,0.8,2,0.8c1.3,0,2.1-0.6,2.5-1.9l1,0.4c-0.6,1.6-1.8,2.4-3.6,2.4
		c-1.3,0-2.3-0.5-3-1.4c-0.6-0.8-1-1.9-1-3.3c0-1.5,0.4-2.7,1.2-3.6c0.7-0.8,1.6-1.1,2.6-1.1c1.2,0,2.1,0.5,2.8,1.4
		c0.6,0.8,0.9,1.9,0.9,3.1V220.4z M423,219.6c-0.1-1-0.4-1.8-0.9-2.4c-0.5-0.5-1-0.7-1.7-0.7c-0.8,0-1.5,0.3-2,0.9
		c-0.4,0.5-0.7,1.3-0.8,2.1H423z"/>
	<path d="M428.7,215.9v1.8h-1.8v-1.8H428.7z M428.7,223v1.8h-1.8V223H428.7z"/>
	<path d="M440.6,215.6c1.2,0,2.2,0.5,2.9,1.4c0.6,0.8,0.9,1.9,0.9,3.3c0,1.5-0.4,2.7-1.2,3.6c-0.7,0.8-1.6,1.1-2.6,1.1
		c-1.2,0-2.2-0.5-2.9-1.4c-0.6-0.8-0.9-1.9-0.9-3.3c0-1.5,0.4-2.7,1.2-3.6C438.6,216,439.5,215.6,440.6,215.6z M440.6,216.5
		c-0.9,0-1.6,0.4-2,1.1c-0.4,0.7-0.6,1.5-0.6,2.7c0,1.3,0.3,2.3,0.8,3c0.5,0.6,1.1,0.9,1.9,0.9c0.9,0,1.6-0.4,2-1.1
		c0.4-0.7,0.6-1.6,0.6-2.7c0-1.3-0.3-2.2-0.8-2.9C442,216.8,441.3,216.5,440.6,216.5z"/>
	<path d="M448.5,215.9v1.7c1-1.3,2.1-1.9,3.3-1.9c0.8,0,1.5,0.3,1.9,0.8c0.4,0.5,0.6,1,0.6,1.8v6.7h-1.1v-6.2c0-1.3-0.6-2-1.7-2
		c-1,0-2,0.6-3,1.9v6.3h-1.1v-9H448.5z"/>
	<path d="M464.4,218.2l-1.1,0.3c-0.3-1.3-1.1-2-2.3-2c-0.9,0-1.6,0.4-2,1.1c-0.4,0.7-0.6,1.6-0.6,2.7c0,1.3,0.3,2.3,0.8,3
		c0.5,0.6,1.1,0.9,1.9,0.9c1.3,0,2.1-0.7,2.4-2l1.1,0.4c-0.6,1.7-1.7,2.6-3.5,2.6c-1.2,0-2.2-0.5-2.9-1.4c-0.6-0.8-0.9-1.9-0.9-3.3
		c0-1.5,0.4-2.7,1.2-3.6c0.7-0.8,1.6-1.1,2.6-1.1c0.9,0,1.6,0.2,2.2,0.7C463.8,216.8,464.2,217.4,464.4,218.2z"/>
	<path d="M468.3,211.5v6c1-1.2,2.1-1.9,3.3-1.9c0.8,0,1.4,0.3,1.9,0.8c0.4,0.5,0.6,1,0.6,1.8v6.7h-1.1v-6.2c0-1.3-0.6-2-1.7-2
		c-1,0-2,0.6-3,1.9v6.3h-1.1v-13.4H468.3z"/>
	<path d="M477.3,217.9c0.5-1.5,1.7-2.3,3.5-2.3c2.1,0,3.2,1,3.2,3v3.2c0,1.2,0.1,2.2,0.2,3.1h-1c-0.1-0.3-0.1-0.9-0.2-1.6
		c-0.8,1.2-1.9,1.8-3.3,1.8c-1,0-1.7-0.3-2.2-0.8c-0.4-0.5-0.6-1.1-0.6-1.8c0-1.6,1-2.6,3-3c0.8-0.1,1.8-0.2,3-0.3v-0.5
		c0-0.9-0.2-1.5-0.6-1.8c-0.3-0.3-0.8-0.4-1.6-0.4c-1.3,0-2.1,0.6-2.5,1.8L477.3,217.9z M483,220c-0.9,0-1.8,0.1-2.8,0.3
		c-1.4,0.3-2.2,1-2.2,2.1c0,0.6,0.2,1,0.6,1.4c0.3,0.3,0.8,0.4,1.3,0.4c1.2,0,2.2-0.7,3-2V220z"/>
	<path d="M491.7,215.6l-0.1,1.1c-0.6,0-1.2,0.3-1.8,0.8c-0.5,0.5-0.9,1.2-1.1,2v5.3h-1.1v-9h1.1v2.3c0.4-0.9,0.8-1.6,1.4-2
		C490.6,215.8,491.2,215.6,491.7,215.6z"/>
	<path d="M501.5,214.8l-0.1,1c-0.5,0-0.9,0.1-1.2,0.2c-0.2,0.1-0.5,0.3-0.7,0.5c0.6,0.5,0.9,1.2,0.9,2.1c0,1-0.4,1.7-1.1,2.3
		c-0.6,0.5-1.3,0.7-2.2,0.7c-0.5,0-1-0.1-1.5-0.3c-0.6,0.3-0.9,0.7-0.9,1.1c0,0.3,0.1,0.5,0.4,0.7c0.3,0.1,0.8,0.2,1.5,0.3l1.8,0.2
		c1.2,0.1,2.1,0.4,2.5,0.8c0.4,0.3,0.5,0.7,0.5,1.3c0,0.8-0.4,1.4-1.2,1.9c-0.8,0.4-1.8,0.6-3,0.6c-1.3,0-2.4-0.2-3.1-0.7
		c-0.6-0.4-0.9-0.9-0.9-1.5c0-0.5,0.2-0.9,0.6-1.2c0.3-0.3,0.7-0.6,1.3-0.7c-0.9-0.2-1.4-0.6-1.4-1.3c0-0.6,0.4-1.2,1.2-1.7
		c-0.8-0.5-1.1-1.3-1.1-2.3c0-0.9,0.4-1.7,1.1-2.3c0.6-0.5,1.3-0.7,2.2-0.7c0.7,0,1.3,0.1,1.7,0.4c0.3-0.5,0.7-0.8,1.2-1
		C500.4,214.8,500.9,214.8,501.5,214.8z M496.1,224.2c-1.2,0.3-1.8,0.9-1.8,1.6c0,0.5,0.3,1,0.9,1.2c0.5,0.2,1.2,0.3,2,0.3
		c1.1,0,1.9-0.2,2.5-0.5c0.5-0.3,0.7-0.6,0.7-1.1c0-0.4-0.2-0.7-0.5-0.9c-0.4-0.2-0.9-0.4-1.8-0.4L496.1,224.2z M497.1,216.4
		c-0.7,0-1.2,0.2-1.6,0.7c-0.4,0.4-0.6,0.9-0.6,1.5c0,0.7,0.2,1.3,0.7,1.7c0.4,0.3,0.9,0.5,1.5,0.5c0.7,0,1.2-0.2,1.6-0.6
		c0.4-0.4,0.6-0.9,0.6-1.5c0-0.7-0.2-1.3-0.7-1.7C498.2,216.6,497.7,216.4,497.1,216.4z"/>
	<path d="M505.4,212.2v1.7h-1.7v-1.7H505.4z M505.2,215.9v9H504v-9H505.2z"/>
	<path d="M509.8,215.9v1.7c1-1.3,2.1-1.9,3.3-1.9c0.8,0,1.5,0.3,1.9,0.8c0.4,0.5,0.6,1,0.6,1.8v6.7h-1.1v-6.2c0-1.3-0.6-2-1.7-2
		c-1,0-2,0.6-3,1.9v6.3h-1.1v-9H509.8z"/>
	<path d="M526.5,214.8l-0.1,1c-0.5,0-0.9,0.1-1.2,0.2c-0.2,0.1-0.5,0.3-0.7,0.5c0.6,0.5,0.9,1.2,0.9,2.1c0,1-0.4,1.7-1.1,2.3
		c-0.6,0.5-1.3,0.7-2.2,0.7c-0.5,0-1-0.1-1.5-0.3c-0.6,0.3-0.9,0.7-0.9,1.1c0,0.3,0.1,0.5,0.4,0.7c0.3,0.1,0.8,0.2,1.5,0.3l1.8,0.2
		c1.2,0.1,2.1,0.4,2.5,0.8c0.4,0.3,0.5,0.7,0.5,1.3c0,0.8-0.4,1.4-1.2,1.9c-0.8,0.4-1.8,0.6-3,0.6c-1.3,0-2.4-0.2-3.1-0.7
		c-0.6-0.4-0.9-0.9-0.9-1.5c0-0.5,0.2-0.9,0.6-1.2c0.3-0.3,0.7-0.6,1.3-0.7c-0.9-0.2-1.4-0.6-1.4-1.3c0-0.6,0.4-1.2,1.2-1.7
		c-0.8-0.5-1.1-1.3-1.1-2.3c0-0.9,0.4-1.7,1.1-2.3c0.6-0.5,1.3-0.7,2.2-0.7c0.7,0,1.3,0.1,1.7,0.4c0.3-0.5,0.7-0.8,1.2-1
		C525.5,214.8,525.9,214.8,526.5,214.8z M521.1,224.2c-1.2,0.3-1.8,0.9-1.8,1.6c0,0.5,0.3,1,0.9,1.2c0.5,0.2,1.2,0.3,2,0.3
		c1.1,0,1.9-0.2,2.5-0.5c0.5-0.3,0.7-0.6,0.7-1.1c0-0.4-0.2-0.7-0.5-0.9c-0.4-0.2-0.9-0.4-1.8-0.4L521.1,224.2z M522.2,216.4
		c-0.7,0-1.2,0.2-1.6,0.7c-0.4,0.4-0.6,0.9-0.6,1.5c0,0.7,0.2,1.3,0.7,1.7c0.4,0.3,0.9,0.5,1.5,0.5c0.7,0,1.2-0.2,1.6-0.6
		c0.4-0.4,0.6-0.9,0.6-1.5c0-0.7-0.2-1.3-0.7-1.7C523.2,216.6,522.8,216.4,522.2,216.4z"/>
	<path d="M535.7,218.2l-1.1,0.3c-0.3-1.3-1.1-2-2.3-2c-0.9,0-1.6,0.4-2,1.1c-0.4,0.7-0.6,1.6-0.6,2.7c0,1.3,0.3,2.3,0.8,3
		c0.5,0.6,1.1,0.9,1.9,0.9c1.3,0,2.1-0.7,2.4-2l1.1,0.4c-0.6,1.7-1.7,2.6-3.5,2.6c-1.2,0-2.2-0.5-2.9-1.4c-0.6-0.8-0.9-1.9-0.9-3.3
		c0-1.5,0.4-2.7,1.2-3.6c0.7-0.8,1.6-1.1,2.6-1.1c0.9,0,1.6,0.2,2.2,0.7C535,216.8,535.4,217.4,535.7,218.2z"/>
	<path d="M539.5,211.5v6c1-1.2,2.1-1.9,3.3-1.9c0.8,0,1.4,0.3,1.9,0.8c0.4,0.5,0.6,1,0.6,1.8v6.7h-1.1v-6.2c0-1.3-0.6-2-1.7-2
		c-1,0-2,0.6-3,1.9v6.3h-1.1v-13.4H539.5z"/>
	<path d="M548.5,217.9c0.5-1.5,1.7-2.3,3.5-2.3c2.1,0,3.2,1,3.2,3v3.2c0,1.2,0.1,2.2,0.2,3.1h-1c-0.1-0.3-0.1-0.9-0.2-1.6
		c-0.8,1.2-1.9,1.8-3.3,1.8c-1,0-1.7-0.3-2.2-0.8c-0.4-0.5-0.6-1.1-0.6-1.8c0-1.6,1-2.6,3-3c0.8-0.1,1.8-0.2,3-0.3v-0.5
		c0-0.9-0.2-1.5-0.6-1.8c-0.3-0.3-0.8-0.4-1.6-0.4c-1.3,0-2.1,0.6-2.5,1.8L548.5,217.9z M554.2,220c-0.9,0-1.8,0.1-2.8,0.3
		c-1.4,0.3-2.2,1-2.2,2.1c0,0.6,0.2,1,0.6,1.4c0.3,0.3,0.8,0.4,1.3,0.4c1.2,0,2.2-0.7,3-2V220z"/>
	<path d="M559.9,215.9v1.7c1-1.3,2.1-1.9,3.3-1.9c0.8,0,1.5,0.3,1.9,0.8c0.4,0.5,0.6,1,0.6,1.8v6.7h-1.1v-6.2c0-1.3-0.6-2-1.7-2
		c-1,0-2,0.6-3,1.9v6.3h-1.1v-9H559.9z"/>
	<path d="M576.6,214.8l-0.1,1c-0.5,0-0.9,0.1-1.2,0.2c-0.2,0.1-0.5,0.3-0.7,0.5c0.6,0.5,0.9,1.2,0.9,2.1c0,1-0.4,1.7-1.1,2.3
		c-0.6,0.5-1.3,0.7-2.2,0.7c-0.5,0-1-0.1-1.5-0.3c-0.6,0.3-0.9,0.7-0.9,1.1c0,0.3,0.1,0.5,0.4,0.7c0.3,0.1,0.8,0.2,1.5,0.3l1.8,0.2
		c1.2,0.1,2.1,0.4,2.5,0.8c0.4,0.3,0.5,0.7,0.5,1.3c0,0.8-0.4,1.4-1.2,1.9c-0.8,0.4-1.8,0.6-3,0.6c-1.3,0-2.4-0.2-3.1-0.7
		c-0.6-0.4-0.9-0.9-0.9-1.5c0-0.5,0.2-0.9,0.6-1.2c0.3-0.3,0.7-0.6,1.3-0.7c-0.9-0.2-1.4-0.6-1.4-1.3c0-0.6,0.4-1.2,1.2-1.7
		c-0.8-0.5-1.1-1.3-1.1-2.3c0-0.9,0.4-1.7,1.1-2.3c0.6-0.5,1.3-0.7,2.2-0.7c0.7,0,1.3,0.1,1.7,0.4c0.3-0.5,0.7-0.8,1.2-1
		C575.5,214.8,576,214.8,576.6,214.8z M571.2,224.2c-1.2,0.3-1.8,0.9-1.8,1.6c0,0.5,0.3,1,0.9,1.2c0.5,0.2,1.2,0.3,2,0.3
		c1.1,0,1.9-0.2,2.5-0.5c0.5-0.3,0.7-0.6,0.7-1.1c0-0.4-0.2-0.7-0.5-0.9c-0.4-0.2-0.9-0.4-1.8-0.4L571.2,224.2z M572.3,216.4
		c-0.7,0-1.2,0.2-1.6,0.7c-0.4,0.4-0.6,0.9-0.6,1.5c0,0.7,0.2,1.3,0.7,1.7c0.4,0.3,0.9,0.5,1.5,0.5c0.7,0,1.2-0.2,1.6-0.6
		c0.4-0.4,0.6-0.9,0.6-1.5c0-0.7-0.2-1.3-0.7-1.7C573.3,216.6,572.8,216.4,572.3,216.4z"/>
	<path d="M586.2,220.4h-6.5c0,1.3,0.3,2.2,0.9,2.9c0.5,0.6,1.2,0.8,2,0.8c1.3,0,2.1-0.6,2.5-1.9l1,0.4c-0.6,1.6-1.8,2.4-3.6,2.4
		c-1.3,0-2.3-0.5-3-1.4c-0.6-0.8-1-1.9-1-3.3c0-1.5,0.4-2.7,1.2-3.6c0.7-0.8,1.6-1.1,2.6-1.1c1.2,0,2.1,0.5,2.8,1.4
		c0.6,0.8,0.9,1.9,0.9,3.1V220.4z M585.1,219.6c-0.1-1-0.4-1.8-0.9-2.4c-0.5-0.5-1-0.7-1.7-0.7c-0.8,0-1.5,0.3-2,0.9
		c-0.4,0.5-0.7,1.3-0.8,2.1H585.1z"/>
</g>
<g>
</g>
<g>
</g>
<g>
</g>
<g>
</g>
<g>
</g>
<g>
</g>
<g>
</g>
<g>
</g>
<g>
</g>
<g>
</g>
<g>
</g>
<g>
</g>
<g>
</g>
<g>
</g>
<g>
</g>
<g>
</g>
</svg>
